<svg width="449" height="196" viewBox="0 0 449 196" fill="none" xmlns="http://www.w3.org/2000/svg" xmlns:xlink="http://www.w3.org/1999/xlink">
<path d="M69 98L69 100.5C69 107.956 62.9558 114 55.5 114V114C48.0442 114 42 107.956 42 100.5L42 98" stroke="#C1C7CD" stroke-width="2"/>
<path d="M123 84L123 100.5C123 107.956 116.956 114 109.5 114V114C102.044 114 96 107.956 96 100.5L96 84" stroke="#C1C7CD" stroke-width="2"/>
<path d="M42 98V98C42 90.268 35.732 84 28 84H15" stroke="#C1C7CD" stroke-width="2"/>
<path d="M150 85V85C150 92.732 156.268 99 164 99L177 99" stroke="#C1C7CD" stroke-width="2"/>
<path d="M69 98V75.5C69 68.0442 75.0442 62 82.5 62V62C89.9558 62 96 68.0442 96 75.5V98" stroke="#C1C7CD" stroke-width="2"/>
<path d="M123 86V75.5C123 68.0442 129.044 62 136.5 62V62C143.956 62 150 68.0442 150 75.5V86" stroke="#C1C7CD" stroke-width="2"/>
<line x1="-8.74228e-08" y1="84" x2="16" y2="84" stroke="#C1C7CD" stroke-width="2"/>
<line x1="168" y1="99" x2="228" y2="99" stroke="#C1C7CD" stroke-width="2"/>
<circle cx="295" cy="98" r="97" fill="#121619" stroke="#C1C7CD" stroke-width="2"/>
<rect x="157.847" y="32.8096" width="272.769" height="163.93" transform="rotate(-6.90844 157.847 32.8096)" fill="url(#pattern0)"/>
<defs>
<pattern id="pattern0" patternContentUnits="objectBoundingBox" width="1" height="1">
<use xlink:href="#image0" transform="translate(-0.000870486) scale(0.000296636 0.000493583)"/>
</pattern>
</defs>
</svg>
