<svg width="53" height="37" viewBox="0 0 53 37" fill="none" xmlns="http://www.w3.org/2000/svg">
<path d="M1 37V22.2309C1.00147 19.9106 1.78171 17.6591 3.21383 15.8424C4.64596 14.0258 6.64574 12.7508 8.888 12.2249C7.67079 11.6792 6.67645 10.7287 6.07135 9.53257C5.46624 8.33639 5.28708 6.96706 5.56385 5.65369C5.84061 4.34032 6.55651 3.16257 7.59175 2.31752C8.627 1.47246 9.9188 1.01136 11.251 1.01136C12.5832 1.01136 13.875 1.47246 14.9102 2.31752C15.9455 3.16257 16.6614 4.34032 16.9382 5.65369C17.2149 6.96706 17.0358 8.33639 16.4307 9.53257C15.8256 10.7287 14.8312 11.6792 13.614 12.2249C17.7434 11.0105 21.423 8.58981 24.188 5.26868C26.347 2.98992 27.588 3.81233 28.285 4.44627C28.982 5.08021 29.985 6.6051 27.758 8.95239C25.531 11.2997 19.785 17.1422 19.785 17.1422V37M33.385 37V17.1422C33.385 17.1422 29.322 12.9959 26.704 10.2888M52 37V22.2309C52.0012 19.9176 51.2283 17.6715 49.8062 15.8558C48.384 14.04 46.3958 12.7608 44.163 12.2249C45.385 11.6841 46.3852 10.7361 46.9956 9.53997C47.6061 8.34385 47.7897 6.97248 47.5155 5.65608C47.2414 4.33968 46.5263 3.15841 45.4902 2.31058C44.4541 1.46276 43.1601 1 41.8255 1C40.4909 1 39.1969 1.46276 38.1608 2.31058C37.1247 3.15841 36.4096 4.33968 36.1355 5.65608C35.8613 6.97248 36.0449 8.34385 36.6554 9.53997C37.2658 10.7361 38.266 11.6841 39.488 12.2249C35.2452 10.8798 31.4787 8.32725 28.642 4.87461" stroke="white" stroke-linejoin="round"/>
</svg>
