<?xml version="1.0" encoding="UTF-8"?>
<svg width="150px" height="150px" viewBox="0 0 150 150" version="1.1" xmlns="http://www.w3.org/2000/svg" xmlns:xlink="http://www.w3.org/1999/xlink">
    <!-- Generator: Sketch 49.3 (51167) - http://www.bohemiancoding.com/sketch -->
    <title>Ignis</title>
    <desc>Created with Sketch.</desc>
    <defs></defs>
    <g id="Page-1" stroke="none" stroke-width="1" fill="none" fill-rule="evenodd">
        <g id="Ignis" fill="#000000" fill-rule="nonzero">
            <path d="M140.87,41.06 C124.675716,9.63649186 88.5393376,-5.97166597 54.560196,3.78075101 C20.5810544,13.533168 -1.77731808,45.9300136 1.15842092,81.1588816 C4.09415992,116.38775 31.5063775,144.637046 66.6310345,148.630813 C101.755691,152.62458 134.810218,131.250514 145.58,97.58 C151.617894,78.8666446 149.921996,58.5158645 140.87,41.06 Z M81,136.28 L75,143.66 L68.88,136.37 C65.7514445,132.638074 65.0219302,127.449986 67,123 L75,104.79 L82.89,123.15 C84.7609371,127.536256 84.0321057,132.599513 81,136.28 Z M88.12,127.59 C88.0486143,125.468518 87.580546,123.37917 86.74,121.43 L77,98.6 C76.6656787,97.8252854 75.9037694,97.3225824 75.06,97.32 C74.2209749,97.3191021 73.4603589,97.8131104 73.12,98.58 L63.12,121.25 C62.2219998,123.299366 61.729592,125.503316 61.67,127.74 L60.15,125.93 C53.8342764,118.468781 52.3460466,108.051173 56.32,99.12 L75,56.68 L93.37,99.41 C97.1657166,108.195001 95.7338671,118.364606 89.66,125.76 L88.12,127.59 Z M97.23,97.73 L77,50.52 C76.6528972,49.728678 75.8639484,49.2237508 75,49.24 C74.1586092,49.2408487 73.3973498,49.739199 73.06,50.51 L52.39,97.41 C50.0619201,102.658836 49.304718,108.469841 50.21,114.14 L46.39,109.6 C40.1269943,102.19522 38.6543237,91.8593257 42.6,83 L75,9.52 L106.71,83.28 C110.477051,92.0057394 109.044671,102.105755 103,109.44 L99.37,113.88 C100.172598,108.404218 99.438659,102.813122 97.25,97.73 L97.23,97.73 Z M12.9,107 C1.98803806,85.769846 2.65892724,60.4402037 14.6794191,39.8174462 C26.6999109,19.1946886 48.4093493,6.1278928 72.26,5.16 L38.72,81.29 C34.1274575,91.6160471 35.8445425,103.658952 43.14,112.29 L56.84,128.61 L70.31,144.61 C45.9057893,142.997168 24.1259214,128.728907 12.9,107 Z M141.54,96.3 C132.760706,123.598146 108.220215,142.781177 79.61,144.71 L84.29,138.99 L92.91,128.46 L106.29,112.14 C113.324615,103.574199 114.98406,91.7960008 110.59,81.62 L77.72,5.16 C84.0297082,5.42473207 90.2753973,6.53462835 96.29,8.46 C133.032456,20.2259057 153.288006,59.5418169 141.54,96.29 L141.54,96.3 Z" id="Shape"></path>
        </g>
    </g>
</svg>