<?xml version="1.0" encoding="utf-8"?>
<!-- Generator: Adobe Illustrator 24.0.0, SVG Export Plug-In . SVG Version: 6.00 Build 0)  -->
<svg version="1.1" id="Layer_1" xmlns="http://www.w3.org/2000/svg" xmlns:xlink="http://www.w3.org/1999/xlink" x="0px" y="0px"
	 viewBox="0 0 528.1 170.5" style="enable-background:new 0 0 528.1 170.5;" xml:space="preserve">
<style type="text/css">
	.st0{fill:#697077;}
	.st1{fill:url(#SVGID_1_);}
	.st2{fill:url(#SVGID_2_);}
	.st3{fill:url(#SVGID_3_);}
	.st4{fill:url(#SVGID_4_);}
	.st5{fill:url(#SVGID_5_);}
	.st6{fill:url(#SVGID_6_);}
</style>
<g>
	<g>
		<path class="st0" d="M83.6,150.3c-34.9-0.4-72.1-9.3-72.1-25.1h5.8c0,8.8,27.2,18.9,66.3,19.4c39.8,0,69.6-10.2,69.6-19.4h5.8
			C159,140.9,120.7,150.3,83.6,150.3z"/>
		<radialGradient id="SVGID_1_" cx="85.2897" cy="112.6867" r="52.8855" gradientUnits="userSpaceOnUse">
			<stop  offset="0.4772" style="stop-color:#697077;stop-opacity:0"/>
			<stop  offset="0.9261" style="stop-color:#697077;stop-opacity:0.8587"/>
			<stop  offset="1" style="stop-color:#697077"/>
		</radialGradient>
		<path class="st1" d="M86.9,100.1c34.9,0.4,72.1,9.3,72.1,25.1h-5.8c0-8.8-27.2-18.9-66.3-19.4c-39.8,0-69.6,10.2-69.6,19.4h-5.8
			C11.5,109.5,49.9,100.1,86.9,100.1z"/>
		<path class="st0" d="M85.5,170.5c-47.1,0.1-85.4-38-85.5-85.1C-0.1,38.4,38,0.1,85.1,0c31.5-0.1,60.5,17.2,75.3,45l0,0
			c22.3,41.5,6.7,93.2-34.8,115.4C113.3,167,99.5,170.5,85.5,170.5z M85.2,5.8C41.3,5.9,5.8,41.5,5.8,85.4
			c0.1,43.9,35.7,79.4,79.6,79.3c43.9-0.1,79.4-35.7,79.3-79.6c0-13.1-3.3-25.9-9.4-37.4l0,0C141.5,21.9,114.5,5.8,85.2,5.8
			L85.2,5.8z"/>
		<path class="st0" d="M85.3,170.6c-12.5,0-22-5.3-22-12.2h5.8c0,2.6,6.3,6.5,16.2,6.5s16.2-3.8,16.2-6.5h5.8
			C107.3,165.3,97.9,170.6,85.3,170.6z"/>
		<linearGradient id="SVGID_2_" gradientUnits="userSpaceOnUse" x1="85.3113" y1="146.1886" x2="85.3113" y2="158.413">
			<stop  offset="0" style="stop-color:#697077;stop-opacity:0"/>
			<stop  offset="0.8793" style="stop-color:#697077;stop-opacity:0.8793"/>
			<stop  offset="1" style="stop-color:#697077"/>
		</linearGradient>
		<path class="st2" d="M85.3,146.2c12.5,0,22,5.3,22,12.2h-5.8c0-2.6-6.3-6.5-16.2-6.5s-16.2,3.8-16.2,6.5h-5.8
			C63.3,151.5,72.8,146.2,85.3,146.2z"/>
		<circle class="st0" cx="117.5" cy="144.8" r="7.4"/>
		<circle class="st0" cx="52.1" cy="25.5" r="8"/>
		
			<rect x="60.3" y="22.8" transform="matrix(0.8771 -0.4802 0.4802 0.8771 -13.5887 35.4218)" class="st0" width="4.3" height="42.9"/>
		<linearGradient id="SVGID_3_" gradientUnits="userSpaceOnUse" x1="78.2927" y1="62.1614" x2="77.5656" y2="82.9831">
			<stop  offset="7.853836e-04" style="stop-color:#697077;stop-opacity:0.9997"/>
			<stop  offset="4.763541e-02" style="stop-color:#697077;stop-opacity:0.8897"/>
			<stop  offset="0.4265" style="stop-color:#697077;stop-opacity:0"/>
			<stop  offset="0.4813" style="stop-color:#697077;stop-opacity:9.557271e-02"/>
			<stop  offset="1" style="stop-color:#697077"/>
		</linearGradient>
		<polygon class="st3" points="70.8,64.1 74.6,62 85,81 81.2,83.1 		"/>
		<linearGradient id="SVGID_4_" gradientUnits="userSpaceOnUse" x1="100.8719" y1="103.1651" x2="100.1268" y2="124.5005">
			<stop  offset="7.853836e-04" style="stop-color:#697077;stop-opacity:0.9997"/>
			<stop  offset="0.3847" style="stop-color:#697077;stop-opacity:9.826565e-02"/>
			<stop  offset="0.4265" style="stop-color:#697077;stop-opacity:0"/>
			<stop  offset="0.4813" style="stop-color:#697077;stop-opacity:9.557271e-02"/>
			<stop  offset="1" style="stop-color:#697077"/>
		</linearGradient>
		<polygon class="st4" points="93.3,105.1 97,103 107.7,122.6 103.9,124.6 		"/>
		
			<rect x="109.5" y="122.1" transform="matrix(0.8771 -0.4802 0.4802 0.8771 -50.7218 70.1004)" class="st0" width="4.3" height="24.2"/>
		<rect x="87" y="80.5" transform="matrix(0.8775 -0.4796 0.4796 0.8775 -33.7173 54.156)" class="st0" width="4.3" height="25.1"/>
		<path class="st0" d="M83.4,112.3C43,111.9,0,102.2,0,85.3h5.8c0,9.7,31.9,20.8,77.6,21.3c46.6,0,81.4-11.2,81.4-21.3h5.8
			C170.6,102.1,126.2,112.3,83.4,112.3z"/>
		<radialGradient id="SVGID_5_" cx="85.3113" cy="71.8616" r="61.0481" gradientUnits="userSpaceOnUse">
			<stop  offset="0.4772" style="stop-color:#697077;stop-opacity:0"/>
			<stop  offset="0.9261" style="stop-color:#697077;stop-opacity:0.8587"/>
			<stop  offset="1" style="stop-color:#697077"/>
		</radialGradient>
		<path class="st5" d="M87.3,58.3c40.4,0.4,83.3,10.1,83.3,27.1h-5.8c0-9.7-31.9-20.8-77.6-21.3c-46.6,0-81.4,11.2-81.4,21.3H0
			C0,68.5,44.5,58.3,87.3,58.3z"/>
		<path class="st0" d="M83.6,70.3C48.8,69.9,11.7,61,11.7,45.2h5.8c0,8.8,27.2,18.9,66.2,19.3c39.7,0,69.5-10.2,69.5-19.3h5.8
			C158.9,60.9,120.6,70.3,83.6,70.3z"/>
		<radialGradient id="SVGID_6_" cx="85.3185" cy="32.6296" r="52.7833" gradientUnits="userSpaceOnUse">
			<stop  offset="0" style="stop-color:#697077;stop-opacity:0"/>
			<stop  offset="0.8587" style="stop-color:#697077;stop-opacity:0.8587"/>
			<stop  offset="1" style="stop-color:#697077"/>
		</radialGradient>
		<path class="st6" d="M87,20.1c34.9,0.4,71.9,9.3,71.9,25.1h-5.8c0-8.8-27.2-18.9-66.2-19.3c-39.7,0-69.5,10.2-69.5,19.3h-5.8
			C11.7,29.5,50,20.1,87,20.1z"/>
		<path class="st0" d="M69.1,10h-5.8c0-6.8,11.4-9.9,22-9.9s22,3.1,22,9.9h-5.8c-0.3-1.1-5.9-4.1-16.2-4.1S69.4,8.8,69.1,10z"/>
		<path class="st0" d="M85.3,19.8c-10.6,0-22-3.1-22-9.9h5.8C69.4,11,74.9,14,85.3,14s15.9-3,16.2-4.2h5.8
			C107.3,16.7,95.9,19.8,85.3,19.8z"/>
	</g>
	<g>
		<path class="st0" d="M275.7,144.3h-12.7c-10,0-14.7-5.5-14.7-14.3v-6.8c-20.1-2.6-32.8-18.5-32.8-46.1c0-30.2,15.3-46.5,38.7-46.5
			s38.7,16.2,38.7,46.5c0,26.8-12,42.6-31,45.8v9.3h13.5L275.7,144.3z M277.3,84.2V70c0-16.3-9.3-26.4-23.2-26.4
			c-13.9,0-23.2,10-23.2,26.4v14.2c0,16.3,9.3,26.4,23.2,26.4C268.1,110.6,277.3,100.5,277.3,84.2z"/>
		<path class="st0" d="M304.1,35.8v-2.2c0-4.2,2.6-7.3,8.4-7.3s8.2,3.1,8.2,7.3v2.2c0,4.2-2.4,7.3-8.2,7.3S304.1,40,304.1,35.8z
			 M305.4,55.1h14V122h-14V55.1z"/>
		<path class="st0" d="M329.5,111l9-8.2c4.9,5.9,10.9,9.5,18.9,9.5c8.1,0,12.2-3.3,12.2-9c0-4.2-2.6-7.5-9.5-8.4l-6.2-0.8
			c-13.6-1.7-22-7.6-22-19.9c0-13,10.2-20.6,24.8-20.6c12.1,0,18.9,4,25,10.7l-8.6,8.2c-3.5-4.1-9.1-7.6-16.3-7.6
			c-7.7,0-11.3,3.3-11.3,8.4c0,5.1,3.2,7.5,10.3,8.6l6.2,0.8c14.7,2.2,21.2,8.6,21.2,19.4c0,12.9-10.4,21.5-26.5,21.5
			C344.1,123.6,335.8,118.8,329.5,111z"/>
		<path class="st0" d="M394.2,26.8h14v58.4h0.6l9.3-12l16.1-18.1h16.3L427.2,81l26.3,41.1h-16.7l-19.2-31.9l-9.3,10V122h-14V26.8z"
			/>
		<path class="st0" d="M462.9,35.8v-2.2c0-4.2,2.6-7.3,8.4-7.3s8.2,3.1,8.2,7.3v2.2c0,4.2-2.4,7.3-8.2,7.3S462.9,40,462.9,35.8z
			 M464.2,55.1h14V122h-14V55.1z"/>
		<path class="st0" d="M514.9,122c-9.7,0-14.8-5.4-14.8-14.5V66.6h-10.4V55.1h5.7c4.6,0,6.2-1.9,6.2-6.6V36.8h12.6v18.3h14v11.5h-14
			v44h13V122H514.9z"/>
	</g>
</g>
</svg>
