<?xml version="1.0" encoding="UTF-8"?>
<svg width="149px" height="150px" viewBox="0 0 149 150" version="1.1" xmlns="http://www.w3.org/2000/svg" xmlns:xlink="http://www.w3.org/1999/xlink">
    <!-- Generator: Sketch 49.3 (51167) - http://www.bohemiancoding.com/sketch -->
    <title>Aer_blk</title>
    <desc>Created with Sketch.</desc>
    <defs></defs>
    <g id="Page-1" stroke="none" stroke-width="1" fill="none" fill-rule="evenodd">
        <g id="Aer_blk" fill="#000000" fill-rule="nonzero">
            <path d="M125.41,21.6 C111.558149,8.205756 93.0082057,0.774290491 73.74,0.9 L72.59,0.9 C32.052405,1.82867336 -0.214794455,35.1592246 0.170918803,75.7056211 C0.55663206,116.252018 33.4520741,148.962684 74,149.12 L75.43,149.12 C105.401738,148.544367 132.076714,129.97409 143.020296,102.065767 C153.963878,74.1574444 147.021747,42.4050219 125.43,21.61 L125.41,21.6 Z M73.67,5.14 C82.2273522,5.2253026 89.1074587,12.2090574 89.0648069,20.7667284 C89.022155,29.3243995 82.0727773,36.2392275 73.515,36.2392275 C64.9572227,36.2392275 58.007845,29.3243995 57.9651931,20.7667284 C57.9225413,12.2090574 64.8026478,5.2253026 73.36,5.14 L73.67,5.14 Z M57.11,9.6 C52.8556979,15.7505156 52.3657826,23.7538004 55.8381326,30.3772975 C59.3104826,37.0007946 66.1715023,41.1503721 73.65,41.15 L74,41.15 C85.105663,40.925698 93.9352066,31.7562125 93.74,20.65 C93.6807902,16.4245585 92.2800186,12.3273017 89.74,8.95 C92.6700705,10.4789288 95.3644446,12.4222461 97.74,14.72 C108.381726,24.9551917 111.269002,40.8568703 104.904745,54.179847 C98.5404874,67.5028237 84.3565111,75.2497301 69.7073576,73.4037132 C55.0582041,71.5576963 43.2396015,60.5340682 40.3796206,46.0486967 C37.5196396,31.5633252 44.2617113,16.8750914 57.11,9.6 Z M44.72,14.45 C34.9858925,25.871456 32.7796876,41.909841 39.0683883,55.5353592 C45.357089,69.1608775 58.9932516,77.8874006 74,77.89 L74.75,77.89 C89.9021499,77.6109119 103.47946,68.4643124 109.430435,54.5269009 C115.38141,40.5894895 112.597691,24.4570827 102.32,13.32 C105.185904,15.1614144 107.865269,17.2781125 110.32,19.64 C126.124994,34.8315586 130.677939,58.3165828 121.69483,78.3137086 C112.71172,98.3108343 92.1308573,110.505249 70.2767198,108.779572 C48.4225822,107.053894 30.0106731,91.7804772 24.2774064,70.6212962 C18.5441397,49.4621151 26.7265917,26.9827213 44.72,14.46 L44.72,14.45 Z M75.33,144.87 L74,144.87 C43.2871115,144.857958 16.1854684,124.785622 7.21982087,95.410482 C-1.74582668,66.0353424 9.52830451,34.2502562 35,17.09 C18.8098809,33.0640681 13.8711262,57.2347924 22.4972712,78.279517 C31.1234161,99.3242416 51.605977,113.074874 74.35,113.09 L75.45,113.09 C97.6206618,112.666765 117.462411,99.2261616 126.079348,78.7941825 C134.696285,58.3622034 130.471835,34.7719753 115.3,18.6 C117.833214,20.4385615 120.241823,22.4429518 122.51,24.6 C142.872045,44.2025659 149.420518,74.1408847 139.10178,100.454325 C128.783041,126.767764 103.62927,144.274141 75.37,144.81 L75.33,144.87 Z" id="Shape"></path>
        </g>
    </g>
</svg>