<?xml version="1.0" encoding="UTF-8"?>
<svg width="150px" height="150px" viewBox="0 0 150 150" version="1.1" xmlns="http://www.w3.org/2000/svg" xmlns:xlink="http://www.w3.org/1999/xlink">
    <!-- Generator: Sketch 49.3 (51167) - http://www.bohemiancoding.com/sketch -->
    <title>Terra</title>
    <desc>Created with Sketch.</desc>
    <defs></defs>
    <g id="Page-1" stroke="none" stroke-width="1" fill="none" fill-rule="evenodd">
        <g id="Terra" fill="#000000" fill-rule="nonzero">
            <path d="M146.92,92.87 C153.612474,65.9619681 144.72437,37.5688633 123.883513,19.2797938 C103.042656,0.99072427 73.7356927,-4.13457346 47.9247373,5.99587435 C22.113782,16.1263222 4.11697256,39.8177054 1.28,67.4 C1.27420929,67.4798952 1.27420929,67.5601048 1.28,67.64 C1.06,69.87 0.92,72.14 0.9,74.43 C0.840020941,80.6877993 1.5759215,86.9278327 3.09,93 C3.10746629,93.0881407 3.13085261,93.1750042 3.16,93.26 C5.07827554,100.774208 8.16958151,107.938883 12.32,114.49 C12.420888,114.76268 12.5775597,115.011311 12.78,115.22 C26.312207,136.179801 49.4822231,148.92425 74.43,149.13 L75,149.13 C108.877877,149.077968 138.424704,126.101217 146.82,93.28 C146.864431,93.1462811 146.897875,93.0091593 146.92,92.87 Z M134.43,111.72 C120.587711,92.5891471 98.5294933,81.1120612 74.9186587,80.7557232 C51.3078242,80.3993853 28.9133036,91.2055843 14.5,109.91 C11.5109603,104.744276 9.19866169,99.2155967 7.62,93.46 C48.0227917,64.9589263 101.987208,64.9589263 142.39,93.46 C140.623678,99.8960554 137.94303,106.045379 134.43,111.72 Z M75,67.85 C50.5633432,67.7744822 26.6846944,75.1526183 6.55,89 C5.56034617,84.2040518 5.08101029,79.3168371 5.12,74.42 C5.12,72.69 5.23,70.98 5.37,69.28 C50.7885139,55.6434341 99.2114861,55.6434341 144.63,69.28 C144.8,71.28 144.89,73.39 144.88,75.48 C144.842795,80.0157565 144.363867,84.5371047 143.45,88.98 C123.31692,75.1315946 99.4358568,67.7596902 75,67.85 Z M75,5.12 L75.55,5.12 C109.966192,5.43445539 139.047628,30.7211857 144.14,64.76 C99.0038075,51.5705118 51.0361925,51.5705118 5.9,64.76 C11.0222157,30.5311747 40.3900954,5.18384702 75,5.12 Z M75,144.88 L74.45,144.88 C51.2957441,144.689955 29.7391384,133.042796 16.89,113.78 C30.4134132,95.3802748 52.0009809,84.6575353 74.8333258,84.9990278 C97.6656708,85.3405203 118.922904,96.7040689 131.89,115.5 C118.796156,133.919896 97.5995828,144.866553 75,144.88 Z" id="Shape"></path>
        </g>
    </g>
</svg>