<?xml version="1.0" encoding="utf-8"?>
<!-- Generator: Adobe Illustrator 24.0.0, SVG Export Plug-In . SVG Version: 6.00 Build 0)  -->
<svg version="1.1" id="Layer_1" xmlns="http://www.w3.org/2000/svg" xmlns:xlink="http://www.w3.org/1999/xlink" x="0px" y="0px"
	 viewBox="0 0 352 374" style="enable-background:new 0 0 352 374;" xml:space="preserve">
<style type="text/css">
	.st0{fill:none;stroke:#FFFFFF;stroke-width:2;}
</style>
<rect x="48" y="1" class="st0" width="64" height="63.9"/>
<rect x="176" y="128.8" class="st0" width="64" height="63.9"/>
<rect x="48" y="128.8" class="st0" width="64" height="63.9"/>
<rect x="-16" y="128.8" class="st0" width="64" height="63.9"/>
<rect x="240" y="128.8" class="st0" width="64" height="63.9"/>
<rect x="112" y="128.8" class="st0" width="64" height="63.9"/>
<rect x="176" y="256.6" class="st0" width="64" height="63.9"/>
<rect x="48" y="256.6" class="st0" width="64" height="63.9"/>
<rect x="304" y="256.6" class="st0" width="64" height="63.9"/>
<rect x="-16" y="256.6" class="st0" width="64" height="63.9"/>
<rect x="240" y="256.6" class="st0" width="64" height="63.9"/>
<rect x="112" y="256.6" class="st0" width="64" height="63.9"/>
<rect x="176" y="64.9" class="st0" width="64" height="63.9"/>
<rect x="48" y="64.9" class="st0" width="64" height="63.9"/>
<rect x="-16" y="64.9" class="st0" width="64" height="63.9"/>
<rect x="176" y="192.7" class="st0" width="64" height="63.9"/>
<rect x="48" y="192.7" class="st0" width="64" height="63.9"/>
<rect x="-16" y="192.7" class="st0" width="64" height="63.9"/>
<rect x="112" y="192.7" class="st0" width="64" height="63.9"/>
<rect x="176" y="320.5" class="st0" width="64" height="63.9"/>
<rect x="48" y="320.5" class="st0" width="64" height="63.9"/>
<rect x="304" y="320.5" class="st0" width="64" height="63.9"/>
<rect x="-16" y="320.5" class="st0" width="64" height="63.9"/>
<rect x="240" y="320.5" class="st0" width="64" height="63.9"/>
<rect x="112" y="320.5" class="st0" width="64" height="63.9"/>
</svg>
