<?xml version="1.0" encoding="utf-8"?>
<!-- Generator: Adobe Illustrator 18.1.1, SVG Export Plug-In . SVG Version: 6.00 Build 0)  -->
<svg version="1.1" xmlns="http://www.w3.org/2000/svg" xmlns:xlink="http://www.w3.org/1999/xlink" x="0px" y="0px"
	 viewBox="0 0 77.3 169" enable-background="new 0 0 77.3 169" xml:space="preserve">
<g id="Layer_1">
</g>
<g id="Layer_2">
</g>
<g id="Layer_4">
	<g>
		<linearGradient id="SVGID_1_" gradientUnits="userSpaceOnUse" x1="3.5566" y1="85.1551" x2="73.4795" y2="85.1551">
			<stop  offset="0" style="stop-color:#6105F2"/>
			<stop  offset="1" style="stop-color:#6A10F5"/>
		</linearGradient>
		<path fill="url(#SVGID_1_)" d="M69.5,166.2l-31-31.8l-31,31.8c-2.2,0-4-1.8-4-4v-150c0-4.4,3.6-8,8-8h53.9c4.4,0,8,3.6,8,8v150
			C73.5,164.4,71.7,166.2,69.5,166.2z"/>
		<linearGradient id="SVGID_3_" gradientUnits="userSpaceOnUse" x1="-15.1933" y1="31.4686" x2="39.7967" y2="87.6453">
			<stop  offset="0.1924" style="stop-color:#873EFC"/>
			<stop  offset="0.7802" style="stop-color:#873EFC;stop-opacity:0"/>
		</linearGradient>
		<path fill="url(#SVGID_3_)" d="M69.5,166.2l-31-31.8l-31,31.8c-2.2,0-4-1.8-4-4v-150c0-4.4,3.6-8,8-8h53.9c4.4,0,8,3.6,8,8v150
			C73.5,164.4,71.7,166.2,69.5,166.2z"/>
	</g>
	<g display="none">
		<g display="inline">
			<path fill="#F2F2F2" d="M11,77.1c-0.1-17.6,12.3-30,27.5-30c15.1,0,27.5,12,27.5,27.5c0,7.6-2.8,14.2-8.3,19.6
				c-5.3,5.2-11.8,7.9-19.2,7.9c-7.6,0-14.1-2.7-19.5-8.1C13.7,88.6,11.1,82.1,11,77.1z M32.3,49.9c-3,0.4-9.3,3.7-10.1,5.3
				c0.4,0.1,0.7-0.5,1.1-0.1c0,0.3,0,0.5,0,0.8c0,0.5-0.2,0.8-0.7,1c-0.4,0.2-0.7,0.3-1.1,0.5c-1.3,0.6-2.5,1.3-3.4,2.3
				c-0.8,0.9-0.8,1.8-0.1,2.7c0.8,1,1.8,1.6,2.9,2.1c2.5,1.2,5.1,1.8,7.8,2.3c1.5,0.2,3,0.4,4.4,0.6c1,0.1,1.9,0.1,2.9,0.1
				c-1.8-3.8-3.5-7.5-5.2-11.2c-1.3-0.1-2.3-0.7-2.5-1.7c-0.2-0.9,0.3-2,1.2-2.4c0.8-0.4,1.9-0.2,2.5,0.5c0.8,1,0.8,1.7-0.2,3.1
				c1.8,3.9,3.6,7.8,5.4,11.7c0.2,0,0.3,0,0.4,0c2.3,0,4.6-0.1,6.9-0.3c2.8-0.3,5.6-0.7,8.3-1.5c1.5-0.4,3-1,4.4-1.8
				c0.7-0.4,1.4-0.9,1.9-1.5c0.8-1,0.7-1.9-0.1-2.8c-1.1-1.2-2.4-1.9-3.8-2.5c-0.6-0.3-1.2-0.5-1.7-0.7c0-0.6,0-1.1,0-1.7
				c0.4,0.1,0.9,0.2,1.4,0.3c-2.2-2.2-8.3-5.3-10.2-5.1c-0.2,1.1-0.5,1.6-1.2,2.1c-0.5,0.3-1.1,0.6-1.6,0.8c-2.2,0.7-4.5,0.7-6.8,0
				C33.7,52.4,32.4,51.7,32.3,49.9z M15.8,63.1c-1.1,1.5-2.5,6.2-2.4,7.4c1.7-1.2,4.9-2.5,7.2-2.9c0,0.4-0.1,0.8-0.1,1.2
				c-0.1,0.4-0.3,0.6-0.7,0.7c-0.6,0.2-1.2,0.4-1.7,0.7c-1.5,0.7-3,1.4-4.2,2.6c-1.1,1.2-1.2,2.4,0,3.5c0.6,0.6,1.3,1.1,2,1.5
				c1.6,0.9,3.3,1.5,5.1,2c2.2,0.6,4.4,1,6.6,1.4c2.6,0.4,5.2,0.6,7.9,0.7c2,0.1,4,0,6,0c0.3,0,0.6-0.1,1-0.1c-1.9-4.1-3.7-8-5.5-12
				c-0.9-0.1-1.9-0.2-2.8-0.2c-1.9-0.1-3.8-0.3-5.8-0.7c-2.7-0.5-5.4-1.1-8-2.2C18.6,65.9,17,64.9,15.8,63.1z M43.6,81.8
				c0.3,0,0.5,0,0.8,0c1.3-0.1,2.7-0.3,4-0.5c1.9-0.3,3.9-0.6,5.8-1c2.3-0.5,4.6-1.3,6.8-2.4c0.8-0.5,1.6-1,2.3-1.7
				c0.8-0.8,1-2.1,0.2-3.1c-0.2-0.3-0.5-0.6-0.8-0.8c-0.7-0.5-1.4-1-2.1-1.4c-1-0.5-2.1-0.9-3.1-1.4c0-0.5,0-1,0-1.7
				c0.8,0.2,1.5,0.4,2.2,0.7c0.7,0.3,1.4,0.6,2,0.9c0.7,0.3,1.3,0.7,2,1.1c0.1-1.5-1.4-6-2.4-7.4c-0.9,1.4-2.2,2.3-3.6,3.1
				c-1.9,1-4,1.7-6.1,2.1c-2.5,0.6-5,1-7.6,1.2c-1.7,0.1-3.4,0.1-5.1,0.2c-0.2,0-0.5,0-0.8,0C39.9,73.8,41.8,77.8,43.6,81.8z
				 M23.5,82.6c0,0.1,0,0.1,0,0.2c-0.3,0.2-0.5,0.5-0.8,0.6c-1,0.5-2,0.9-2.9,1.4c-0.7,0.4-1.3,0.9-1.9,1.5
				c-0.8,0.9-0.8,1.7-0.1,2.7c0.5,0.7,1.2,1.2,2,1.7c1.3,0.7,2.8,1.3,4.2,1.7c1.5,0.4,3.1,0.7,4.7,1.1c2.3,0.5,4.7,0.6,7.1,0.7
				c3.2,0.1,6.4,0,9.6-0.3c0.8-0.1,1.6-0.2,1.9-1.1c0,0,0-0.1,0-0.1c-1.3-2.9-2.7-5.9-4-8.9C36.8,84.2,30.2,83.8,23.5,82.6z
				 M50.5,93c2.4-0.5,4.6-1.2,6.6-2.4c0.7-0.4,1.4-0.9,1.9-1.5c0.9-0.9,0.9-2,0-2.8c-0.5-0.6-1.2-1.1-1.8-1.5
				c-1.2-0.7-2.4-1.2-3.6-1.7c-0.3-0.1-0.2-0.3-0.4-0.5c-0.9,0.2-1.9,0.3-2.9,0.5c-1,0.1-2,0.2-3,0.4c-0.9,0.2-1.9,0-2.8,0.4
				c1.3,2.8,2.6,5.6,3.9,8.4C49.3,92.2,50,92.5,50.5,93z M22.1,94c3,2.6,6.3,4.3,10.1,5.3c0.2-1.8,1.4-2.5,2.9-3
				C30.7,96,26.4,95.3,22.1,94z M13.3,78.5c0.5,2.7,1.2,5.2,2.4,7.5c1.2-2.2,3.3-3.1,5.5-4C18.4,81.1,15.7,80.3,13.3,78.5z M61.3,86
				c1.2-2.4,1.9-4.8,2.4-7.5c-2.4,1.7-5.1,2.6-8,3.5C58,82.9,60,83.9,61.3,86z M55.2,93.9c-1.2,0.3-2.4,0.7-3.5,1
				c-0.5,0.1-0.9,0.3-1.1,0.8c-0.1,0.2-0.3,0.4-0.6,0.6c-0.8,0.6-1.7,0.5-2.4-0.1c-0.4-0.3-0.8-0.3-1.2-0.3
				c-0.9,0.1-1.9,0.2-2.8,0.3c-0.6,0.1-1.2,0.1-1.9,0.2c1.6,0.6,3,1.2,3,3C48.7,98.3,52.1,96.5,55.2,93.9z M34.4,99
				c1.9,1.4,6.7,1.4,8.1-0.1c-0.8-0.7-1.9-0.8-2.8-1.2c0.1-0.2,0.2-0.4,0.3-0.6c0.1-0.3,0.2-0.5,0.2-0.8c-0.8-0.2-2.9-0.2-3.5,0
				c-0.1,0.5,0.4,0.9,0.3,1.4C36.3,98.2,35.2,98.1,34.4,99z M42.6,49.9c-0.1-0.1-0.2-0.1-0.3-0.2c-0.6-0.4-1.2-0.4-1.9-0.5
				c-1.6-0.2-3.2-0.1-4.7,0.1c-0.5,0.1-1,0.2-1.4,0.7c0.1,0.6,0.6,0.7,1.1,0.9c1.7,0.6,3.4,0.7,5.2,0.2c0.5-0.1,1-0.3,1.5-0.5
				C42.4,50.4,42.6,50.3,42.6,49.9z"/>
		</g>
	</g>
	<g>
		<g>
			<linearGradient id="SVGID_6_" gradientUnits="userSpaceOnUse" x1="38.5181" y1="101.8367" x2="38.5181" y2="46.83">
				<stop  offset="0" style="stop-color:#A167FC"/>
				<stop  offset="0.4401" style="stop-color:#8B43FC"/>
				<stop  offset="1" style="stop-color:#721CF8"/>
			</linearGradient>
			<path fill="url(#SVGID_6_)" d="M11,76.8c-0.1-17.6,12.3-30,27.5-30c15.1,0,27.5,12,27.5,27.5c0,7.6-2.8,14.2-8.3,19.6
				c-5.3,5.2-11.8,7.9-19.2,7.9c-7.6,0-14.1-2.7-19.5-8.1C13.7,88.4,11.1,81.9,11,76.8z M32.3,49.7c-3,0.4-9.3,3.7-10.1,5.3
				c0.4,0.1,0.7-0.5,1.1-0.1c0,0.3,0,0.5,0,0.8c0,0.5-0.2,0.8-0.7,1c-0.4,0.2-0.7,0.3-1.1,0.5c-1.3,0.6-2.5,1.3-3.4,2.3
				c-0.8,0.9-0.8,1.8-0.1,2.7c0.8,1,1.8,1.6,2.9,2.1c2.5,1.2,5.1,1.8,7.8,2.3c1.5,0.2,3,0.4,4.4,0.6c1,0.1,1.9,0.1,2.9,0.1
				c-1.8-3.8-3.5-7.5-5.2-11.2c-1.3-0.1-2.3-0.7-2.5-1.7c-0.2-0.9,0.3-2,1.2-2.4c0.8-0.4,1.9-0.2,2.5,0.5c0.8,1,0.8,1.7-0.2,3.1
				c1.8,3.9,3.6,7.8,5.4,11.7c0.2,0,0.3,0,0.4,0c2.3,0,4.6-0.1,6.9-0.3c2.8-0.3,5.6-0.7,8.3-1.5c1.5-0.4,3-1,4.4-1.8
				c0.7-0.4,1.4-0.9,1.9-1.5c0.8-1,0.7-1.9-0.1-2.8c-1.1-1.2-2.4-1.9-3.8-2.5c-0.6-0.3-1.2-0.5-1.7-0.7c0-0.6,0-1.1,0-1.7
				c0.4,0.1,0.9,0.2,1.4,0.3c-2.2-2.2-8.3-5.3-10.2-5.1c-0.2,1.1-0.5,1.6-1.2,2.1c-0.5,0.3-1.1,0.6-1.6,0.8c-2.2,0.7-4.5,0.7-6.8,0
				C33.7,52.1,32.4,51.4,32.3,49.7z M15.8,62.9c-1.1,1.5-2.5,6.2-2.4,7.4c1.7-1.2,4.9-2.5,7.2-2.9c0,0.4-0.1,0.8-0.1,1.2
				c-0.1,0.4-0.3,0.6-0.7,0.7c-0.6,0.2-1.2,0.4-1.7,0.7c-1.5,0.7-3,1.4-4.2,2.6c-1.1,1.2-1.2,2.4,0,3.5c0.6,0.6,1.3,1.1,2,1.5
				c1.6,0.9,3.3,1.5,5.1,2c2.2,0.6,4.4,1,6.6,1.4c2.6,0.4,5.2,0.6,7.9,0.7c2,0.1,4,0,6,0c0.3,0,0.6-0.1,1-0.1c-1.9-4.1-3.7-8-5.5-12
				c-0.9-0.1-1.9-0.2-2.8-0.2c-1.9-0.1-3.8-0.3-5.8-0.7c-2.7-0.5-5.4-1.1-8-2.2C18.6,65.6,17,64.6,15.8,62.9z M43.6,81.5
				c0.3,0,0.5,0,0.8,0c1.3-0.1,2.7-0.3,4-0.5c1.9-0.3,3.9-0.6,5.8-1c2.3-0.5,4.6-1.3,6.8-2.4c0.8-0.5,1.6-1,2.3-1.7
				c0.8-0.8,1-2.1,0.2-3.1c-0.2-0.3-0.5-0.6-0.8-0.8c-0.7-0.5-1.4-1-2.1-1.4c-1-0.5-2.1-0.9-3.1-1.4c0-0.5,0-1,0-1.7
				c0.8,0.2,1.5,0.4,2.2,0.7c0.7,0.3,1.4,0.6,2,0.9c0.7,0.3,1.3,0.7,2,1.1c0.1-1.5-1.4-6-2.4-7.4c-0.9,1.4-2.2,2.3-3.6,3.1
				c-1.9,1-4,1.7-6.1,2.1c-2.5,0.6-5,1-7.6,1.2c-1.7,0.1-3.4,0.1-5.1,0.2c-0.2,0-0.5,0-0.8,0C39.9,73.5,41.8,77.5,43.6,81.5z
				 M23.5,82.3c0,0.1,0,0.1,0,0.2c-0.3,0.2-0.5,0.5-0.8,0.6c-1,0.5-2,0.9-2.9,1.4c-0.7,0.4-1.3,0.9-1.9,1.5
				c-0.8,0.9-0.8,1.7-0.1,2.7c0.5,0.7,1.2,1.2,2,1.7c1.3,0.7,2.8,1.3,4.2,1.7c1.5,0.4,3.1,0.7,4.7,1.1c2.3,0.5,4.7,0.6,7.1,0.7
				c3.2,0.1,6.4,0,9.6-0.3c0.8-0.1,1.6-0.2,1.9-1.1c0,0,0-0.1,0-0.1c-1.3-2.9-2.7-5.9-4-8.9C36.8,84,30.2,83.6,23.5,82.3z
				 M50.5,92.8c2.4-0.5,4.6-1.2,6.6-2.4c0.7-0.4,1.4-0.9,1.9-1.5c0.9-0.9,0.9-2,0-2.8c-0.5-0.6-1.2-1.1-1.8-1.5
				c-1.2-0.7-2.4-1.2-3.6-1.7c-0.3-0.1-0.2-0.3-0.4-0.5c-0.9,0.2-1.9,0.3-2.9,0.5c-1,0.1-2,0.2-3,0.4c-0.9,0.2-1.9,0-2.8,0.4
				c1.3,2.8,2.6,5.6,3.9,8.4C49.3,92,50,92.2,50.5,92.8z M22.1,93.8c3,2.6,6.3,4.3,10.1,5.3c0.2-1.8,1.4-2.5,2.9-3
				C30.7,95.7,26.4,95.1,22.1,93.8z M13.3,78.3c0.5,2.7,1.2,5.2,2.4,7.5c1.2-2.2,3.3-3.1,5.5-4C18.4,80.9,15.7,80.1,13.3,78.3z
				 M61.3,85.8c1.2-2.4,1.9-4.8,2.4-7.5c-2.4,1.7-5.1,2.6-8,3.5C58,82.7,60,83.7,61.3,85.8z M55.2,93.6c-1.2,0.3-2.4,0.7-3.5,1
				c-0.5,0.1-0.9,0.3-1.1,0.8c-0.1,0.2-0.3,0.4-0.6,0.6c-0.8,0.6-1.7,0.5-2.4-0.1c-0.4-0.3-0.8-0.3-1.2-0.3
				c-0.9,0.1-1.9,0.2-2.8,0.3C43,95.9,42.4,96,41.7,96c1.6,0.6,3,1.2,3,3C48.7,98,52.1,96.3,55.2,93.6z M34.4,98.8
				c1.9,1.4,6.7,1.4,8.1-0.1c-0.8-0.7-1.9-0.8-2.8-1.2c0.1-0.2,0.2-0.4,0.3-0.6c0.1-0.3,0.2-0.5,0.2-0.8c-0.8-0.2-2.9-0.2-3.5,0
				c-0.1,0.5,0.4,0.9,0.3,1.4C36.3,98,35.2,97.9,34.4,98.8z M42.6,49.6c-0.1-0.1-0.2-0.1-0.3-0.2c-0.6-0.4-1.2-0.4-1.9-0.5
				c-1.6-0.2-3.2-0.1-4.7,0.1c-0.5,0.1-1,0.2-1.4,0.7c0.1,0.6,0.6,0.7,1.1,0.9c1.7,0.6,3.4,0.7,5.2,0.2c0.5-0.1,1-0.3,1.5-0.5
				C42.4,50.2,42.6,50,42.6,49.6z"/>
		</g>
	</g>
	<g>
		<g>
			<path fill="#0A0032" d="M11,75.3c-0.1-17.6,12.3-30,27.5-30c15.1,0,27.5,12,27.5,27.5c0,7.6-2.8,14.2-8.3,19.6
				c-5.3,5.2-11.8,7.9-19.2,7.9c-7.6,0-14.1-2.7-19.5-8.1C13.7,86.9,11.1,80.4,11,75.3z M32.3,48.2c-3,0.4-9.3,3.7-10.1,5.3
				c0.4,0.1,0.7-0.5,1.1-0.1c0,0.3,0,0.5,0,0.8c0,0.5-0.2,0.8-0.7,1c-0.4,0.2-0.7,0.3-1.1,0.5c-1.3,0.6-2.5,1.3-3.4,2.3
				c-0.8,0.9-0.8,1.8-0.1,2.7c0.8,1,1.8,1.6,2.9,2.1c2.5,1.2,5.1,1.8,7.8,2.3c1.5,0.2,3,0.4,4.4,0.6c1,0.1,1.9,0.1,2.9,0.1
				c-1.8-3.8-3.5-7.5-5.2-11.2c-1.3-0.1-2.3-0.7-2.5-1.7c-0.2-0.9,0.3-2,1.2-2.4c0.8-0.4,1.9-0.2,2.5,0.5c0.8,1,0.8,1.7-0.2,3.1
				c1.8,3.9,3.6,7.8,5.4,11.7c0.2,0,0.3,0,0.4,0c2.3,0,4.6-0.1,6.9-0.3c2.8-0.3,5.6-0.7,8.3-1.5c1.5-0.4,3-1,4.4-1.8
				c0.7-0.4,1.4-0.9,1.9-1.5c0.8-1,0.7-1.9-0.1-2.8c-1.1-1.2-2.4-1.9-3.8-2.5c-0.6-0.3-1.2-0.5-1.7-0.7c0-0.6,0-1.1,0-1.7
				c0.4,0.1,0.9,0.2,1.4,0.3c-2.2-2.2-8.3-5.3-10.2-5.1c-0.2,1.1-0.5,1.6-1.2,2.1c-0.5,0.3-1.1,0.6-1.6,0.8c-2.2,0.7-4.5,0.7-6.8,0
				C33.7,50.6,32.4,49.9,32.3,48.2z M15.8,61.4c-1.1,1.5-2.5,6.2-2.4,7.4c1.7-1.2,4.9-2.5,7.2-2.9c0,0.4-0.1,0.8-0.1,1.2
				c-0.1,0.4-0.3,0.6-0.7,0.7c-0.6,0.2-1.2,0.4-1.7,0.7c-1.5,0.7-3,1.4-4.2,2.6c-1.1,1.2-1.2,2.4,0,3.5c0.6,0.6,1.3,1.1,2,1.5
				c1.6,0.9,3.3,1.5,5.1,2c2.2,0.6,4.4,1,6.6,1.4c2.6,0.4,5.2,0.6,7.9,0.7c2,0.1,4,0,6,0c0.3,0,0.6-0.1,1-0.1c-1.9-4.1-3.7-8-5.5-12
				c-0.9-0.1-1.9-0.2-2.8-0.2c-1.9-0.1-3.8-0.3-5.8-0.7c-2.7-0.5-5.4-1.1-8-2.2C18.6,64.1,17,63.1,15.8,61.4z M43.6,80
				c0.3,0,0.5,0,0.8,0c1.3-0.1,2.7-0.3,4-0.5c1.9-0.3,3.9-0.6,5.8-1c2.3-0.5,4.6-1.3,6.8-2.4c0.8-0.5,1.6-1,2.3-1.7
				c0.8-0.8,1-2.1,0.2-3.1c-0.2-0.3-0.5-0.6-0.8-0.8c-0.7-0.5-1.4-1-2.1-1.4c-1-0.5-2.1-0.9-3.1-1.4c0-0.5,0-1,0-1.7
				c0.8,0.2,1.5,0.4,2.2,0.7c0.7,0.3,1.4,0.6,2,0.9c0.7,0.3,1.3,0.7,2,1.1c0.1-1.5-1.4-6-2.4-7.4c-0.9,1.4-2.2,2.3-3.6,3.1
				c-1.9,1-4,1.7-6.1,2.1c-2.5,0.6-5,1-7.6,1.2c-1.7,0.1-3.4,0.1-5.1,0.2c-0.2,0-0.5,0-0.8,0C39.9,72,41.8,76,43.6,80z M23.5,80.8
				c0,0.1,0,0.1,0,0.2c-0.3,0.2-0.5,0.5-0.8,0.6c-1,0.5-2,0.9-2.9,1.4c-0.7,0.4-1.3,0.9-1.9,1.5c-0.8,0.9-0.8,1.7-0.1,2.7
				c0.5,0.7,1.2,1.2,2,1.7c1.3,0.7,2.8,1.3,4.2,1.7c1.5,0.4,3.1,0.7,4.7,1.1c2.3,0.5,4.7,0.6,7.1,0.7c3.2,0.1,6.4,0,9.6-0.3
				c0.8-0.1,1.6-0.2,1.9-1.1c0,0,0-0.1,0-0.1c-1.3-2.9-2.7-5.9-4-8.9C36.8,82.5,30.2,82.1,23.5,80.8z M50.5,91.3
				c2.4-0.5,4.6-1.2,6.6-2.4c0.7-0.4,1.4-0.9,1.9-1.5c0.9-0.9,0.9-2,0-2.8c-0.5-0.6-1.2-1.1-1.8-1.5c-1.2-0.7-2.4-1.2-3.6-1.7
				c-0.3-0.1-0.2-0.3-0.4-0.5c-0.9,0.2-1.9,0.3-2.9,0.5c-1,0.1-2,0.2-3,0.4c-0.9,0.2-1.9,0-2.8,0.4c1.3,2.8,2.6,5.6,3.9,8.4
				C49.3,90.5,50,90.7,50.5,91.3z M22.1,92.3c3,2.6,6.3,4.3,10.1,5.3c0.2-1.8,1.4-2.5,2.9-3C30.7,94.2,26.4,93.6,22.1,92.3z
				 M13.3,76.8c0.5,2.7,1.2,5.2,2.4,7.5c1.2-2.2,3.3-3.1,5.5-4C18.4,79.4,15.7,78.6,13.3,76.8z M61.3,84.3c1.2-2.4,1.9-4.8,2.4-7.5
				c-2.4,1.7-5.1,2.6-8,3.5C58,81.2,60,82.2,61.3,84.3z M55.2,92.1c-1.2,0.3-2.4,0.7-3.5,1c-0.5,0.1-0.9,0.3-1.1,0.8
				c-0.1,0.2-0.3,0.4-0.6,0.6c-0.8,0.6-1.7,0.5-2.4-0.1C47.2,94,46.8,94,46.4,94c-0.9,0.1-1.9,0.2-2.8,0.3c-0.6,0.1-1.2,0.1-1.9,0.2
				c1.6,0.6,3,1.2,3,3C48.7,96.5,52.1,94.8,55.2,92.1z M34.4,97.3c1.9,1.4,6.7,1.4,8.1-0.1c-0.8-0.7-1.9-0.8-2.8-1.2
				c0.1-0.2,0.2-0.4,0.3-0.6c0.1-0.3,0.2-0.5,0.2-0.8c-0.8-0.2-2.9-0.2-3.5,0c-0.1,0.5,0.4,0.9,0.3,1.4
				C36.3,96.5,35.2,96.4,34.4,97.3z M42.6,48.1c-0.1-0.1-0.2-0.1-0.3-0.2c-0.6-0.4-1.2-0.4-1.9-0.5c-1.6-0.2-3.2-0.1-4.7,0.1
				c-0.5,0.1-1,0.2-1.4,0.7c0.1,0.6,0.6,0.7,1.1,0.9c1.7,0.6,3.4,0.7,5.2,0.2c0.5-0.1,1-0.3,1.5-0.5C42.4,48.7,42.6,48.5,42.6,48.1z
				"/>
		</g>
	</g>
	<g>
		<g>
			<linearGradient id="SVGID_8_" gradientUnits="userSpaceOnUse" x1="38.5181" y1="46.0764" x2="38.5181" y2="101.0831">
				<stop  offset="0" style="stop-color:#4703B1"/>
				<stop  offset="1" style="stop-color:#6105F3"/>
			</linearGradient>
			<path fill="url(#SVGID_8_)" d="M11,76.1c-0.1-17.6,12.3-30,27.5-30c15.1,0,27.5,12,27.5,27.5c0,7.6-2.8,14.2-8.3,19.6
				c-5.3,5.2-11.8,7.9-19.2,7.9c-7.6,0-14.1-2.7-19.5-8.1C13.7,87.6,11.1,81.1,11,76.1z M32.3,48.9c-3,0.4-9.3,3.7-10.1,5.3
				c0.4,0.1,0.7-0.5,1.1-0.1c0,0.3,0,0.5,0,0.8c0,0.5-0.2,0.8-0.7,1c-0.4,0.2-0.7,0.3-1.1,0.5c-1.3,0.6-2.5,1.3-3.4,2.3
				c-0.8,0.9-0.8,1.8-0.1,2.7c0.8,1,1.8,1.6,2.9,2.1c2.5,1.2,5.1,1.8,7.8,2.3c1.5,0.2,3,0.4,4.4,0.6c1,0.1,1.9,0.1,2.9,0.1
				c-1.8-3.8-3.5-7.5-5.2-11.2c-1.3-0.1-2.3-0.7-2.5-1.7c-0.2-0.9,0.3-2,1.2-2.4c0.8-0.4,1.9-0.2,2.5,0.5c0.8,1,0.8,1.7-0.2,3.1
				c1.8,3.9,3.6,7.8,5.4,11.7c0.2,0,0.3,0,0.4,0c2.3,0,4.6-0.1,6.9-0.3c2.8-0.3,5.6-0.7,8.3-1.5c1.5-0.4,3-1,4.4-1.8
				c0.7-0.4,1.4-0.9,1.9-1.5c0.8-1,0.7-1.9-0.1-2.8c-1.1-1.2-2.4-1.9-3.8-2.5c-0.6-0.3-1.2-0.5-1.7-0.7c0-0.6,0-1.1,0-1.7
				c0.4,0.1,0.9,0.2,1.4,0.3c-2.2-2.2-8.3-5.3-10.2-5.1c-0.2,1.1-0.5,1.6-1.2,2.1c-0.5,0.3-1.1,0.6-1.6,0.8c-2.2,0.7-4.5,0.7-6.8,0
				C33.7,51.4,32.4,50.7,32.3,48.9z M15.8,62.1c-1.1,1.5-2.5,6.2-2.4,7.4c1.7-1.2,4.9-2.5,7.2-2.9c0,0.4-0.1,0.8-0.1,1.2
				c-0.1,0.4-0.3,0.6-0.7,0.7c-0.6,0.2-1.2,0.4-1.7,0.7c-1.5,0.7-3,1.4-4.2,2.6c-1.1,1.2-1.2,2.4,0,3.5c0.6,0.6,1.3,1.1,2,1.5
				c1.6,0.9,3.3,1.5,5.1,2c2.2,0.6,4.4,1,6.6,1.4c2.6,0.4,5.2,0.6,7.9,0.7c2,0.1,4,0,6,0c0.3,0,0.6-0.1,1-0.1c-1.9-4.1-3.7-8-5.5-12
				c-0.9-0.1-1.9-0.2-2.8-0.2c-1.9-0.1-3.8-0.3-5.8-0.7c-2.7-0.5-5.4-1.1-8-2.2C18.6,64.9,17,63.9,15.8,62.1z M43.6,80.8
				c0.3,0,0.5,0,0.8,0c1.3-0.1,2.7-0.3,4-0.5c1.9-0.3,3.9-0.6,5.8-1c2.3-0.5,4.6-1.3,6.8-2.4c0.8-0.5,1.6-1,2.3-1.7
				c0.8-0.8,1-2.1,0.2-3.1c-0.2-0.3-0.5-0.6-0.8-0.8c-0.7-0.5-1.4-1-2.1-1.4c-1-0.5-2.1-0.9-3.1-1.4c0-0.5,0-1,0-1.7
				c0.8,0.2,1.5,0.4,2.2,0.7c0.7,0.3,1.4,0.6,2,0.9c0.7,0.3,1.3,0.7,2,1.1c0.1-1.5-1.4-6-2.4-7.4c-0.9,1.4-2.2,2.3-3.6,3.1
				c-1.9,1-4,1.7-6.1,2.1c-2.5,0.6-5,1-7.6,1.2c-1.7,0.1-3.4,0.1-5.1,0.2c-0.2,0-0.5,0-0.8,0C39.9,72.8,41.8,76.8,43.6,80.8z
				 M23.5,81.6c0,0.1,0,0.1,0,0.2c-0.3,0.2-0.5,0.5-0.8,0.6c-1,0.5-2,0.9-2.9,1.4c-0.7,0.4-1.3,0.9-1.9,1.5
				c-0.8,0.9-0.8,1.7-0.1,2.7c0.5,0.7,1.2,1.2,2,1.7c1.3,0.7,2.8,1.3,4.2,1.7c1.5,0.4,3.1,0.7,4.7,1.1c2.3,0.5,4.7,0.6,7.1,0.7
				c3.2,0.1,6.4,0,9.6-0.3c0.8-0.1,1.6-0.2,1.9-1.1c0,0,0-0.1,0-0.1c-1.3-2.9-2.7-5.9-4-8.9C36.8,83.2,30.2,82.8,23.5,81.6z
				 M50.5,92c2.4-0.5,4.6-1.2,6.6-2.4c0.7-0.4,1.4-0.9,1.9-1.5c0.9-0.9,0.9-2,0-2.8c-0.5-0.6-1.2-1.1-1.8-1.5
				c-1.2-0.7-2.4-1.2-3.6-1.7c-0.3-0.1-0.2-0.3-0.4-0.5c-0.9,0.2-1.9,0.3-2.9,0.5c-1,0.1-2,0.2-3,0.4c-0.9,0.2-1.9,0-2.8,0.4
				c1.3,2.8,2.6,5.6,3.9,8.4C49.3,91.2,50,91.5,50.5,92z M22.1,93c3,2.6,6.3,4.3,10.1,5.3c0.2-1.8,1.4-2.5,2.9-3
				C30.7,95,26.4,94.3,22.1,93z M13.3,77.5c0.5,2.7,1.2,5.2,2.4,7.5c1.2-2.2,3.3-3.1,5.5-4C18.4,80.1,15.7,79.3,13.3,77.5z M61.3,85
				c1.2-2.4,1.9-4.8,2.4-7.5c-2.4,1.7-5.1,2.6-8,3.5C58,81.9,60,82.9,61.3,85z M55.2,92.9c-1.2,0.3-2.4,0.7-3.5,1
				c-0.5,0.1-0.9,0.3-1.1,0.8c-0.1,0.2-0.3,0.4-0.6,0.6c-0.8,0.6-1.7,0.5-2.4-0.1c-0.4-0.3-0.8-0.3-1.2-0.3
				c-0.9,0.1-1.9,0.2-2.8,0.3c-0.6,0.1-1.2,0.1-1.9,0.2c1.6,0.6,3,1.2,3,3C48.7,97.3,52.1,95.5,55.2,92.9z M34.4,98
				c1.9,1.4,6.7,1.4,8.1-0.1c-0.8-0.7-1.9-0.8-2.8-1.2c0.1-0.2,0.2-0.4,0.3-0.6c0.1-0.3,0.2-0.5,0.2-0.8c-0.8-0.2-2.9-0.2-3.5,0
				c-0.1,0.5,0.4,0.9,0.3,1.4C36.3,97.2,35.2,97.1,34.4,98z M42.6,48.9c-0.1-0.1-0.2-0.1-0.3-0.2c-0.6-0.4-1.2-0.4-1.9-0.5
				c-1.6-0.2-3.2-0.1-4.7,0.1c-0.5,0.1-1,0.2-1.4,0.7c0.1,0.6,0.6,0.7,1.1,0.9c1.7,0.6,3.4,0.7,5.2,0.2c0.5-0.1,1-0.3,1.5-0.5
				C42.4,49.4,42.6,49.3,42.6,48.9z"/>
		</g>
	</g>
</g>
<g id="Layer_3">
</g>
</svg>
