<svg aria-hidden="true" xmlns="http://www.w3.org/2000/svg" xmlns:xlink="http://www.w3.org/1999/xlink" viewBox="0 0 77.3 169"><defs><linearGradient id="a" x1="3.5" y1="84.8" x2="73.4" y2="84.8" gradientTransform="matrix(1, 0, 0, -1, 0, 170)" gradientUnits="userSpaceOnUse"><stop offset="0" stop-color="#6105f2"/><stop offset="1" stop-color="#6a10f5"/></linearGradient><linearGradient id="b" x1="-15.25" y1="138.47" x2="39.74" y2="82.3" gradientTransform="matrix(1, 0, 0, -1, 0, 170)" gradientUnits="userSpaceOnUse"><stop offset="0.19" stop-color="#873efc"/><stop offset="0.78" stop-color="#873efc" stop-opacity="0"/></linearGradient><linearGradient id="c" x1="38.5" y1="68.2" x2="38.5" y2="123.2" gradientTransform="matrix(1, 0, 0, -1, 0, 170)" gradientUnits="userSpaceOnUse"><stop offset="0" stop-color="#a167fc"/><stop offset="0.44" stop-color="#8b43fc"/><stop offset="1" stop-color="#721cf8"/></linearGradient><linearGradient id="d" x1="38.5" y1="123.9" x2="38.5" y2="68.9" gradientTransform="matrix(1, 0, 0, -1, 0, 170)" gradientUnits="userSpaceOnUse"><stop offset="0" stop-color="#4703b1"/><stop offset="1" stop-color="#6105f3"/></linearGradient></defs><path d="M69.5,166.2l-31-31.8-31,31.8a4,4,0,0,1-4-4V12.2a8,8,0,0,1,8-8H65.4a8,8,0,0,1,8,8v150A3.9,3.9,0,0,1,69.5,166.2Z" fill="url(#a)"/><path d="M69.5,166.2l-31-31.8-31,31.8a4,4,0,0,1-4-4V12.2a8,8,0,0,1,8-8H65.4a8,8,0,0,1,8,8v150A3.9,3.9,0,0,1,69.5,166.2Z" fill="url(#b)"/><path d="M11,76.8c-.1-17.6,12.3-30,27.5-30A27.4,27.4,0,0,1,66,74.3a26.6,26.6,0,0,1-8.3,19.6,26.7,26.7,0,0,1-19.2,7.9A26.6,26.6,0,0,1,19,93.7C13.7,88.4,11.1,81.9,11,76.8ZM32.3,49.7c-3,.4-9.3,3.7-10.1,5.3s.7-.5,1.1-.1v.8a1,1,0,0,1-.7,1l-1.1.5a10.2,10.2,0,0,0-3.4,2.3,1.9,1.9,0,0,0-.1,2.7,7.5,7.5,0,0,0,2.9,2.1,30.4,30.4,0,0,0,7.8,2.3l4.4.6H36L30.8,56.1c-1.3-.1-2.3-.7-2.5-1.7A2.2,2.2,0,0,1,29.5,52a2.1,2.1,0,0,1,2.5.5c.8,1,.8,1.7-.2,3.1l5.4,11.7h.4q3.4,0,6.9-.3a46.6,46.6,0,0,0,8.3-1.5,18.5,18.5,0,0,0,4.4-1.8,7,7,0,0,0,1.9-1.5,1.9,1.9,0,0,0-.1-2.8,10.5,10.5,0,0,0-3.8-2.5l-1.7-.7V54.5l1.4.3c-2.2-2.2-8.3-5.3-10.2-5.1a2.8,2.8,0,0,1-1.2,2.1l-1.6.8a11.3,11.3,0,0,1-6.8,0C33.7,52.1,32.4,51.4,32.3,49.7ZM15.8,62.9a19.4,19.4,0,0,0-2.4,7.4,21,21,0,0,1,7.2-2.9c0,.4-.1.8-.1,1.2a.8.8,0,0,1-.7.7l-1.7.7a14.1,14.1,0,0,0-4.2,2.6c-1.1,1.2-1.2,2.4,0,3.5a9.5,9.5,0,0,0,2,1.5,22.5,22.5,0,0,0,5.1,2c2.2.6,4.4,1,6.6,1.4a68.2,68.2,0,0,0,7.9.7h7L37,69.6l-2.8-.2a39.8,39.8,0,0,1-5.8-.7,38,38,0,0,1-8-2.2A11.6,11.6,0,0,1,15.8,62.9ZM43.6,81.5h.8l4-.5,5.8-1A29,29,0,0,0,61,77.6a12.4,12.4,0,0,0,2.3-1.7,2.3,2.3,0,0,0,.2-3.1l-.8-.8-2.1-1.4-3.1-1.4V67.5l2.2.7,2,.9,2,1.1c.1-1.5-1.4-6-2.4-7.4a9.8,9.8,0,0,1-3.6,3.1A22.1,22.1,0,0,1,51.6,68,48.1,48.1,0,0,1,44,69.2l-5.1.2h-.8C39.9,73.5,41.8,77.5,43.6,81.5Zm-20.1.8v.2c-.3.2-.5.5-.8.6l-2.9,1.4A9,9,0,0,0,17.9,86a1.9,1.9,0,0,0-.1,2.7,6.7,6.7,0,0,0,2,1.7A21.7,21.7,0,0,0,24,92.1l4.7,1.1a41.7,41.7,0,0,0,7.1.7,77,77,0,0,0,9.6-.3c.8-.1,1.6-.2,1.9-1.1h0c-1.3-2.9-2.7-5.9-4-8.9A73.8,73.8,0,0,1,23.5,82.3Zm27,10.5a20.8,20.8,0,0,0,6.6-2.4A7,7,0,0,0,59,88.9a1.8,1.8,0,0,0,0-2.8,8.4,8.4,0,0,0-1.8-1.5,29.2,29.2,0,0,0-3.6-1.7c-.3-.1-.2-.3-.4-.5l-2.9.5-3,.4a13.5,13.5,0,0,0-2.8.4l3.9,8.4A2.2,2.2,0,0,1,50.5,92.8Zm-28.4,1a24.6,24.6,0,0,0,10.1,5.3c.2-1.8,1.4-2.5,2.9-3A64.5,64.5,0,0,1,22.1,93.8ZM13.3,78.3a26.4,26.4,0,0,0,2.4,7.5c1.2-2.2,3.3-3.1,5.5-4C18.4,80.9,15.7,80.1,13.3,78.3Zm48,7.5a27.4,27.4,0,0,0,2.4-7.5,27.4,27.4,0,0,1-8,3.5C58,82.7,60,83.7,61.3,85.8Zm-6.1,7.8-3.5,1a1.3,1.3,0,0,0-1.1.8L50,96a1.8,1.8,0,0,1-2.4-.1,1.8,1.8,0,0,0-1.2-.3l-2.8.3H41.7c1.6.6,3,1.2,3,3A24.5,24.5,0,0,0,55.2,93.6ZM34.4,98.8c1.9,1.4,6.7,1.4,8.1-.1a9.9,9.9,0,0,0-2.8-1.2l.3-.6a2.4,2.4,0,0,0,.2-.8,10.3,10.3,0,0,0-3.5,0c-.1.5.4.9.3,1.4S35.2,97.9,34.4,98.8Zm8.2-49.2-.3-.2a4.1,4.1,0,0,0-1.9-.5,18.4,18.4,0,0,0-4.7.1,2.1,2.1,0,0,0-1.4.7c.1.6.6.7,1.1.9a8.4,8.4,0,0,0,5.2.2l1.5-.5A.7.7,0,0,0,42.6,49.6Z" fill="url(#c)"/><path d="M11,75.3c-.1-17.6,12.3-30,27.5-30A27.4,27.4,0,0,1,66,72.8a26.6,26.6,0,0,1-8.3,19.6,26.7,26.7,0,0,1-19.2,7.9A26.6,26.6,0,0,1,19,92.2C13.7,86.9,11.1,80.4,11,75.3ZM32.3,48.2c-3,.4-9.3,3.7-10.1,5.3s.7-.5,1.1-.1v.8a1,1,0,0,1-.7,1l-1.1.5A10.2,10.2,0,0,0,18.1,58a1.9,1.9,0,0,0-.1,2.7,7.5,7.5,0,0,0,2.9,2.1,30.4,30.4,0,0,0,7.8,2.3l4.4.6H36L30.8,54.6c-1.3-.1-2.3-.7-2.5-1.7a2.2,2.2,0,0,1,1.2-2.4A2.1,2.1,0,0,1,32,51c.8,1,.8,1.7-.2,3.1l5.4,11.7h.4q3.4,0,6.9-.3A46.6,46.6,0,0,0,52.8,64a18.5,18.5,0,0,0,4.4-1.8,7,7,0,0,0,1.9-1.5,1.9,1.9,0,0,0-.1-2.8,10.5,10.5,0,0,0-3.8-2.5l-1.7-.7V53l1.4.3c-2.2-2.2-8.3-5.3-10.2-5.1a2.8,2.8,0,0,1-1.2,2.1l-1.6.8a11.3,11.3,0,0,1-6.8,0C33.7,50.6,32.4,49.9,32.3,48.2ZM15.8,61.4a19.4,19.4,0,0,0-2.4,7.4,21,21,0,0,1,7.2-2.9c0,.4-.1.8-.1,1.2a.8.8,0,0,1-.7.7l-1.7.7a14.1,14.1,0,0,0-4.2,2.6c-1.1,1.2-1.2,2.4,0,3.5a9.5,9.5,0,0,0,2,1.5,22.5,22.5,0,0,0,5.1,2c2.2.6,4.4,1,6.6,1.4a68.2,68.2,0,0,0,7.9.7h7L37,68.1l-2.8-.2a39.8,39.8,0,0,1-5.8-.7,38,38,0,0,1-8-2.2A11.6,11.6,0,0,1,15.8,61.4ZM43.6,80h.8l4-.5,5.8-1A29,29,0,0,0,61,76.1a12.4,12.4,0,0,0,2.3-1.7,2.3,2.3,0,0,0,.2-3.1l-.8-.8-2.1-1.4-3.1-1.4V66l2.2.7,2,.9,2,1.1c.1-1.5-1.4-6-2.4-7.4a9.8,9.8,0,0,1-3.6,3.1,22.1,22.1,0,0,1-6.1,2.1A48.1,48.1,0,0,1,44,67.7l-5.1.2h-.8C39.9,72,41.8,76,43.6,80Zm-20.1.8V81c-.3.2-.5.5-.8.6L19.8,83a9,9,0,0,0-1.9,1.5,1.9,1.9,0,0,0-.1,2.7,6.7,6.7,0,0,0,2,1.7A21.7,21.7,0,0,0,24,90.6l4.7,1.1a41.7,41.7,0,0,0,7.1.7,77,77,0,0,0,9.6-.3c.8-.1,1.6-.2,1.9-1.1h0C46,88,44.6,85,43.3,82A73.8,73.8,0,0,1,23.5,80.8Zm27,10.5a20.8,20.8,0,0,0,6.6-2.4A7,7,0,0,0,59,87.4a1.8,1.8,0,0,0,0-2.8,8.4,8.4,0,0,0-1.8-1.5,29.2,29.2,0,0,0-3.6-1.7c-.3-.1-.2-.3-.4-.5l-2.9.5-3,.4a13.5,13.5,0,0,0-2.8.4l3.9,8.4A2.2,2.2,0,0,1,50.5,91.3Zm-28.4,1a24.6,24.6,0,0,0,10.1,5.3c.2-1.8,1.4-2.5,2.9-3A64.5,64.5,0,0,1,22.1,92.3ZM13.3,76.8a26.4,26.4,0,0,0,2.4,7.5c1.2-2.2,3.3-3.1,5.5-4C18.4,79.4,15.7,78.6,13.3,76.8Zm48,7.5a27.4,27.4,0,0,0,2.4-7.5,27.4,27.4,0,0,1-8,3.5C58,81.2,60,82.2,61.3,84.3Zm-6.1,7.8-3.5,1a1.3,1.3,0,0,0-1.1.8l-.6.6a1.8,1.8,0,0,1-2.4-.1,1.5,1.5,0,0,0-1.2-.4l-2.8.3-1.9.2c1.6.6,3,1.2,3,3A24.5,24.5,0,0,0,55.2,92.1ZM34.4,97.3c1.9,1.4,6.7,1.4,8.1-.1A9.9,9.9,0,0,0,39.7,96l.3-.6a2.4,2.4,0,0,0,.2-.8,10.3,10.3,0,0,0-3.5,0c-.1.5.4.9.3,1.4S35.2,96.4,34.4,97.3Zm8.2-49.2-.3-.2a4.1,4.1,0,0,0-1.9-.5,18.4,18.4,0,0,0-4.7.1,2.1,2.1,0,0,0-1.4.7c.1.6.6.7,1.1.9a8.4,8.4,0,0,0,5.2.2l1.5-.5A.7.7,0,0,0,42.6,48.1Z" fill="#0a0032"/><path d="M11,76.1c-.1-17.6,12.3-30,27.5-30A27.4,27.4,0,0,1,66,73.6a26.6,26.6,0,0,1-8.3,19.6,26.7,26.7,0,0,1-19.2,7.9A26.6,26.6,0,0,1,19,93C13.7,87.6,11.1,81.1,11,76.1ZM32.3,48.9c-3,.4-9.3,3.7-10.1,5.3.4.1.7-.5,1.1-.1v.8a1,1,0,0,1-.7,1l-1.1.5a10.2,10.2,0,0,0-3.4,2.3,1.9,1.9,0,0,0-.1,2.7,7.5,7.5,0,0,0,2.9,2.1,30.4,30.4,0,0,0,7.8,2.3l4.4.6H36L30.8,55.3c-1.3-.1-2.3-.7-2.5-1.7a2.2,2.2,0,0,1,1.2-2.4,2.1,2.1,0,0,1,2.5.5c.8,1,.8,1.7-.2,3.1l5.4,11.7h.4q3.4,0,6.9-.3a46.6,46.6,0,0,0,8.3-1.5,18.5,18.5,0,0,0,4.4-1.8,7,7,0,0,0,1.9-1.5,1.9,1.9,0,0,0-.1-2.8,10.5,10.5,0,0,0-3.8-2.5l-1.7-.7V53.7l1.4.3c-2.2-2.2-8.3-5.3-10.2-5.1A2.8,2.8,0,0,1,43.5,51l-1.6.8a11.3,11.3,0,0,1-6.8,0C33.7,51.4,32.4,50.7,32.3,48.9ZM15.8,62.1a19.4,19.4,0,0,0-2.4,7.4,21,21,0,0,1,7.2-2.9c0,.4-.1.8-.1,1.2a.8.8,0,0,1-.7.7l-1.7.7a14.1,14.1,0,0,0-4.2,2.6c-1.1,1.2-1.2,2.4,0,3.5a9.5,9.5,0,0,0,2,1.5,22.5,22.5,0,0,0,5.1,2c2.2.6,4.4,1,6.6,1.4a68.2,68.2,0,0,0,7.9.7h7L37,68.8l-2.8-.2a39.8,39.8,0,0,1-5.8-.7,38,38,0,0,1-8-2.2A10,10,0,0,1,15.8,62.1ZM43.6,80.8h.8l4-.5,5.8-1A29,29,0,0,0,61,76.9a12.4,12.4,0,0,0,2.3-1.7,2.3,2.3,0,0,0,.2-3.1l-.8-.8-2.1-1.4-3.1-1.4V66.8l2.2.7,2,.9,2,1.1c.1-1.5-1.4-6-2.4-7.4a9.8,9.8,0,0,1-3.6,3.1,22.1,22.1,0,0,1-6.1,2.1A48.1,48.1,0,0,1,44,68.5l-5.1.2h-.8C39.9,72.8,41.8,76.8,43.6,80.8Zm-20.1.8v.2c-.3.2-.5.5-.8.6l-2.9,1.4a9,9,0,0,0-1.9,1.5,1.9,1.9,0,0,0-.1,2.7,6.7,6.7,0,0,0,2,1.7A21.7,21.7,0,0,0,24,91.4l4.7,1.1a41.7,41.7,0,0,0,7.1.7,77,77,0,0,0,9.6-.3c.8-.1,1.6-.2,1.9-1.1h0c-1.3-2.9-2.7-5.9-4-8.9A83,83,0,0,1,23.5,81.6ZM50.5,92a20.8,20.8,0,0,0,6.6-2.4A7,7,0,0,0,59,88.1a1.8,1.8,0,0,0,0-2.8,8.4,8.4,0,0,0-1.8-1.5,29.2,29.2,0,0,0-3.6-1.7c-.3-.1-.2-.3-.4-.5l-2.9.5-3,.4a13.5,13.5,0,0,0-2.8.4l3.9,8.4A2.5,2.5,0,0,1,50.5,92ZM22.1,93a24.6,24.6,0,0,0,10.1,5.3c.2-1.8,1.4-2.5,2.9-3A58.2,58.2,0,0,1,22.1,93ZM13.3,77.5A26.4,26.4,0,0,0,15.7,85c1.2-2.2,3.3-3.1,5.5-4C18.4,80.1,15.7,79.3,13.3,77.5Zm48,7.5a27.4,27.4,0,0,0,2.4-7.5,27.4,27.4,0,0,1-8,3.5C58,81.9,60,82.9,61.3,85Zm-6.1,7.9-3.5,1a1.3,1.3,0,0,0-1.1.8,1.7,1.7,0,0,1-.6.6,1.8,1.8,0,0,1-2.4-.1,1.8,1.8,0,0,0-1.2-.3l-2.8.3-1.9.2c1.6.6,3,1.2,3,3A27.1,27.1,0,0,0,55.2,92.9ZM34.4,98c1.9,1.4,6.7,1.4,8.1-.1a9.9,9.9,0,0,0-2.8-1.2l.3-.6a2.4,2.4,0,0,0,.2-.8,10.3,10.3,0,0,0-3.5,0c-.1.5.4.9.3,1.4S35.2,97.1,34.4,98Zm8.2-49.1-.3-.2a4.1,4.1,0,0,0-1.9-.5,18.4,18.4,0,0,0-4.7.1,2.1,2.1,0,0,0-1.4.7c.1.6.6.7,1.1.9a8.4,8.4,0,0,0,5.2.2l1.5-.5C42.4,49.4,42.6,49.3,42.6,48.9Z" fill="url(#d)"/></svg>
