<?xml version="1.0" encoding="iso-8859-1"?>
<!-- Generator: Adobe Illustrator 19.0.0, SVG Export Plug-In . SVG Version: 6.00 Build 0)  -->
<svg fill="#ffffff" version="1.1" id="Capa_1" xmlns="http://www.w3.org/2000/svg" xmlns:xlink="http://www.w3.org/1999/xlink" x="0px" y="0px"
	 viewBox="0 0 511.999 511.999" style="enable-background:new 0 0 511.999 511.999;" xml:space="preserve">
<g>
	<g>
		<path d="M344.214,276.755l-43.582-19.37c-3.079-1.368-5.067-4.429-5.067-7.797V237.62c14.64-11.665,24.05-29.628,24.05-49.758
			v-16.847c4.823-2.665,8.016-7.815,8.016-13.583v-1.635c0-35.076-28.537-63.613-63.613-63.613h-16.032
			c-35.076,0-63.613,28.537-63.613,63.613v14.835c0,5.07,2.182,9.663,5.985,12.602c0.645,0.498,1.324,0.936,2.031,1.315v3.312
			c0,20.13,9.409,38.093,24.048,49.757v11.969c0,3.368-1.989,6.429-5.067,7.797l-43.582,19.37
			c-14.273,6.343-23.496,20.535-23.496,36.154v99.404c0,4.142,3.358,7.5,7.5,7.5c4.142,0,7.5-3.358,7.5-7.5v-99.403
			c0-0.869,0.062-1.728,0.152-2.58l20.082,20.082c3.125,3.126,4.847,7.281,4.847,11.702v70.2c0,4.142,3.358,7.5,7.5,7.5
			c4.142,0,7.5-3.358,7.5-7.5v-70.2c0-8.427-3.281-16.349-9.24-22.308l-23.941-23.942c2.157-2.238,4.745-4.093,7.689-5.402
			l42.847-19.043l31.775,31.775v109.119c0,4.142,3.358,7.5,7.5,7.5s7.5-3.358,7.5-7.5V303.194l31.775-31.775l42.846,19.042
			c2.944,1.309,5.532,3.164,7.689,5.403l-23.941,23.941c-5.959,5.959-9.24,13.881-9.24,22.308v70.2c0,4.142,3.358,7.5,7.5,7.5
			c4.142,0,7.5-3.358,7.5-7.5v-70.2c0-4.42,1.721-8.576,4.847-11.702l20.081-20.081c0.09,0.852,0.152,1.709,0.152,2.578v99.404
			c0,4.142,3.358,7.5,7.5,7.5c4.142,0,7.5-3.358,7.5-7.5v-99.403C367.709,297.29,358.487,283.098,344.214,276.755z M256,289.481
			l-27.881-27.882c2.12-3.567,3.317-7.694,3.317-12.011v-3.052c7.563,3.178,15.862,4.939,24.565,4.939s17.001-1.76,24.563-4.938
			v3.051c0,4.318,1.197,8.444,3.318,12.012L256,289.481z M256.001,236.474c-26.805,0.001-48.613-21.807-48.613-48.612v-3.373
			c4.68-1.855,9.248-4.807,13.621-8.842c3.043-2.809,3.234-7.554,0.424-10.598c-2.809-3.043-7.553-3.234-10.598-0.425
			c-3.751,3.463-7.499,5.7-11.137,6.65c-0.088,0.023-0.153,0.033-0.199,0.037c-0.054-0.105-0.127-0.325-0.127-0.678v-14.835
			c0-26.805,21.808-48.613,48.613-48.613h16.032c26.806,0,48.613,21.808,48.613,48.613v1.635c0,0.243-0.146,0.454-0.338,0.492
			c-44.911,8.87-67.437-7.847-75.037-15.447c-2.929-2.929-7.678-2.929-10.606,0c-2.929,2.929-2.929,7.678,0,10.606
			c23.29,23.29,57.275,23.71,77.965,21.224v13.553C304.614,214.666,282.806,236.474,256.001,236.474z"/>
	</g>
</g>
<g>
	<g>
		<path d="M135.242,235.961v-16.035c0-19.566-10.168-36.79-25.489-46.702c0.946-3.035,1.44-6.214,1.44-9.411
			c0-17.396-14.152-31.548-31.548-31.548s-31.548,14.153-31.548,31.548c0,3.237,0.49,6.385,1.438,9.413
			c-15.32,9.911-25.487,27.135-25.487,46.7v16.032c0,18.947,9.533,35.701,24.048,45.743v16.493c0,3.253-1.807,6.177-4.716,7.632
			l-25.941,12.97C6.682,324.176,0,334.988,0,347.015v65.299c0,4.142,3.358,7.5,7.5,7.5s7.5-3.358,7.5-7.5v-62.055l12.218,12.218
			c3.125,3.126,4.847,7.281,4.847,11.702v38.135c0,4.142,3.358,7.5,7.5,7.5c4.142,0,7.5-3.358,7.5-7.5v-38.135
			c0-8.427-3.282-16.349-9.24-22.308L20.82,334.866c-0.082-0.082-0.17-0.153-0.254-0.23c1.067-0.942,2.264-1.762,3.582-2.422
			l25.941-12.97c1.329-0.665,2.566-1.45,3.719-2.322l18.337,18.338v77.055c0,4.142,3.358,7.5,7.5,7.5c4.142,0,7.5-3.358,7.5-7.5
			v-77.056l18.338-18.338c1.154,0.873,2.39,1.658,3.719,2.322l7.153,3.577c1.077,0.539,2.221,0.794,3.349,0.794
			c2.751,0,5.4-1.52,6.714-4.147c1.853-3.705,0.351-8.21-3.354-10.062l-7.153-3.577c-2.91-1.455-4.717-4.379-4.717-7.631v-16.493
			C125.709,271.662,135.242,254.907,135.242,235.961z M79.645,147.265c9.125,0,16.548,7.424,16.548,16.548
			c0,1.005-0.09,1.99-0.262,2.955c-5.154-1.582-10.621-2.439-16.286-2.439c-5.657,0-11.117,0.854-16.263,2.432
			c-0.173-0.965-0.285-1.945-0.285-2.948C63.097,154.688,70.52,147.265,79.645,147.265z M79.645,179.33
			c22.385,0,40.597,18.212,40.597,40.597v2.718c-31.225,9.56-49.834-14.193-50.629-15.234c-1.305-1.739-3.3-2.827-5.468-2.981
			c-2.168-0.152-4.298,0.641-5.835,2.178c-7.159,7.159-14.171,10.612-19.235,12.279C39.63,196.981,57.609,179.33,79.645,179.33z
			 M79.645,321.545l-17.331-17.331c0.506-1.934,0.783-3.95,0.783-6.019v-9.155c5.229,1.634,10.788,2.515,16.548,2.515
			s11.319-0.881,16.548-2.515v9.155c0,2.069,0.277,4.086,0.783,6.019L79.645,321.545z M79.645,276.555
			c-22.385,0-40.597-18.212-40.597-40.597v-1.554c5.981-1.374,14.849-4.567,24.1-12.007c3.273,3.088,7.951,6.876,13.908,10.125
			c7.046,3.843,16.777,7.398,28.663,7.398c4.517,0,9.35-0.525,14.459-1.731C119.015,259.541,101.281,276.555,79.645,276.555z"/>
	</g>
</g>
<g>
	<g>
		<path d="M494.561,302.765l-41.973-20.987c-2.909-1.455-4.716-4.379-4.716-7.631v-10.629c9.825-8.723,16.032-21.435,16.032-35.575
			v-8.537c0.173,0,0.343,0.005,0.516,0.005c4.142,0,7.5-3.358,7.5-7.5v-16.032c0-26.236-21.345-47.581-47.581-47.581h-16.032
			c-26.236,0-47.581,21.345-47.581,47.581v16.032c0,4.142,3.358,7.5,7.5,7.5c0.062,0,0.242-0.002,0.516-0.013v8.545
			c0,14.141,6.208,26.853,16.033,35.576v10.629c0,3.253-1.807,6.177-4.717,7.631c-3.705,1.852-5.207,6.357-3.354,10.062
			c1.314,2.628,3.963,4.148,6.714,4.148c1.127,0,2.271-0.255,3.348-0.793c1.329-0.665,2.566-1.45,3.719-2.322l18.338,18.338v101.103
			c0,4.142,3.358,7.5,7.5,7.5c4.142,0,7.5-3.358,7.5-7.5V311.21l18.337-18.338c1.154,0.873,2.39,1.658,3.719,2.322l40.615,20.308
			l-12.319,12.319c-5.958,5.959-9.24,13.881-9.24,22.308v62.184c0,4.142,3.358,7.5,7.5,7.5c4.142,0,7.5-3.358,7.5-7.5v-62.184
			c0-4.42,1.721-8.576,4.847-11.702l11.669-11.669c0.354,1.357,0.548,2.772,0.548,4.224v81.331c0,4.142,3.358,7.5,7.5,7.5
			c4.142,0,7.5-3.358,7.5-7.5v-81.331C512,318.956,505.318,308.144,494.561,302.765z M375.725,202.868v-6.99h0.001
			c0-17.965,14.616-32.581,32.581-32.581h16.032c17.965,0,32.581,14.616,32.581,32.581v8.331
			c-32.603-1.759-52.278-14.446-52.469-14.571c-1.269-0.846-2.717-1.26-4.158-1.26c-1.936,0-3.856,0.748-5.306,2.197
			C387.811,197.751,380.78,201.205,375.725,202.868z M416.323,297.497l-17.331-17.331c0.506-1.934,0.783-3.95,0.783-6.019v-1.597
			c5.156,1.919,10.731,2.973,16.548,2.973c5.817,0,11.392-1.054,16.548-2.973v1.597c0,2.069,0.276,4.085,0.783,6.019
			L416.323,297.497z M416.323,260.524c-17.965,0-32.581-14.615-32.581-32.581v-12.091h0c5.253-2.099,11.373-5.436,17.601-10.742
			c7.876,4.098,24.354,11.181,47.561,13.521v9.312C448.904,245.908,434.288,260.524,416.323,260.524z"/>
	</g>
</g>
<g>
</g>
<g>
</g>
<g>
</g>
<g>
</g>
<g>
</g>
<g>
</g>
<g>
</g>
<g>
</g>
<g>
</g>
<g>
</g>
<g>
</g>
<g>
</g>
<g>
</g>
<g>
</g>
<g>
</g>
</svg>
