<?xml version="1.0" encoding="iso-8859-1"?>
<!-- Generator: Adobe Illustrator 19.0.0, SVG Export Plug-In . SVG Version: 6.00 Build 0)  -->
<svg fill="#ffffff" version="1.1" id="Capa_1" xmlns="http://www.w3.org/2000/svg" xmlns:xlink="http://www.w3.org/1999/xlink" x="0px" y="0px"
	 viewBox="0 0 487.992 487.992" style="enable-background:new 0 0 487.992 487.992;" xml:space="preserve">
<g>
	<g>
		<path d="M207.677,17.656l8.64,13.472c31.601-19.796,71.735-19.796,103.336,0l8.64-13.472
			C291.534-5.885,244.436-5.885,207.677,17.656z"/>
	</g>
</g>
<g>
	<g>
		<path d="M171.997,111.992h-16c-0.023,14.801,2.909,29.458,8.624,43.112l14.768-6.176
			C174.489,137.232,171.976,124.674,171.997,111.992z"/>
	</g>
</g>
<g>
	<g>
		<path d="M304.893,200.608c-11.683,4.898-24.228,7.408-36.896,7.384v16c14.793,0.028,29.443-2.901,43.088-8.616L304.893,200.608z"
			/>
	</g>
</g>
<g>
	<g>
		<path d="M363.997,111.992c0.022,12.673-2.489,25.223-7.384,36.912l14.768,6.176c5.714-13.645,8.643-28.295,8.616-43.088H363.997z"
			/>
	</g>
</g>
<g>
	<g>
		<path d="M267.997,31.992c-44.183,0-80,35.817-80,80s35.817,80,80,80c44.163-0.049,79.952-35.837,80-80
			C347.997,67.81,312.18,31.992,267.997,31.992z M267.997,175.992c-35.346,0-64-28.654-64-64c0-35.346,28.654-64,64-64
			c35.346,0,64,28.654,64,64C331.957,147.322,303.327,175.953,267.997,175.992z"/>
	</g>
</g>
<g>
	<g>
		<path d="M285.597,109.44l-9.6-3.2V85.712c4.456,1.555,7.587,5.578,8,10.28h16c-0.715-13.501-10.676-24.711-24-27.008v-4.992h-16
			v4.992c-13.324,2.297-23.285,13.507-24,27.008c0.314,8.636,6.112,16.106,14.4,18.552l9.6,3.2v20.512
			c-4.451-1.553-7.581-5.568-8-10.264h-16c0.715,13.501,10.676,24.711,24,27.008v4.992h16V155c13.324-2.297,23.285-13.507,24-27.008
			C299.683,119.356,293.885,111.887,285.597,109.44z M259.997,100.912l-4.56-1.536c-2.024-0.68-3.44-2.072-3.44-3.384
			c0.413-4.702,3.544-8.725,8-10.28V100.912z M275.997,138.272v-15.2l4.56,1.536c2.024,0.68,3.44,2.072,3.44,3.384
			C283.584,132.694,280.453,136.717,275.997,138.272z"/>
	</g>
</g>
<g>
	<g>
		<path d="M481.653,330.336l-26.344-26.344l26.344-26.344c3.123-3.124,3.123-8.188,0-11.312l-104-104
			c-3.124-3.123-8.188-3.123-11.312,0L263.997,264.68L153.653,154.336c-3.124-3.123-8.188-3.123-11.312,0l-104,104
			c-3.123,3.124-3.123,8.188,0,11.312l58.344,58.344H3.997v16h104c1.084,0.003,2.157-0.218,3.152-0.648l54.488-23.352h118.36v32h-88
			c-4.418,0-8,3.581-8,8c0,3.121,1.815,5.957,4.648,7.264l104,48c2.617,1.19,5.671,0.885,8-0.8l138.552-99.984l21.064,21.064
			L305.037,471.992h-43.608l-150.664-55.504c-0.886-0.327-1.823-0.495-2.768-0.496h-104v16h102.568l150.664,55.504
			c0.886,0.328,1.823,0.495,2.768,0.496h48c1.909,0.002,3.754-0.682,5.2-1.928l168-144c3.355-2.875,3.745-7.925,0.87-11.28
			C481.935,330.63,481.797,330.48,481.653,330.336z M163.997,303.992c-1.084-0.003-2.157,0.217-3.152,0.648l-1.944,0.8
			c7.899-20.498,30.92-30.712,51.418-22.813c9.978,3.845,17.987,11.546,22.222,21.365H163.997z M249.637,303.992
			c-7.004-23.772-28.858-40.068-53.64-40c-28.31,0.17-52.1,21.314-55.592,49.408l-24.984,10.704l-60.112-60.112l92.688-92.688
			l132.688,132.688H249.637z M299.109,398.768l-66.688-30.776h59.576c4.418,0,8-3.582,8-8v-36.688l43.44,43.44L299.109,398.768z
			 M300.749,301.432c3.03-17.077,17.904-29.501,35.248-29.44c19.838-0.036,35.949,16.016,35.986,35.854
			c0.032,17.358-12.354,32.255-29.426,35.394L300.749,301.432z M355.541,356.208c3.21-1.302,6.278-2.926,9.165-4.839l-8.133,5.871
			L355.541,356.208z M438.805,297.872l-70.496,50.92c22.459-17.898,26.157-50.615,8.258-73.074
			c-17.898-22.459-50.615-26.157-73.074-8.258c-6.951,5.539-12.366,12.768-15.729,20.996l-12.456-12.464l96.688-96.688
			l92.688,92.688L438.805,297.872z"/>
	</g>
</g>
<g>
</g>
<g>
</g>
<g>
</g>
<g>
</g>
<g>
</g>
<g>
</g>
<g>
</g>
<g>
</g>
<g>
</g>
<g>
</g>
<g>
</g>
<g>
</g>
<g>
</g>
<g>
</g>
<g>
</g>
</svg>
