<?xml version="1.0" encoding="UTF-8" standalone="yes"?>
<svg xmlns="http://www.w3.org/2000/svg" xmlns:xlink="http://www.w3.org/1999/xlink" viewBox="0 0 64 64" version="1.1" width="64" height="64" fill="#ffffff">
  <g id="surface1">
    <path style=" " d="M 19 2 C 17.351563 2 16 3.351563 16 5 L 16 8 L 11 8 C 9.351563 8 8 9.351563 8 11 L 8 24.132813 L 7 24.796875 L 4.554688 23.171875 C 4.21875 22.945313 3.78125 22.945313 3.445313 23.171875 L 2.445313 23.835938 C 2.167969 24.019531 2 24.332031 2 24.667969 L 2 59 C 2 60.652344 3.347656 62 5 62 L 53 62 C 54.652344 62 56 60.652344 56 59 L 56 56 L 59 56 C 60.648438 56 62 54.648438 62 53 L 62 11 C 62 9.351563 60.648438 8 59 8 L 54 8 L 54 5 C 54 3.351563 52.648438 2 51 2 C 49.351563 2 48 3.351563 48 5 L 48 8 L 38 8 L 38 5 C 38 3.351563 36.648438 2 35 2 C 33.351563 2 32 3.351563 32 5 L 32 8 L 22 8 L 22 5 C 22 3.351563 20.648438 2 19 2 Z M 19 4 C 19.550781 4 20 4.449219 20 5 L 20 13 C 20 13.550781 19.550781 14 19 14 C 18.449219 14 18 13.550781 18 13 L 18 5 C 18 4.449219 18.449219 4 19 4 Z M 35 4 C 35.550781 4 36 4.449219 36 5 L 36 13 C 36 13.550781 35.550781 14 35 14 C 34.449219 14 34 13.550781 34 13 L 34 5 C 34 4.449219 34.449219 4 35 4 Z M 51 4 C 51.550781 4 52 4.449219 52 5 L 52 13 C 52 13.550781 51.550781 14 51 14 C 50.449219 14 50 13.550781 50 13 L 50 5 C 50 4.449219 50.449219 4 51 4 Z M 11 10 L 16 10 L 16 13 C 16 14.648438 17.351563 16 19 16 C 20.648438 16 22 14.648438 22 13 L 22 10 L 32 10 L 32 13 C 32 14.648438 33.351563 16 35 16 C 36.648438 16 38 14.648438 38 13 L 38 10 L 48 10 L 48 13 C 48 14.648438 49.351563 16 51 16 C 52.648438 16 54 14.648438 54 13 L 54 10 L 59 10 C 59.550781 10 60 10.449219 60 11 L 60 18.132813 L 58.554688 17.167969 C 58.21875 16.945313 57.78125 16.945313 57.445313 17.167969 L 55 18.796875 L 52.554688 17.167969 C 52.21875 16.945313 51.78125 16.945313 51.445313 17.167969 L 49 18.796875 L 46.554688 17.167969 C 46.21875 16.945313 45.78125 16.945313 45.445313 17.167969 L 43 18.796875 L 40.554688 17.167969 C 40.21875 16.945313 39.78125 16.945313 39.445313 17.167969 L 37 18.796875 L 34.554688 17.167969 C 34.21875 16.945313 33.78125 16.945313 33.445313 17.167969 L 30.996094 18.800781 L 28.511719 17.164063 C 28.171875 16.941406 27.734375 16.945313 27.398438 17.171875 L 25 18.796875 L 22.558594 17.171875 C 22.21875 16.945313 21.785156 16.945313 21.449219 17.171875 L 19 18.796875 L 16.554688 17.167969 C 16.21875 16.945313 15.78125 16.945313 15.445313 17.167969 L 12.445313 19.167969 C 11.984375 19.472656 11.863281 20.09375 12.171875 20.554688 C 12.476563 21.015625 13.09375 21.136719 13.558594 20.832031 L 16 19.203125 L 18.445313 20.832031 C 18.78125 21.054688 19.21875 21.054688 19.554688 20.832031 L 22 19.203125 L 24.445313 20.832031 C 24.785156 21.058594 25.222656 21.054688 25.5625 20.828125 L 27.964844 19.203125 L 30.449219 20.835938 C 30.785156 21.058594 31.21875 21.054688 31.550781 20.832031 L 34 19.203125 L 36.445313 20.832031 C 36.78125 21.054688 37.21875 21.054688 37.554688 20.832031 L 40 19.203125 L 42.445313 20.832031 C 42.78125 21.054688 43.21875 21.054688 43.554688 20.832031 L 46 19.203125 L 48.445313 20.832031 C 48.78125 21.054688 49.21875 21.054688 49.554688 20.832031 L 52 19.203125 L 54.445313 20.832031 C 54.78125 21.054688 55.21875 21.054688 55.554688 20.832031 L 58 19.203125 L 60 20.535156 L 60 53 C 60 53.550781 59.550781 54 59 54 L 56 54 L 56 26 C 56 25.664063 55.832031 25.355469 55.554688 25.167969 L 52.554688 23.167969 C 52.21875 22.945313 51.78125 22.945313 51.445313 23.167969 L 49 24.796875 L 46.554688 23.167969 C 46.21875 22.945313 45.78125 22.945313 45.445313 23.167969 L 43 24.796875 L 40.554688 23.167969 C 40.21875 22.945313 39.78125 22.945313 39.445313 23.167969 L 37 24.796875 L 34.554688 23.167969 C 34.21875 22.945313 33.78125 22.945313 33.445313 23.167969 L 31 24.796875 L 28.554688 23.167969 C 28.21875 22.945313 27.78125 22.945313 27.445313 23.167969 L 24.996094 24.800781 L 22.511719 23.164063 C 22.171875 22.941406 21.734375 22.945313 21.398438 23.171875 L 19 24.796875 L 16.558594 23.171875 C 16.21875 22.945313 15.785156 22.945313 15.449219 23.171875 L 13 24.796875 L 10.554688 23.167969 C 10.386719 23.054688 10.191406 23 10 23 L 10 11 C 10 10.449219 10.449219 10 11 10 Z M 4 25.203125 L 6.445313 26.832031 C 6.78125 27.054688 7.21875 27.054688 7.554688 26.832031 L 10 25.203125 L 12.445313 26.832031 C 12.78125 27.054688 13.21875 27.054688 13.554688 26.832031 L 16 25.203125 L 18.445313 26.832031 C 18.785156 27.054688 19.222656 27.054688 19.5625 26.828125 L 21.964844 25.203125 L 24.449219 26.835938 C 24.785156 27.058594 25.21875 27.054688 25.550781 26.832031 L 28 25.203125 L 30.445313 26.832031 C 30.78125 27.054688 31.21875 27.054688 31.554688 26.832031 L 34 25.203125 L 36.445313 26.832031 C 36.78125 27.054688 37.21875 27.054688 37.554688 26.832031 L 40 25.203125 L 42.445313 26.832031 C 42.78125 27.054688 43.21875 27.054688 43.554688 26.832031 L 46 25.203125 L 48.445313 26.832031 C 48.78125 27.054688 49.21875 27.054688 49.554688 26.832031 L 52 25.203125 L 54 26.535156 L 54 54 C 53.445313 54 53 54.449219 53 55 L 53 57 C 53 57.550781 53.445313 58 54 58 L 54 59 C 54 59.550781 53.550781 60 53 60 L 5 60 C 4.449219 60 4 59.550781 4 59 L 4 58 C 4.554688 58 5 57.550781 5 57 L 5 55 C 5 54.449219 4.554688 54 4 54 Z M 28 32 C 26.347656 32 25 33.347656 25 35 L 25 38 C 25 38.535156 25.152344 39.035156 25.402344 39.46875 C 24.5625 40.003906 24 40.933594 24 42 L 24 47 C 24 48.652344 25.347656 50 27 50 L 31 50 C 32.652344 50 34 48.652344 34 47 L 34 42 C 34 40.933594 33.4375 40.003906 32.597656 39.46875 C 32.847656 39.035156 33 38.535156 33 38 L 33 35 C 33 33.347656 31.652344 32 30 32 Z M 28 34 L 30 34 C 30.550781 34 31 34.449219 31 35 L 31 38 C 31 38.550781 30.550781 39 30 39 L 28 39 C 27.449219 39 27 38.550781 27 38 L 27 35 C 27 34.449219 27.449219 34 28 34 Z M 27 41 L 31 41 C 31.550781 41 32 41.449219 32 42 L 32 47 C 32 47.550781 31.550781 48 31 48 L 27 48 C 26.449219 48 26 47.550781 26 47 L 26 42 C 26 41.449219 26.449219 41 27 41 Z M 9 54 C 8.445313 54 8 54.449219 8 55 L 8 57 C 8 57.550781 8.445313 58 9 58 C 9.554688 58 10 57.550781 10 57 L 10 55 C 10 54.449219 9.554688 54 9 54 Z M 14 54 C 13.445313 54 13 54.449219 13 55 L 13 57 C 13 57.550781 13.445313 58 14 58 C 14.554688 58 15 57.550781 15 57 L 15 55 C 15 54.449219 14.554688 54 14 54 Z M 19 54 C 18.445313 54 18 54.449219 18 55 L 18 57 C 18 57.550781 18.445313 58 19 58 C 19.554688 58 20 57.550781 20 57 L 20 55 C 20 54.449219 19.554688 54 19 54 Z M 24 54 C 23.445313 54 23 54.449219 23 55 L 23 57 C 23 57.550781 23.445313 58 24 58 C 24.554688 58 25 57.550781 25 57 L 25 55 C 25 54.449219 24.554688 54 24 54 Z M 29 54 C 28.445313 54 28 54.449219 28 55 L 28 57 C 28 57.550781 28.445313 58 29 58 C 29.554688 58 30 57.550781 30 57 L 30 55 C 30 54.449219 29.554688 54 29 54 Z M 34 54 C 33.445313 54 33 54.449219 33 55 L 33 57 C 33 57.550781 33.445313 58 34 58 C 34.554688 58 35 57.550781 35 57 L 35 55 C 35 54.449219 34.554688 54 34 54 Z M 39 54 C 38.445313 54 38 54.449219 38 55 L 38 57 C 38 57.550781 38.445313 58 39 58 C 39.554688 58 40 57.550781 40 57 L 40 55 C 40 54.449219 39.554688 54 39 54 Z M 44 54 C 43.445313 54 43 54.449219 43 55 L 43 57 C 43 57.550781 43.445313 58 44 58 C 44.554688 58 45 57.550781 45 57 L 45 55 C 45 54.449219 44.554688 54 44 54 Z M 49 54 C 48.445313 54 48 54.449219 48 55 L 48 57 C 48 57.550781 48.445313 58 49 58 C 49.554688 58 50 57.550781 50 57 L 50 55 C 50 54.449219 49.554688 54 49 54 Z "/>
  </g>
</svg>
