<svg width="28" height="38" viewBox="0 0 28 38" fill="none" xmlns="http://www.w3.org/2000/svg">
<path d="M27.4 14.2C27.4 23.8 14.2 37 14.2 37C14.2 37 1 25 1 14.2C1 10.6991 2.39071 7.34167 4.86619 4.86619C7.34167 2.39071 10.6991 1 14.2 1C17.7009 1 21.0583 2.39071 23.5338 4.86619C26.0093 7.34167 27.4 10.6991 27.4 14.2V14.2ZM14.2 9.4C13.2506 9.4 12.3226 9.68152 11.5333 10.2089C10.7439 10.7364 10.1287 11.486 9.76538 12.3631C9.40208 13.2402 9.30702 14.2053 9.49223 15.1364C9.67744 16.0675 10.1346 16.9228 10.8059 17.5941C11.4772 18.2654 12.3325 18.7226 13.2636 18.9078C14.1947 19.093 15.1598 18.9979 16.0369 18.6346C16.914 18.2713 17.6636 17.6561 18.1911 16.8667C18.7185 16.0774 19 15.1494 19 14.2C19 12.927 18.4943 11.7061 17.5941 10.8059C16.6939 9.90571 15.473 9.4 14.2 9.4Z" stroke="white" stroke-width="0.72" stroke-linecap="round" stroke-linejoin="round"/>
</svg>
