<?xml version="1.0" encoding="iso-8859-1"?>
<!-- Generator: Adobe Illustrator 19.0.0, SVG Export Plug-In . SVG Version: 6.00 Build 0)  -->
<svg fill="#ffffff" version="1.1" id="Capa_1" xmlns="http://www.w3.org/2000/svg" xmlns:xlink="http://www.w3.org/1999/xlink" x="0px" y="0px"
	 viewBox="0 0 57 57" style="enable-background:new 0 0 57 57;" xml:space="preserve">
<g>
	<path d="M55.332,6.643c-1.02-0.438-2.156-0.235-2.952,0.523L41,17.669V8.944C41,6.218,38.782,4,36.056,4H4.944
		C2.218,4,0,6.218,0,8.944v23.265C0,34.851,2.149,37,4.791,37h14.775l-6.762,14.579c-0.232,0.501-0.015,1.096,0.486,1.328
		C13.426,52.971,13.569,53,13.71,53c0.377,0,0.738-0.215,0.908-0.579l6.514-14.044l6.514,14.044C27.815,52.785,28.176,53,28.553,53
		c0.141,0,0.284-0.029,0.42-0.093c0.501-0.232,0.719-0.827,0.486-1.328L22.698,37h13.129C38.679,37,41,34.679,41,31.826v-8.002
		l11.32,10.819c0.531,0.529,1.213,0.808,1.917,0.808c0.353,0,0.71-0.069,1.057-0.212C56.331,34.812,57,33.809,57,32.683v-23.5
		C57,8.058,56.361,7.084,55.332,6.643z M39,31.826C39,33.576,37.577,35,35.827,35H21.169c-0.002,0-0.004,0-0.006,0h-0.061
		c-0.003,0-0.007,0-0.01,0H4.791C3.252,35,2,33.748,2,32.209V8.944C2,7.321,3.321,6,4.944,6h31.112C37.679,6,39,7.321,39,8.944
		V31.826z M55,32.683c0,0.477-0.357,0.661-0.467,0.706c-0.136,0.057-0.488,0.152-0.803-0.165L41.221,21.27
		c-0.146-0.147-0.224-0.344-0.221-0.553c0.003-0.209,0.087-0.402,0.228-0.536l12.52-11.556c0.169-0.161,0.346-0.208,0.495-0.208
		c0.13,0,0.239,0.037,0.301,0.063C54.65,8.526,55,8.713,55,9.183V32.683z"/>
	<path d="M18.137,19.723C18.683,18.772,19,17.673,19,16.5c0-3.584-2.916-6.5-6.5-6.5S6,12.916,6,16.5S8.916,23,12.5,23
		c1.687,0,3.221-0.651,4.377-1.709l1.416,1.416C18.488,22.902,18.744,23,19,23s0.512-0.098,0.707-0.293
		c0.391-0.391,0.391-1.023,0-1.414L18.137,19.723z M12.5,21C10.019,21,8,18.981,8,16.5s2.019-4.5,4.5-4.5s4.5,2.019,4.5,4.5
		c0,0.615-0.125,1.201-0.35,1.736l-1.943-1.943c-0.391-0.391-1.023-0.391-1.414,0s-0.391,1.023,0,1.414l2.161,2.161
		C14.661,20.564,13.635,21,12.5,21z"/>
</g>
<g>
</g>
<g>
</g>
<g>
</g>
<g>
</g>
<g>
</g>
<g>
</g>
<g>
</g>
<g>
</g>
<g>
</g>
<g>
</g>
<g>
</g>
<g>
</g>
<g>
</g>
<g>
</g>
<g>
</g>
</svg>
