<?xml version="1.0" encoding="utf-8"?>
<!-- Generator: Adobe Illustrator 24.2.0, SVG Export Plug-In . SVG Version: 6.00 Build 0)  -->
<svg version="1.1" id="Capa_1" xmlns="http://www.w3.org/2000/svg" xmlns:xlink="http://www.w3.org/1999/xlink" x="0px" y="0px"
	 viewBox="0 0 1794 898" style="enable-background:new 0 0 1794 898;" xml:space="preserve">
<style type="text/css">
	.st0{fill:none;stroke:#dde1e6;}
</style>
<rect x="385" y="449" class="st0" width="64" height="64"/>
<rect x="321" y="449" class="st0" width="64" height="64"/>
<rect x="897" y="449" class="st0" width="64" height="64"/>
<rect x="641" y="449" class="st0" width="64" height="64"/>
<rect x="1153" y="449" class="st0" width="64" height="64"/>
<rect x="513" y="449" class="st0" width="64" height="64"/>
<rect x="1025" y="449" class="st0" width="64" height="64"/>
<rect x="769" y="449" class="st0" width="64" height="64"/>
<rect x="1281" y="449" class="st0" width="64" height="64"/>
<rect x="449" y="449" class="st0" width="64" height="64"/>
<rect x="961" y="449" class="st0" width="64" height="64"/>
<rect x="705" y="449" class="st0" width="64" height="64"/>
<rect x="1217" y="449" class="st0" width="64" height="64"/>
<rect x="577" y="449" class="st0" width="64" height="64"/>
<rect x="1089" y="449" class="st0" width="64" height="64"/>
<rect x="833" y="449" class="st0" width="64" height="64"/>
<rect x="1345" y="449" class="st0" width="64" height="64"/>
<rect x="1409" y="449" class="st0" width="64" height="64"/>
<rect x="385" y="193" class="st0" width="64" height="64"/>
<rect x="321" y="193" class="st0" width="64" height="64"/>
<rect x="897" y="193" class="st0" width="64" height="64"/>
<rect x="641" y="193" class="st0" width="64" height="64"/>
<rect x="1153" y="193" class="st0" width="64" height="64"/>
<rect x="513" y="193" class="st0" width="64" height="64"/>
<rect x="1025" y="193" class="st0" width="64" height="64"/>
<rect x="769" y="193" class="st0" width="64" height="64"/>
<rect x="1281" y="193" class="st0" width="64" height="64"/>
<rect x="449" y="193" class="st0" width="64" height="64"/>
<rect x="961" y="193" class="st0" width="64" height="64"/>
<rect x="705" y="193" class="st0" width="64" height="64"/>
<rect x="1217" y="193" class="st0" width="64" height="64"/>
<rect x="577" y="193" class="st0" width="64" height="64"/>
<rect x="1089" y="193" class="st0" width="64" height="64"/>
<rect x="833" y="193" class="st0" width="64" height="64"/>
<rect x="1345" y="193" class="st0" width="64" height="64"/>
<rect x="1409" y="193" class="st0" width="64" height="64"/>
<rect x="385" y="321" class="st0" width="64" height="64"/>
<rect x="321" y="321" class="st0" width="64" height="64"/>
<rect x="897" y="321" class="st0" width="64" height="64"/>
<rect x="641" y="321" class="st0" width="64" height="64"/>
<rect x="1153" y="321" class="st0" width="64" height="64"/>
<rect x="513" y="321" class="st0" width="64" height="64"/>
<rect x="1025" y="321" class="st0" width="64" height="64"/>
<rect x="769" y="321" class="st0" width="64" height="64"/>
<rect x="1281" y="321" class="st0" width="64" height="64"/>
<rect x="449" y="321" class="st0" width="64" height="64"/>
<rect x="961" y="321" class="st0" width="64" height="64"/>
<rect x="705" y="321" class="st0" width="64" height="64"/>
<rect x="1217" y="321" class="st0" width="64" height="64"/>
<rect x="577" y="321" class="st0" width="64" height="64"/>
<rect x="1089" y="321" class="st0" width="64" height="64"/>
<rect x="833" y="321" class="st0" width="64" height="64"/>
<rect x="1345" y="321" class="st0" width="64" height="64"/>
<rect x="1409" y="321" class="st0" width="64" height="64"/>
<rect x="385" y="513" class="st0" width="64" height="64"/>
<rect x="321" y="513" class="st0" width="64" height="64"/>
<rect x="897" y="513" class="st0" width="64" height="64"/>
<rect x="641" y="513" class="st0" width="64" height="64"/>
<rect x="1153" y="513" class="st0" width="64" height="64"/>
<rect x="513" y="513" class="st0" width="64" height="64"/>
<rect x="1025" y="513" class="st0" width="64" height="64"/>
<rect x="769" y="513" class="st0" width="64" height="64"/>
<rect x="1281" y="513" class="st0" width="64" height="64"/>
<rect x="449" y="513" class="st0" width="64" height="64"/>
<rect x="961" y="513" class="st0" width="64" height="64"/>
<rect x="705" y="513" class="st0" width="64" height="64"/>
<rect x="1217" y="513" class="st0" width="64" height="64"/>
<rect x="577" y="513" class="st0" width="64" height="64"/>
<rect x="1089" y="513" class="st0" width="64" height="64"/>
<rect x="833" y="513" class="st0" width="64" height="64"/>
<rect x="1345" y="513" class="st0" width="64" height="64"/>
<rect x="1409" y="513" class="st0" width="64" height="64"/>
<rect x="385" y="65" class="st0" width="64" height="64"/>
<rect x="321" y="65" class="st0" width="64" height="64"/>
<rect x="897" y="65" class="st0" width="64" height="64"/>
<rect x="641" y="65" class="st0" width="64" height="64"/>
<rect x="1153" y="65" class="st0" width="64" height="64"/>
<rect x="513" y="65" class="st0" width="64" height="64"/>
<rect x="1025" y="65" class="st0" width="64" height="64"/>
<rect x="769" y="65" class="st0" width="64" height="64"/>
<rect x="1281" y="65" class="st0" width="64" height="64"/>
<rect x="449" y="65" class="st0" width="64" height="64"/>
<rect x="961" y="65" class="st0" width="64" height="64"/>
<rect x="705" y="65" class="st0" width="64" height="64"/>
<rect x="1217" y="65" class="st0" width="64" height="64"/>
<rect x="577" y="65" class="st0" width="64" height="64"/>
<rect x="1089" y="65" class="st0" width="64" height="64"/>
<rect x="833" y="65" class="st0" width="64" height="64"/>
<rect x="1345" y="65" class="st0" width="64" height="64"/>
<rect x="1409" y="65" class="st0" width="64" height="64"/>
<rect x="385" y="385" class="st0" width="64" height="64"/>
<rect x="321" y="385" class="st0" width="64" height="64"/>
<rect x="897" y="385" class="st0" width="64" height="64"/>
<rect x="641" y="385" class="st0" width="64" height="64"/>
<rect x="1153" y="385" class="st0" width="64" height="64"/>
<rect x="513" y="385" class="st0" width="64" height="64"/>
<rect x="1025" y="385" class="st0" width="64" height="64"/>
<rect x="769" y="385" class="st0" width="64" height="64"/>
<rect x="1281" y="385" class="st0" width="64" height="64"/>
<rect x="449" y="385" class="st0" width="64" height="64"/>
<rect x="961" y="385" class="st0" width="64" height="64"/>
<rect x="705" y="385" class="st0" width="64" height="64"/>
<rect x="1217" y="385" class="st0" width="64" height="64"/>
<rect x="577" y="385" class="st0" width="64" height="64"/>
<rect x="1089" y="385" class="st0" width="64" height="64"/>
<rect x="833" y="385" class="st0" width="64" height="64"/>
<rect x="1345" y="385" class="st0" width="64" height="64"/>
<rect x="1409" y="385" class="st0" width="64" height="64"/>
<rect x="385" y="129" class="st0" width="64" height="64"/>
<rect x="321" y="129" class="st0" width="64" height="64"/>
<rect x="897" y="129" class="st0" width="64" height="64"/>
<rect x="641" y="129" class="st0" width="64" height="64"/>
<rect x="1153" y="129" class="st0" width="64" height="64"/>
<rect x="513" y="129" class="st0" width="64" height="64"/>
<rect x="1025" y="129" class="st0" width="64" height="64"/>
<rect x="769" y="129" class="st0" width="64" height="64"/>
<rect x="1281" y="129" class="st0" width="64" height="64"/>
<rect x="449" y="129" class="st0" width="64" height="64"/>
<rect x="961" y="129" class="st0" width="64" height="64"/>
<rect x="705" y="129" class="st0" width="64" height="64"/>
<rect x="1217" y="129" class="st0" width="64" height="64"/>
<rect x="577" y="129" class="st0" width="64" height="64"/>
<rect x="1089" y="129" class="st0" width="64" height="64"/>
<rect x="833" y="129" class="st0" width="64" height="64"/>
<rect x="1345" y="129" class="st0" width="64" height="64"/>
<rect x="1409" y="129" class="st0" width="64" height="64"/>
<rect x="385" y="257" class="st0" width="64" height="64"/>
<rect x="321" y="257" class="st0" width="64" height="64"/>
<rect x="897" y="257" class="st0" width="64" height="64"/>
<rect x="641" y="257" class="st0" width="64" height="64"/>
<rect x="1153" y="257" class="st0" width="64" height="64"/>
<rect x="513" y="257" class="st0" width="64" height="64"/>
<rect x="1025" y="257" class="st0" width="64" height="64"/>
<rect x="769" y="257" class="st0" width="64" height="64"/>
<rect x="1281" y="257" class="st0" width="64" height="64"/>
<rect x="449" y="257" class="st0" width="64" height="64"/>
<rect x="961" y="257" class="st0" width="64" height="64"/>
<rect x="705" y="257" class="st0" width="64" height="64"/>
<rect x="1217" y="257" class="st0" width="64" height="64"/>
<rect x="577" y="257" class="st0" width="64" height="64"/>
<rect x="1089" y="257" class="st0" width="64" height="64"/>
<rect x="833" y="257" class="st0" width="64" height="64"/>
<rect x="1345" y="257" class="st0" width="64" height="64"/>
<rect x="1409" y="257" class="st0" width="64" height="64"/>
<rect x="385" y="1" class="st0" width="64" height="64"/>
<rect x="321" y="1" class="st0" width="64" height="64"/>
<rect x="897" y="1" class="st0" width="64" height="64"/>
<rect x="641" y="1" class="st0" width="64" height="64"/>
<rect x="1153" y="1" class="st0" width="64" height="64"/>
<rect x="513" y="1" class="st0" width="64" height="64"/>
<rect x="1025" y="1" class="st0" width="64" height="64"/>
<rect x="769" y="1" class="st0" width="64" height="64"/>
<rect x="1281" y="1" class="st0" width="64" height="64"/>
<rect x="449" y="1" class="st0" width="64" height="64"/>
<rect x="961" y="1" class="st0" width="64" height="64"/>
<rect x="705" y="1" class="st0" width="64" height="64"/>
<rect x="1217" y="1" class="st0" width="64" height="64"/>
<rect x="577" y="1" class="st0" width="64" height="64"/>
<rect x="1089" y="1" class="st0" width="64" height="64"/>
<rect x="833" y="1" class="st0" width="64" height="64"/>
<rect x="1345" y="1" class="st0" width="64" height="64"/>
<rect x="1409" y="1" class="st0" width="64" height="64"/>
<rect x="65" y="1" class="st0" width="64" height="64"/>
<rect x="1" y="1" class="st0" width="64" height="64"/>
<rect x="193" y="1" class="st0" width="64" height="64"/>
<rect x="129" y="1" class="st0" width="64" height="64"/>
<rect x="257" y="1" class="st0" width="64" height="64"/>
<rect x="65" y="257" class="st0" width="64" height="64"/>
<rect x="1" y="257" class="st0" width="64" height="64"/>
<rect x="193" y="257" class="st0" width="64" height="64"/>
<rect x="129" y="257" class="st0" width="64" height="64"/>
<rect x="257" y="257" class="st0" width="64" height="64"/>
<rect x="65" y="129" class="st0" width="64" height="64"/>
<rect x="1" y="129" class="st0" width="64" height="64"/>
<rect x="193" y="129" class="st0" width="64" height="64"/>
<rect x="129" y="129" class="st0" width="64" height="64"/>
<rect x="257" y="129" class="st0" width="64" height="64"/>
<rect x="65" y="385" class="st0" width="64" height="64"/>
<rect x="1" y="385" class="st0" width="64" height="64"/>
<rect x="193" y="385" class="st0" width="64" height="64"/>
<rect x="129" y="385" class="st0" width="64" height="64"/>
<rect x="257" y="385" class="st0" width="64" height="64"/>
<rect x="65" y="513" class="st0" width="64" height="64"/>
<rect x="1" y="513" class="st0" width="64" height="64"/>
<rect x="193" y="513" class="st0" width="64" height="64"/>
<rect x="129" y="513" class="st0" width="64" height="64"/>
<rect x="257" y="513" class="st0" width="64" height="64"/>
<rect x="65" y="65" class="st0" width="64" height="64"/>
<rect x="1" y="65" class="st0" width="64" height="64"/>
<rect x="193" y="65" class="st0" width="64" height="64"/>
<rect x="129" y="65" class="st0" width="64" height="64"/>
<rect x="257" y="65" class="st0" width="64" height="64"/>
<rect x="65" y="321" class="st0" width="64" height="64"/>
<rect x="1" y="321" class="st0" width="64" height="64"/>
<rect x="193" y="321" class="st0" width="64" height="64"/>
<rect x="129" y="321" class="st0" width="64" height="64"/>
<rect x="257" y="321" class="st0" width="64" height="64"/>
<rect x="65" y="193" class="st0" width="64" height="64"/>
<rect x="1" y="193" class="st0" width="64" height="64"/>
<rect x="193" y="193" class="st0" width="64" height="64"/>
<rect x="129" y="193" class="st0" width="64" height="64"/>
<rect x="257" y="193" class="st0" width="64" height="64"/>
<rect x="65" y="449" class="st0" width="64" height="64"/>
<rect x="1" y="449" class="st0" width="64" height="64"/>
<rect x="193" y="449" class="st0" width="64" height="64"/>
<rect x="129" y="449" class="st0" width="64" height="64"/>
<rect x="257" y="449" class="st0" width="64" height="64"/>
<rect x="1537" y="1" class="st0" width="64" height="64"/>
<rect x="1473" y="1" class="st0" width="64" height="64"/>
<rect x="1665" y="1" class="st0" width="64" height="64"/>
<rect x="1601" y="1" class="st0" width="64" height="64"/>
<rect x="1729" y="1" class="st0" width="64" height="64"/>
<rect x="1537" y="257" class="st0" width="64" height="64"/>
<rect x="1473" y="257" class="st0" width="64" height="64"/>
<rect x="1665" y="257" class="st0" width="64" height="64"/>
<rect x="1601" y="257" class="st0" width="64" height="64"/>
<rect x="1729" y="257" class="st0" width="64" height="64"/>
<rect x="1537" y="129" class="st0" width="64" height="64"/>
<rect x="1473" y="129" class="st0" width="64" height="64"/>
<rect x="1665" y="129" class="st0" width="64" height="64"/>
<rect x="1601" y="129" class="st0" width="64" height="64"/>
<rect x="1729" y="129" class="st0" width="64" height="64"/>
<rect x="1537" y="385" class="st0" width="64" height="64"/>
<rect x="1473" y="385" class="st0" width="64" height="64"/>
<rect x="1665" y="385" class="st0" width="64" height="64"/>
<rect x="1601" y="385" class="st0" width="64" height="64"/>
<rect x="1729" y="385" class="st0" width="64" height="64"/>
<rect x="1537" y="513" class="st0" width="64" height="64"/>
<rect x="1473" y="513" class="st0" width="64" height="64"/>
<rect x="1665" y="513" class="st0" width="64" height="64"/>
<rect x="1601" y="513" class="st0" width="64" height="64"/>
<rect x="1729" y="513" class="st0" width="64" height="64"/>
<rect x="1537" y="65" class="st0" width="64" height="64"/>
<rect x="1473" y="65" class="st0" width="64" height="64"/>
<rect x="1665" y="65" class="st0" width="64" height="64"/>
<rect x="1601" y="65" class="st0" width="64" height="64"/>
<rect x="1729" y="65" class="st0" width="64" height="64"/>
<rect x="1537" y="321" class="st0" width="64" height="64"/>
<rect x="1473" y="321" class="st0" width="64" height="64"/>
<rect x="1665" y="321" class="st0" width="64" height="64"/>
<rect x="1601" y="321" class="st0" width="64" height="64"/>
<rect x="1729" y="321" class="st0" width="64" height="64"/>
<rect x="1537" y="193" class="st0" width="64" height="64"/>
<rect x="1473" y="193" class="st0" width="64" height="64"/>
<rect x="1665" y="193" class="st0" width="64" height="64"/>
<rect x="1601" y="193" class="st0" width="64" height="64"/>
<rect x="1729" y="193" class="st0" width="64" height="64"/>
<rect x="1537" y="449" class="st0" width="64" height="64"/>
<rect x="1473" y="449" class="st0" width="64" height="64"/>
<rect x="1665" y="449" class="st0" width="64" height="64"/>
<rect x="1601" y="449" class="st0" width="64" height="64"/>
<rect x="1729" y="449" class="st0" width="64" height="64"/>
<g>
	<rect x="641" y="641.8" class="st0" width="64" height="64"/>
	<rect x="513" y="641.8" class="st0" width="64" height="64"/>
	<rect x="449" y="641.8" class="st0" width="64" height="64"/>
	<rect x="705" y="641.8" class="st0" width="64" height="64"/>
	<rect x="577" y="641.8" class="st0" width="64" height="64"/>
	<rect x="385" y="705.8" class="st0" width="64" height="64"/>
	<rect x="449" y="769.8" class="st0" width="64" height="64"/>
	<rect x="513" y="833.8" class="st0" width="64" height="64"/>
	<rect x="769" y="769.8" class="st0" width="64" height="64"/>
	<rect x="321" y="705.8" class="st0" width="64" height="64"/>
	<rect x="641" y="705.8" class="st0" width="64" height="64"/>
	<rect x="513" y="705.8" class="st0" width="64" height="64"/>
	<rect x="385" y="577.8" class="st0" width="64" height="64"/>
	<rect x="321" y="577.8" class="st0" width="64" height="64"/>
	<rect x="641" y="577.8" class="st0" width="64" height="64"/>
	<rect x="513" y="577.8" class="st0" width="64" height="64"/>
	<rect x="769" y="577.8" class="st0" width="64" height="64"/>
	<rect x="449" y="577.8" class="st0" width="64" height="64"/>
	<rect x="705" y="577.8" class="st0" width="64" height="64"/>
	<rect x="577" y="577.8" class="st0" width="64" height="64"/>
	<rect x="833" y="577.8" class="st0" width="64" height="64"/>
	<rect x="65" y="577.8" class="st0" width="64" height="64"/>
	<rect x="1" y="577.8" class="st0" width="64" height="64"/>
	<rect x="193" y="577.8" class="st0" width="64" height="64"/>
	<rect x="129" y="577.8" class="st0" width="64" height="64"/>
	<rect x="257" y="577.8" class="st0" width="64" height="64"/>
	<rect x="65" y="705.8" class="st0" width="64" height="64"/>
	<rect x="1" y="705.8" class="st0" width="64" height="64"/>
	<rect x="193" y="705.8" class="st0" width="64" height="64"/>
	<rect x="129" y="705.8" class="st0" width="64" height="64"/>
	<rect x="257" y="705.8" class="st0" width="64" height="64"/>
	<rect x="65" y="641.8" class="st0" width="64" height="64"/>
	<rect x="1" y="641.8" class="st0" width="64" height="64"/>
	<rect x="193" y="641.8" class="st0" width="64" height="64"/>
	<rect x="129" y="641.8" class="st0" width="64" height="64"/>
	<rect x="257" y="641.8" class="st0" width="64" height="64"/>
</g>
<g>
	<rect x="897" y="641.8" class="st0" width="64" height="64"/>
	<rect x="1153" y="641.8" class="st0" width="64" height="64"/>
	<rect x="1281" y="641.8" class="st0" width="64" height="64"/>
	<rect x="961" y="641.8" class="st0" width="64" height="64"/>
	<rect x="1089" y="641.8" class="st0" width="64" height="64"/>
	<rect x="1409" y="641.8" class="st0" width="64" height="64"/>
	<rect x="897" y="705.8" class="st0" width="64" height="64"/>
	<rect x="1153" y="705.8" class="st0" width="64" height="64"/>
	<rect x="1345" y="705.8" class="st0" width="64" height="64"/>
	<rect x="1409" y="705.8" class="st0" width="64" height="64"/>
	<rect x="897" y="577.8" class="st0" width="64" height="64"/>
	<rect x="1153" y="577.8" class="st0" width="64" height="64"/>
	<rect x="1025" y="577.8" class="st0" width="64" height="64"/>
	<rect x="1281" y="577.8" class="st0" width="64" height="64"/>
	<rect x="961" y="577.8" class="st0" width="64" height="64"/>
	<rect x="1217" y="577.8" class="st0" width="64" height="64"/>
	<rect x="1089" y="577.8" class="st0" width="64" height="64"/>
	<rect x="1345" y="577.8" class="st0" width="64" height="64"/>
	<rect x="1409" y="577.8" class="st0" width="64" height="64"/>
	<rect x="1537" y="577.8" class="st0" width="64" height="64"/>
	<rect x="1473" y="577.8" class="st0" width="64" height="64"/>
	<rect x="1665" y="577.8" class="st0" width="64" height="64"/>
	<rect x="1601" y="577.8" class="st0" width="64" height="64"/>
	<rect x="1729" y="577.8" class="st0" width="64" height="64"/>
	<rect x="1537" y="705.8" class="st0" width="64" height="64"/>
	<rect x="1473" y="705.8" class="st0" width="64" height="64"/>
	<rect x="1665" y="705.8" class="st0" width="64" height="64"/>
	<rect x="1601" y="705.8" class="st0" width="64" height="64"/>
	<rect x="1729" y="705.8" class="st0" width="64" height="64"/>
	<rect x="1537" y="641.8" class="st0" width="64" height="64"/>
	<rect x="1473" y="641.8" class="st0" width="64" height="64"/>
	<rect x="1665" y="641.8" class="st0" width="64" height="64"/>
	<rect x="1601" y="641.8" class="st0" width="64" height="64"/>
	<rect x="1729" y="641.8" class="st0" width="64" height="64"/>
</g>
</svg>
