<svg width="578" height="386" viewBox="0 0 578 386" fill="none" xmlns="http://www.w3.org/2000/svg">
<rect width="64" height="64" transform="matrix(1 0 0 -1 65 65)" stroke="#343A3F"/>
<rect width="64" height="64" transform="matrix(1 0 0 -1 1 65)" stroke="#343A3F"/>
<rect width="64" height="64" transform="matrix(1 0 0 -1 193 65)" stroke="#343A3F"/>
<rect width="64" height="64" transform="matrix(1 0 0 -1 449 65)" stroke="#343A3F"/>
<rect width="64" height="64" transform="matrix(1 0 0 -1 65 193)" stroke="#343A3F"/>
<rect width="64" height="64" transform="matrix(1 0 0 -1 1 193)" stroke="#343A3F"/>
<rect width="64" height="64" transform="matrix(1 0 0 -1 321 193)" stroke="#343A3F"/>
<rect width="64" height="64" transform="matrix(1 0 0 -1 193 193)" stroke="#343A3F"/>
<rect width="64" height="64" transform="matrix(1 0 0 -1 129 193)" stroke="#343A3F"/>
<rect width="64" height="64" transform="matrix(1 0 0 -1 385 193)" stroke="#343A3F"/>
<rect width="64" height="64" transform="matrix(1 0 0 -1 257 193)" stroke="#343A3F"/>
<rect width="64" height="64" transform="matrix(1 0 0 -1 513 193)" stroke="#343A3F"/>
<rect width="64" height="64" transform="matrix(1 0 0 -1 65 321)" stroke="#343A3F"/>
<rect width="64" height="64" transform="matrix(1 0 0 -1 1 321)" stroke="#343A3F"/>
<rect width="64" height="64" transform="matrix(1 0 0 -1 321 321)" stroke="#343A3F"/>
<rect width="64" height="64" transform="matrix(1 0 0 -1 193 321)" stroke="#343A3F"/>
<rect width="64" height="64" transform="matrix(1 0 0 -1 449 321)" stroke="#343A3F"/>
<rect width="64" height="64" transform="matrix(1 0 0 -1 129 321)" stroke="#343A3F"/>
<rect width="64" height="64" transform="matrix(1 0 0 -1 385 321)" stroke="#343A3F"/>
<rect width="64" height="64" transform="matrix(1 0 0 -1 257 321)" stroke="#343A3F"/>
<rect width="64" height="64" transform="matrix(1 0 0 -1 65 129)" stroke="#343A3F"/>
<rect width="64" height="64" transform="matrix(1 0 0 -1 1 129)" stroke="#343A3F"/>
<rect width="64" height="64" transform="matrix(1 0 0 -1 321 129)" stroke="#343A3F"/>
<rect width="64" height="64" transform="matrix(1 0 0 -1 193 129)" stroke="#343A3F"/>
<rect width="64" height="64" transform="matrix(1 0 0 -1 129 129)" stroke="#343A3F"/>
<rect width="64" height="64" transform="matrix(1 0 0 -1 65 257)" stroke="#343A3F"/>
<rect width="64" height="64" transform="matrix(1 0 0 -1 1 257)" stroke="#343A3F"/>
<rect width="64" height="64" transform="matrix(1 0 0 -1 321 257)" stroke="#343A3F"/>
<rect width="64" height="64" transform="matrix(1 0 0 -1 193 257)" stroke="#343A3F"/>
<rect width="64" height="64" transform="matrix(1 0 0 -1 129 257)" stroke="#343A3F"/>
<rect width="64" height="64" transform="matrix(1 0 0 -1 257 257)" stroke="#343A3F"/>
<rect width="64" height="64" transform="matrix(1 0 0 -1 65 385)" stroke="#343A3F"/>
<rect width="64" height="64" transform="matrix(1 0 0 -1 1 385)" stroke="#343A3F"/>
<rect width="64" height="64" transform="matrix(1 0 0 -1 321 385)" stroke="#343A3F"/>
<rect width="64" height="64" transform="matrix(1 0 0 -1 193 385)" stroke="#343A3F"/>
<rect width="64" height="64" transform="matrix(1 0 0 -1 449 385)" stroke="#343A3F"/>
<rect width="64" height="64" transform="matrix(1 0 0 -1 129 385)" stroke="#343A3F"/>
<rect width="64" height="64" transform="matrix(1 0 0 -1 385 385)" stroke="#343A3F"/>
<rect width="64" height="64" transform="matrix(1 0 0 -1 257 385)" stroke="#343A3F"/>
<rect width="64" height="64" transform="matrix(1 0 0 -1 513 385)" stroke="#343A3F"/>
</svg>
