<svg width="576" height="384" viewBox="0 0 576 384" fill="none" xmlns="http://www.w3.org/2000/svg">
<rect width="64" height="63.8961" transform="matrix(1 1.74562e-07 1.7513e-07 -1 65.0001 64.8962)" stroke="white" stroke-width="2"/>
<rect width="64" height="63.8961" transform="matrix(1 1.74562e-07 1.7513e-07 -1 1.00006 64.8965)" stroke="white" stroke-width="2"/>
<rect width="64" height="63.8961" transform="matrix(1 1.74562e-07 1.7513e-07 -1 193 64.8965)" stroke="white" stroke-width="2"/>
<rect width="64" height="63.8961" transform="matrix(1 1.74562e-07 1.7513e-07 -1 65.0001 192.688)" stroke="white" stroke-width="2"/>
<rect width="64" height="63.8961" transform="matrix(1 1.74562e-07 1.7513e-07 -1 1.00006 192.688)" stroke="white" stroke-width="2"/>
<rect width="64" height="63.8961" transform="matrix(1 1.74562e-07 1.7513e-07 -1 321 192.688)" stroke="white" stroke-width="2"/>
<rect width="64" height="63.8961" transform="matrix(1 1.74562e-07 1.7513e-07 -1 193 192.688)" stroke="white" stroke-width="2"/>
<rect width="64" height="63.8961" transform="matrix(1 1.74562e-07 1.7513e-07 -1 129 192.688)" stroke="white" stroke-width="2"/>
<rect width="64" height="63.8961" transform="matrix(1 1.74562e-07 1.7513e-07 -1 385 192.688)" stroke="white" stroke-width="2"/>
<rect width="64" height="63.8961" transform="matrix(1 1.74562e-07 1.7513e-07 -1 257 192.688)" stroke="white" stroke-width="2"/>
<rect width="64" height="63.8961" transform="matrix(1 1.74562e-07 1.7513e-07 -1 513 192.688)" stroke="white" stroke-width="2"/>
<rect width="64" height="63.8961" transform="matrix(1 1.74562e-07 1.7513e-07 -1 65 320.481)" stroke="white" stroke-width="2"/>
<rect width="64" height="63.8961" transform="matrix(1 1.74562e-07 1.7513e-07 -1 1 320.481)" stroke="white" stroke-width="2"/>
<rect width="64" height="63.8961" transform="matrix(1 1.74562e-07 1.7513e-07 -1 321 320.481)" stroke="white" stroke-width="2"/>
<rect width="64" height="63.8961" transform="matrix(1 1.74562e-07 1.7513e-07 -1 193 320.481)" stroke="white" stroke-width="2"/>
<rect width="64" height="63.8961" transform="matrix(1 1.74562e-07 1.7513e-07 -1 449 320.481)" stroke="white" stroke-width="2"/>
<rect width="64" height="63.8961" transform="matrix(1 1.74562e-07 1.7513e-07 -1 129 320.481)" stroke="white" stroke-width="2"/>
<rect width="64" height="63.8961" transform="matrix(1 1.74562e-07 1.7513e-07 -1 385 320.481)" stroke="white" stroke-width="2"/>
<rect width="64" height="63.8961" transform="matrix(1 1.74562e-07 1.7513e-07 -1 257 320.481)" stroke="white" stroke-width="2"/>
<rect width="64" height="63.8961" transform="matrix(1 1.74562e-07 1.7513e-07 -1 65.0001 128.792)" stroke="white" stroke-width="2"/>
<rect width="64" height="63.8961" transform="matrix(1 1.74562e-07 1.7513e-07 -1 1.00006 128.792)" stroke="white" stroke-width="2"/>
<rect width="64" height="63.8961" transform="matrix(1 1.74562e-07 1.7513e-07 -1 321 128.792)" stroke="white" stroke-width="2"/>
<rect width="64" height="63.8961" transform="matrix(1 1.74562e-07 1.7513e-07 -1 129 128.792)" stroke="white" stroke-width="2"/>
<rect width="64" height="63.8961" transform="matrix(1 1.74562e-07 1.7513e-07 -1 65 256.585)" stroke="white" stroke-width="2"/>
<rect width="64" height="63.8961" transform="matrix(1 1.74562e-07 1.7513e-07 -1 1 256.585)" stroke="white" stroke-width="2"/>
<rect width="64" height="63.8961" transform="matrix(1 1.74562e-07 1.7513e-07 -1 321 256.585)" stroke="white" stroke-width="2"/>
<rect width="64" height="63.8961" transform="matrix(1 1.74562e-07 1.7513e-07 -1 193 256.585)" stroke="white" stroke-width="2"/>
<rect width="64" height="63.8961" transform="matrix(1 1.74562e-07 1.7513e-07 -1 129 256.585)" stroke="white" stroke-width="2"/>
<rect width="64" height="63.8961" transform="matrix(1 1.74562e-07 1.7513e-07 -1 257 256.585)" stroke="white" stroke-width="2"/>
<rect width="64" height="63.8961" transform="matrix(1 1.74562e-07 1.7513e-07 -1 65 384.377)" stroke="white" stroke-width="2"/>
<rect width="64" height="63.8961" transform="matrix(1 1.74562e-07 1.7513e-07 -1 1 384.377)" stroke="white" stroke-width="2"/>
<rect width="64" height="63.8961" transform="matrix(1 1.74562e-07 1.7513e-07 -1 321 384.377)" stroke="white" stroke-width="2"/>
<rect width="64" height="63.8961" transform="matrix(1 1.74562e-07 1.7513e-07 -1 193 384.377)" stroke="white" stroke-width="2"/>
<rect width="64" height="63.8961" transform="matrix(1 1.74562e-07 1.7513e-07 -1 449 384.377)" stroke="white" stroke-width="2"/>
<rect width="64" height="63.8961" transform="matrix(1 1.74562e-07 1.7513e-07 -1 129 384.377)" stroke="white" stroke-width="2"/>
<rect width="64" height="63.8961" transform="matrix(1 1.74562e-07 1.7513e-07 -1 385 384.377)" stroke="white" stroke-width="2"/>
<rect width="64" height="63.8961" transform="matrix(1 1.74562e-07 1.7513e-07 -1 257 384.377)" stroke="white" stroke-width="2"/>
<rect width="64" height="63.8961" transform="matrix(1 1.74562e-07 1.7513e-07 -1 513 384.377)" stroke="white" stroke-width="2"/>
</svg>
