<svg width="578" height="386" viewBox="0 0 578 386" fill="none" xmlns="http://www.w3.org/2000/svg">
<rect x="65" y="321" width="64" height="64" stroke="#dde1e6"/>
<rect x="1" y="321" width="64" height="64" stroke="#dde1e6"/>
<rect x="193" y="321" width="64" height="64" stroke="#dde1e6"/>
<rect x="449" y="321" width="64" height="64" stroke="#dde1e6"/>
<rect x="65" y="193" width="64" height="64" stroke="#dde1e6"/>
<rect x="1" y="193" width="64" height="64" stroke="#dde1e6"/>
<rect x="321" y="193" width="64" height="64" stroke="#dde1e6"/>
<rect x="193" y="193" width="64" height="64" stroke="#dde1e6"/>
<rect x="129" y="193" width="64" height="64" stroke="#dde1e6"/>
<rect x="385" y="193" width="64" height="64" stroke="#dde1e6"/>
<rect x="257" y="193" width="64" height="64" stroke="#dde1e6"/>
<rect x="513" y="193" width="64" height="64" stroke="#dde1e6"/>
<rect x="65" y="65" width="64" height="64" stroke="#dde1e6"/>
<rect x="1" y="65" width="64" height="64" stroke="#dde1e6"/>
<rect x="321" y="65" width="64" height="64" stroke="#dde1e6"/>
<rect x="193" y="65" width="64" height="64" stroke="#dde1e6"/>
<rect x="449" y="65" width="64" height="64" stroke="#dde1e6"/>
<rect x="129" y="65" width="64" height="64" stroke="#dde1e6"/>
<rect x="385" y="65" width="64" height="64" stroke="#dde1e6"/>
<rect x="257" y="65" width="64" height="64" stroke="#dde1e6"/>
<rect x="65" y="257" width="64" height="64" stroke="#dde1e6"/>
<rect x="1" y="257" width="64" height="64" stroke="#dde1e6"/>
<rect x="321" y="257" width="64" height="64" stroke="#dde1e6"/>
<rect x="193" y="257" width="64" height="64" stroke="#dde1e6"/>
<rect x="129" y="257" width="64" height="64" stroke="#dde1e6"/>
<rect x="65" y="129" width="64" height="64" stroke="#dde1e6"/>
<rect x="1" y="129" width="64" height="64" stroke="#dde1e6"/>
<rect x="321" y="129" width="64" height="64" stroke="#dde1e6"/>
<rect x="193" y="129" width="64" height="64" stroke="#dde1e6"/>
<rect x="129" y="129" width="64" height="64" stroke="#dde1e6"/>
<rect x="257" y="129" width="64" height="64" stroke="#dde1e6"/>
<rect x="65" y="1" width="64" height="64" stroke="#dde1e6"/>
<rect x="1" y="1" width="64" height="64" stroke="#dde1e6"/>
<rect x="321" y="1" width="64" height="64" stroke="#dde1e6"/>
<rect x="193" y="1" width="64" height="64" stroke="#dde1e6"/>
<rect x="449" y="1" width="64" height="64" stroke="#dde1e6"/>
<rect x="129" y="1" width="64" height="64" stroke="#dde1e6"/>
<rect x="385" y="1" width="64" height="64" stroke="#dde1e6"/>
<rect x="257" y="1" width="64" height="64" stroke="#dde1e6"/>
<rect x="513" y="1" width="64" height="64" stroke="#dde1e6"/>
</svg>
