<svg width="1794" height="770" viewBox="0 0 1794 770" fill="none" xmlns="http://www.w3.org/2000/svg">
<rect x="385" y="449" width="64" height="64" stroke="#E1E1E2"/>
<rect x="321" y="449" width="64" height="64" stroke="#E1E1E2"/>
<rect x="897" y="449" width="64" height="64" stroke="#E1E1E2"/>
<rect x="641" y="449" width="64" height="64" stroke="#E1E1E2"/>
<rect x="1153" y="449" width="64" height="64" stroke="#E1E1E2"/>
<rect x="513" y="449" width="64" height="64" stroke="#E1E1E2"/>
<rect x="1025" y="449" width="64" height="64" stroke="#E1E1E2"/>
<rect x="769" y="449" width="64" height="64" stroke="#E1E1E2"/>
<rect x="1281" y="449" width="64" height="64" stroke="#E1E1E2"/>
<rect x="449" y="449" width="64" height="64" stroke="#E1E1E2"/>
<rect x="961" y="449" width="64" height="64" stroke="#E1E1E2"/>
<rect x="705" y="449" width="64" height="64" stroke="#E1E1E2"/>
<rect x="1217" y="449" width="64" height="64" stroke="#E1E1E2"/>
<rect x="577" y="449" width="64" height="64" stroke="#E1E1E2"/>
<rect x="1089" y="449" width="64" height="64" stroke="#E1E1E2"/>
<rect x="833" y="449" width="64" height="64" stroke="#E1E1E2"/>
<rect x="1345" y="449" width="64" height="64" stroke="#E1E1E2"/>
<rect x="1409" y="449" width="64" height="64" stroke="#E1E1E2"/>
<rect x="385" y="641" width="64" height="64" stroke="#E1E1E2"/>
<rect x="321" y="641" width="64" height="64" stroke="#E1E1E2"/>
<rect x="1153" y="641" width="64" height="64" stroke="#E1E1E2"/>
<rect x="513" y="641" width="64" height="64" stroke="#E1E1E2"/>
<rect x="1025" y="641" width="64" height="64" stroke="#E1E1E2"/>
<rect x="769" y="641" width="64" height="64" stroke="#E1E1E2"/>
<rect x="449" y="641" width="64" height="64" stroke="#E1E1E2"/>
<rect x="1409" y="641" width="64" height="64" stroke="#E1E1E2"/>
<rect x="897" y="705" width="64" height="64" stroke="#E1E1E2"/>
<rect x="641" y="705" width="64" height="64" stroke="#E1E1E2"/>
<rect x="513" y="705" width="64" height="64" stroke="#E1E1E2"/>
<rect x="449" y="705" width="64" height="64" stroke="#E1E1E2"/>
<rect x="1089" y="705" width="64" height="64" stroke="#E1E1E2"/>
<rect x="1345" y="705" width="64" height="64" stroke="#E1E1E2"/>
<rect x="1409" y="705" width="64" height="64" stroke="#E1E1E2"/>
<rect x="385" y="193" width="64" height="64" stroke="#E1E1E2"/>
<rect x="321" y="193" width="64" height="64" stroke="#E1E1E2"/>
<rect x="897" y="193" width="64" height="64" stroke="#E1E1E2"/>
<rect x="641" y="193" width="64" height="64" stroke="#E1E1E2"/>
<rect x="1153" y="193" width="64" height="64" stroke="#E1E1E2"/>
<rect x="513" y="193" width="64" height="64" stroke="#E1E1E2"/>
<rect x="1025" y="193" width="64" height="64" stroke="#E1E1E2"/>
<rect x="769" y="193" width="64" height="64" stroke="#E1E1E2"/>
<rect x="1281" y="193" width="64" height="64" stroke="#E1E1E2"/>
<rect x="449" y="193" width="64" height="64" stroke="#E1E1E2"/>
<rect x="961" y="193" width="64" height="64" stroke="#E1E1E2"/>
<rect x="705" y="193" width="64" height="64" stroke="#E1E1E2"/>
<rect x="1217" y="193" width="64" height="64" stroke="#E1E1E2"/>
<rect x="577" y="193" width="64" height="64" stroke="#E1E1E2"/>
<rect x="1089" y="193" width="64" height="64" stroke="#E1E1E2"/>
<rect x="833" y="193" width="64" height="64" stroke="#E1E1E2"/>
<rect x="1345" y="193" width="64" height="64" stroke="#E1E1E2"/>
<rect x="1409" y="193" width="64" height="64" stroke="#E1E1E2"/>
<rect x="385" y="321" width="64" height="64" stroke="#E1E1E2"/>
<rect x="321" y="321" width="64" height="64" stroke="#E1E1E2"/>
<rect x="897" y="321" width="64" height="64" stroke="#E1E1E2"/>
<rect x="641" y="321" width="64" height="64" stroke="#E1E1E2"/>
<rect x="1153" y="321" width="64" height="64" stroke="#E1E1E2"/>
<rect x="513" y="321" width="64" height="64" stroke="#E1E1E2"/>
<rect x="1025" y="321" width="64" height="64" stroke="#E1E1E2"/>
<rect x="769" y="321" width="64" height="64" stroke="#E1E1E2"/>
<rect x="1281" y="321" width="64" height="64" stroke="#E1E1E2"/>
<rect x="449" y="321" width="64" height="64" stroke="#E1E1E2"/>
<rect x="961" y="321" width="64" height="64" stroke="#E1E1E2"/>
<rect x="705" y="321" width="64" height="64" stroke="#E1E1E2"/>
<rect x="1217" y="321" width="64" height="64" stroke="#E1E1E2"/>
<rect x="577" y="321" width="64" height="64" stroke="#E1E1E2"/>
<rect x="1089" y="321" width="64" height="64" stroke="#E1E1E2"/>
<rect x="833" y="321" width="64" height="64" stroke="#E1E1E2"/>
<rect x="1345" y="321" width="64" height="64" stroke="#E1E1E2"/>
<rect x="1409" y="321" width="64" height="64" stroke="#E1E1E2"/>
<rect x="385" y="513" width="64" height="64" stroke="#E1E1E2"/>
<rect x="321" y="513" width="64" height="64" stroke="#E1E1E2"/>
<rect x="897" y="513" width="64" height="64" stroke="#E1E1E2"/>
<rect x="641" y="513" width="64" height="64" stroke="#E1E1E2"/>
<rect x="1153" y="513" width="64" height="64" stroke="#E1E1E2"/>
<rect x="513" y="513" width="64" height="64" stroke="#E1E1E2"/>
<rect x="1025" y="513" width="64" height="64" stroke="#E1E1E2"/>
<rect x="769" y="513" width="64" height="64" stroke="#E1E1E2"/>
<rect x="1281" y="513" width="64" height="64" stroke="#E1E1E2"/>
<rect x="449" y="513" width="64" height="64" stroke="#E1E1E2"/>
<rect x="961" y="513" width="64" height="64" stroke="#E1E1E2"/>
<rect x="705" y="513" width="64" height="64" stroke="#E1E1E2"/>
<rect x="1217" y="513" width="64" height="64" stroke="#E1E1E2"/>
<rect x="577" y="513" width="64" height="64" stroke="#E1E1E2"/>
<rect x="1089" y="513" width="64" height="64" stroke="#E1E1E2"/>
<rect x="833" y="513" width="64" height="64" stroke="#E1E1E2"/>
<rect x="1345" y="513" width="64" height="64" stroke="#E1E1E2"/>
<rect x="1409" y="513" width="64" height="64" stroke="#E1E1E2"/>
<rect x="385" y="65" width="64" height="64" stroke="#E1E1E2"/>
<rect x="321" y="65" width="64" height="64" stroke="#E1E1E2"/>
<rect x="897" y="65" width="64" height="64" stroke="#E1E1E2"/>
<rect x="641" y="65" width="64" height="64" stroke="#E1E1E2"/>
<rect x="1153" y="65" width="64" height="64" stroke="#E1E1E2"/>
<rect x="513" y="65" width="64" height="64" stroke="#E1E1E2"/>
<rect x="1025" y="65" width="64" height="64" stroke="#E1E1E2"/>
<rect x="769" y="65" width="64" height="64" stroke="#E1E1E2"/>
<rect x="1281" y="65" width="64" height="64" stroke="#E1E1E2"/>
<rect x="449" y="65" width="64" height="64" stroke="#E1E1E2"/>
<rect x="961" y="65" width="64" height="64" stroke="#E1E1E2"/>
<rect x="705" y="65" width="64" height="64" stroke="#E1E1E2"/>
<rect x="1217" y="65" width="64" height="64" stroke="#E1E1E2"/>
<rect x="577" y="65" width="64" height="64" stroke="#E1E1E2"/>
<rect x="1089" y="65" width="64" height="64" stroke="#E1E1E2"/>
<rect x="833" y="65" width="64" height="64" stroke="#E1E1E2"/>
<rect x="1345" y="65" width="64" height="64" stroke="#E1E1E2"/>
<rect x="1409" y="65" width="64" height="64" stroke="#E1E1E2"/>
<rect x="385" y="385" width="64" height="64" stroke="#E1E1E2"/>
<rect x="321" y="385" width="64" height="64" stroke="#E1E1E2"/>
<rect x="897" y="385" width="64" height="64" stroke="#E1E1E2"/>
<rect x="641" y="385" width="64" height="64" stroke="#E1E1E2"/>
<rect x="1153" y="385" width="64" height="64" stroke="#E1E1E2"/>
<rect x="513" y="385" width="64" height="64" stroke="#E1E1E2"/>
<rect x="1025" y="385" width="64" height="64" stroke="#E1E1E2"/>
<rect x="769" y="385" width="64" height="64" stroke="#E1E1E2"/>
<rect x="1281" y="385" width="64" height="64" stroke="#E1E1E2"/>
<rect x="449" y="385" width="64" height="64" stroke="#E1E1E2"/>
<rect x="961" y="385" width="64" height="64" stroke="#E1E1E2"/>
<rect x="705" y="385" width="64" height="64" stroke="#E1E1E2"/>
<rect x="1217" y="385" width="64" height="64" stroke="#E1E1E2"/>
<rect x="577" y="385" width="64" height="64" stroke="#E1E1E2"/>
<rect x="1089" y="385" width="64" height="64" stroke="#E1E1E2"/>
<rect x="833" y="385" width="64" height="64" stroke="#E1E1E2"/>
<rect x="1345" y="385" width="64" height="64" stroke="#E1E1E2"/>
<rect x="1409" y="385" width="64" height="64" stroke="#E1E1E2"/>
<rect x="385" y="577" width="64" height="64" stroke="#E1E1E2"/>
<rect x="321" y="577" width="64" height="64" stroke="#E1E1E2"/>
<rect x="897" y="577" width="64" height="64" stroke="#E1E1E2"/>
<rect x="641" y="577" width="64" height="64" stroke="#E1E1E2"/>
<rect x="1153" y="577" width="64" height="64" stroke="#E1E1E2"/>
<rect x="513" y="577" width="64" height="64" stroke="#E1E1E2"/>
<rect x="1025" y="577" width="64" height="64" stroke="#E1E1E2"/>
<rect x="769" y="577" width="64" height="64" stroke="#E1E1E2"/>
<rect x="1281" y="577" width="64" height="64" stroke="#E1E1E2"/>
<rect x="449" y="577" width="64" height="64" stroke="#E1E1E2"/>
<rect x="961" y="577" width="64" height="64" stroke="#E1E1E2"/>
<rect x="705" y="577" width="64" height="64" stroke="#E1E1E2"/>
<rect x="1217" y="577" width="64" height="64" stroke="#E1E1E2"/>
<rect x="577" y="577" width="64" height="64" stroke="#E1E1E2"/>
<rect x="1089" y="577" width="64" height="64" stroke="#E1E1E2"/>
<rect x="833" y="577" width="64" height="64" stroke="#E1E1E2"/>
<rect x="1345" y="577" width="64" height="64" stroke="#E1E1E2"/>
<rect x="1409" y="577" width="64" height="64" stroke="#E1E1E2"/>
<rect x="385" y="129" width="64" height="64" stroke="#E1E1E2"/>
<rect x="321" y="129" width="64" height="64" stroke="#E1E1E2"/>
<rect x="897" y="129" width="64" height="64" stroke="#E1E1E2"/>
<rect x="641" y="129" width="64" height="64" stroke="#E1E1E2"/>
<rect x="1153" y="129" width="64" height="64" stroke="#E1E1E2"/>
<rect x="513" y="129" width="64" height="64" stroke="#E1E1E2"/>
<rect x="1025" y="129" width="64" height="64" stroke="#E1E1E2"/>
<rect x="769" y="129" width="64" height="64" stroke="#E1E1E2"/>
<rect x="1281" y="129" width="64" height="64" stroke="#E1E1E2"/>
<rect x="449" y="129" width="64" height="64" stroke="#E1E1E2"/>
<rect x="961" y="129" width="64" height="64" stroke="#E1E1E2"/>
<rect x="705" y="129" width="64" height="64" stroke="#E1E1E2"/>
<rect x="1217" y="129" width="64" height="64" stroke="#E1E1E2"/>
<rect x="577" y="129" width="64" height="64" stroke="#E1E1E2"/>
<rect x="1089" y="129" width="64" height="64" stroke="#E1E1E2"/>
<rect x="833" y="129" width="64" height="64" stroke="#E1E1E2"/>
<rect x="1345" y="129" width="64" height="64" stroke="#E1E1E2"/>
<rect x="1409" y="129" width="64" height="64" stroke="#E1E1E2"/>
<rect x="385" y="257" width="64" height="64" stroke="#E1E1E2"/>
<rect x="321" y="257" width="64" height="64" stroke="#E1E1E2"/>
<rect x="897" y="257" width="64" height="64" stroke="#E1E1E2"/>
<rect x="641" y="257" width="64" height="64" stroke="#E1E1E2"/>
<rect x="1153" y="257" width="64" height="64" stroke="#E1E1E2"/>
<rect x="513" y="257" width="64" height="64" stroke="#E1E1E2"/>
<rect x="1025" y="257" width="64" height="64" stroke="#E1E1E2"/>
<rect x="769" y="257" width="64" height="64" stroke="#E1E1E2"/>
<rect x="1281" y="257" width="64" height="64" stroke="#E1E1E2"/>
<rect x="449" y="257" width="64" height="64" stroke="#E1E1E2"/>
<rect x="961" y="257" width="64" height="64" stroke="#E1E1E2"/>
<rect x="705" y="257" width="64" height="64" stroke="#E1E1E2"/>
<rect x="1217" y="257" width="64" height="64" stroke="#E1E1E2"/>
<rect x="577" y="257" width="64" height="64" stroke="#E1E1E2"/>
<rect x="1089" y="257" width="64" height="64" stroke="#E1E1E2"/>
<rect x="833" y="257" width="64" height="64" stroke="#E1E1E2"/>
<rect x="1345" y="257" width="64" height="64" stroke="#E1E1E2"/>
<rect x="1409" y="257" width="64" height="64" stroke="#E1E1E2"/>
<rect x="385" y="1" width="64" height="64" stroke="#E1E1E2"/>
<rect x="321" y="1" width="64" height="64" stroke="#E1E1E2"/>
<rect x="897" y="1" width="64" height="64" stroke="#E1E1E2"/>
<rect x="641" y="1" width="64" height="64" stroke="#E1E1E2"/>
<rect x="1153" y="1" width="64" height="64" stroke="#E1E1E2"/>
<rect x="513" y="1" width="64" height="64" stroke="#E1E1E2"/>
<rect x="1025" y="1" width="64" height="64" stroke="#E1E1E2"/>
<rect x="769" y="1" width="64" height="64" stroke="#E1E1E2"/>
<rect x="1281" y="1" width="64" height="64" stroke="#E1E1E2"/>
<rect x="449" y="1" width="64" height="64" stroke="#E1E1E2"/>
<rect x="961" y="1" width="64" height="64" stroke="#E1E1E2"/>
<rect x="705" y="1" width="64" height="64" stroke="#E1E1E2"/>
<rect x="1217" y="1" width="64" height="64" stroke="#E1E1E2"/>
<rect x="577" y="1" width="64" height="64" stroke="#E1E1E2"/>
<rect x="1089" y="1" width="64" height="64" stroke="#E1E1E2"/>
<rect x="833" y="1" width="64" height="64" stroke="#E1E1E2"/>
<rect x="1345" y="1" width="64" height="64" stroke="#E1E1E2"/>
<rect x="1409" y="1" width="64" height="64" stroke="#E1E1E2"/>
<rect x="65" y="1" width="64" height="64" stroke="#E1E1E2"/>
<rect x="1" y="1" width="64" height="64" stroke="#E1E1E2"/>
<rect x="193" y="1" width="64" height="64" stroke="#E1E1E2"/>
<rect x="129" y="1" width="64" height="64" stroke="#E1E1E2"/>
<rect x="257" y="1" width="64" height="64" stroke="#E1E1E2"/>
<rect x="65" y="257" width="64" height="64" stroke="#E1E1E2"/>
<rect x="1" y="257" width="64" height="64" stroke="#E1E1E2"/>
<rect x="193" y="257" width="64" height="64" stroke="#E1E1E2"/>
<rect x="129" y="257" width="64" height="64" stroke="#E1E1E2"/>
<rect x="257" y="257" width="64" height="64" stroke="#E1E1E2"/>
<rect x="65" y="129" width="64" height="64" stroke="#E1E1E2"/>
<rect x="1" y="129" width="64" height="64" stroke="#E1E1E2"/>
<rect x="193" y="129" width="64" height="64" stroke="#E1E1E2"/>
<rect x="129" y="129" width="64" height="64" stroke="#E1E1E2"/>
<rect x="257" y="129" width="64" height="64" stroke="#E1E1E2"/>
<rect x="65" y="385" width="64" height="64" stroke="#E1E1E2"/>
<rect x="1" y="385" width="64" height="64" stroke="#E1E1E2"/>
<rect x="193" y="385" width="64" height="64" stroke="#E1E1E2"/>
<rect x="129" y="385" width="64" height="64" stroke="#E1E1E2"/>
<rect x="257" y="385" width="64" height="64" stroke="#E1E1E2"/>
<rect x="65" y="513" width="64" height="64" stroke="#E1E1E2"/>
<rect x="1" y="513" width="64" height="64" stroke="#E1E1E2"/>
<rect x="193" y="513" width="64" height="64" stroke="#E1E1E2"/>
<rect x="129" y="513" width="64" height="64" stroke="#E1E1E2"/>
<rect x="257" y="513" width="64" height="64" stroke="#E1E1E2"/>
<rect x="65" y="65" width="64" height="64" stroke="#E1E1E2"/>
<rect x="1" y="65" width="64" height="64" stroke="#E1E1E2"/>
<rect x="193" y="65" width="64" height="64" stroke="#E1E1E2"/>
<rect x="129" y="65" width="64" height="64" stroke="#E1E1E2"/>
<rect x="257" y="65" width="64" height="64" stroke="#E1E1E2"/>
<rect x="65" y="321" width="64" height="64" stroke="#E1E1E2"/>
<rect x="1" y="321" width="64" height="64" stroke="#E1E1E2"/>
<rect x="193" y="321" width="64" height="64" stroke="#E1E1E2"/>
<rect x="129" y="321" width="64" height="64" stroke="#E1E1E2"/>
<rect x="257" y="321" width="64" height="64" stroke="#E1E1E2"/>
<rect x="65" y="193" width="64" height="64" stroke="#E1E1E2"/>
<rect x="1" y="193" width="64" height="64" stroke="#E1E1E2"/>
<rect x="193" y="193" width="64" height="64" stroke="#E1E1E2"/>
<rect x="129" y="193" width="64" height="64" stroke="#E1E1E2"/>
<rect x="257" y="193" width="64" height="64" stroke="#E1E1E2"/>
<rect x="65" y="449" width="64" height="64" stroke="#E1E1E2"/>
<rect x="1" y="449" width="64" height="64" stroke="#E1E1E2"/>
<rect x="193" y="449" width="64" height="64" stroke="#E1E1E2"/>
<rect x="129" y="449" width="64" height="64" stroke="#E1E1E2"/>
<rect x="257" y="449" width="64" height="64" stroke="#E1E1E2"/>
<rect x="65" y="577" width="64" height="64" stroke="#E1E1E2"/>
<rect x="1" y="577" width="64" height="64" stroke="#E1E1E2"/>
<rect x="193" y="577" width="64" height="64" stroke="#E1E1E2"/>
<rect x="129" y="577" width="64" height="64" stroke="#E1E1E2"/>
<rect x="257" y="577" width="64" height="64" stroke="#E1E1E2"/>
<rect x="65" y="705" width="64" height="64" stroke="#E1E1E2"/>
<rect x="1" y="705" width="64" height="64" stroke="#E1E1E2"/>
<rect x="193" y="705" width="64" height="64" stroke="#E1E1E2"/>
<rect x="129" y="705" width="64" height="64" stroke="#E1E1E2"/>
<rect x="257" y="705" width="64" height="64" stroke="#E1E1E2"/>
<rect x="65" y="641" width="64" height="64" stroke="#E1E1E2"/>
<rect x="1" y="641" width="64" height="64" stroke="#E1E1E2"/>
<rect x="193" y="641" width="64" height="64" stroke="#E1E1E2"/>
<rect x="129" y="641" width="64" height="64" stroke="#E1E1E2"/>
<rect x="257" y="641" width="64" height="64" stroke="#E1E1E2"/>
<rect x="1537" y="1" width="64" height="64" stroke="#E1E1E2"/>
<rect x="1473" y="1" width="64" height="64" stroke="#E1E1E2"/>
<rect x="1665" y="1" width="64" height="64" stroke="#E1E1E2"/>
<rect x="1601" y="1" width="64" height="64" stroke="#E1E1E2"/>
<rect x="1729" y="1" width="64" height="64" stroke="#E1E1E2"/>
<rect x="1537" y="257" width="64" height="64" stroke="#E1E1E2"/>
<rect x="1473" y="257" width="64" height="64" stroke="#E1E1E2"/>
<rect x="1665" y="257" width="64" height="64" stroke="#E1E1E2"/>
<rect x="1601" y="257" width="64" height="64" stroke="#E1E1E2"/>
<rect x="1729" y="257" width="64" height="64" stroke="#E1E1E2"/>
<rect x="1537" y="129" width="64" height="64" stroke="#E1E1E2"/>
<rect x="1473" y="129" width="64" height="64" stroke="#E1E1E2"/>
<rect x="1665" y="129" width="64" height="64" stroke="#E1E1E2"/>
<rect x="1601" y="129" width="64" height="64" stroke="#E1E1E2"/>
<rect x="1729" y="129" width="64" height="64" stroke="#E1E1E2"/>
<rect x="1537" y="385" width="64" height="64" stroke="#E1E1E2"/>
<rect x="1473" y="385" width="64" height="64" stroke="#E1E1E2"/>
<rect x="1665" y="385" width="64" height="64" stroke="#E1E1E2"/>
<rect x="1601" y="385" width="64" height="64" stroke="#E1E1E2"/>
<rect x="1729" y="385" width="64" height="64" stroke="#E1E1E2"/>
<rect x="1537" y="513" width="64" height="64" stroke="#E1E1E2"/>
<rect x="1473" y="513" width="64" height="64" stroke="#E1E1E2"/>
<rect x="1665" y="513" width="64" height="64" stroke="#E1E1E2"/>
<rect x="1601" y="513" width="64" height="64" stroke="#E1E1E2"/>
<rect x="1729" y="513" width="64" height="64" stroke="#E1E1E2"/>
<rect x="1537" y="65" width="64" height="64" stroke="#E1E1E2"/>
<rect x="1473" y="65" width="64" height="64" stroke="#E1E1E2"/>
<rect x="1665" y="65" width="64" height="64" stroke="#E1E1E2"/>
<rect x="1601" y="65" width="64" height="64" stroke="#E1E1E2"/>
<rect x="1729" y="65" width="64" height="64" stroke="#E1E1E2"/>
<rect x="1537" y="321" width="64" height="64" stroke="#E1E1E2"/>
<rect x="1473" y="321" width="64" height="64" stroke="#E1E1E2"/>
<rect x="1665" y="321" width="64" height="64" stroke="#E1E1E2"/>
<rect x="1601" y="321" width="64" height="64" stroke="#E1E1E2"/>
<rect x="1729" y="321" width="64" height="64" stroke="#E1E1E2"/>
<rect x="1537" y="193" width="64" height="64" stroke="#E1E1E2"/>
<rect x="1473" y="193" width="64" height="64" stroke="#E1E1E2"/>
<rect x="1665" y="193" width="64" height="64" stroke="#E1E1E2"/>
<rect x="1601" y="193" width="64" height="64" stroke="#E1E1E2"/>
<rect x="1729" y="193" width="64" height="64" stroke="#E1E1E2"/>
<rect x="1537" y="449" width="64" height="64" stroke="#E1E1E2"/>
<rect x="1473" y="449" width="64" height="64" stroke="#E1E1E2"/>
<rect x="1665" y="449" width="64" height="64" stroke="#E1E1E2"/>
<rect x="1601" y="449" width="64" height="64" stroke="#E1E1E2"/>
<rect x="1729" y="449" width="64" height="64" stroke="#E1E1E2"/>
<rect x="1537" y="577" width="64" height="64" stroke="#E1E1E2"/>
<rect x="1473" y="577" width="64" height="64" stroke="#E1E1E2"/>
<rect x="1665" y="577" width="64" height="64" stroke="#E1E1E2"/>
<rect x="1601" y="577" width="64" height="64" stroke="#E1E1E2"/>
<rect x="1729" y="577" width="64" height="64" stroke="#E1E1E2"/>
<rect x="1537" y="705" width="64" height="64" stroke="#E1E1E2"/>
<rect x="1473" y="705" width="64" height="64" stroke="#E1E1E2"/>
<rect x="1665" y="705" width="64" height="64" stroke="#E1E1E2"/>
<rect x="1601" y="705" width="64" height="64" stroke="#E1E1E2"/>
<rect x="1729" y="705" width="64" height="64" stroke="#E1E1E2"/>
<rect x="1537" y="641" width="64" height="64" stroke="#E1E1E2"/>
<rect x="1473" y="641" width="64" height="64" stroke="#E1E1E2"/>
<rect x="1665" y="641" width="64" height="64" stroke="#E1E1E2"/>
<rect x="1601" y="641" width="64" height="64" stroke="#E1E1E2"/>
<rect x="1729" y="641" width="64" height="64" stroke="#E1E1E2"/>
</svg>
