<svg width="546" height="344" viewBox="0 0 546 344" fill="none" xmlns="http://www.w3.org/2000/svg">
<rect x="176.741" y="286.171" width="368.759" height="56.5949" fill="#21272A" stroke="white"/>
<rect x="176.241" y="52.9873" width="369.759" height="229.228" fill="#F2F4F8"/>
<rect x="0.5" y="0.5" width="545" height="16.2785" fill="#21272A" stroke="white"/>
<rect x="176.741" y="22.3861" width="368.759" height="25.4937" fill="#21272A" stroke="white"/>
<rect x="0.5" y="22.3861" width="16.2785" height="320.38" fill="#21272A" stroke="white"/>
<rect x="22.3861" y="22.3861" width="148.747" height="320.38" fill="#21272A" stroke="white"/>
<rect x="9.21518" y="5.75952" width="38.0127" height="6.91139" rx="3.4557" fill="#4D5358"/>
<rect x="107.127" y="5.75952" width="38.0127" height="6.91139" rx="3.4557" fill="#4D5358"/>
<rect x="205.038" y="5.75952" width="38.0127" height="6.91139" rx="3.4557" fill="#4D5358"/>
<rect x="400.861" y="5.75952" width="38.0127" height="6.91139" rx="3.4557" fill="#4D5358"/>
<rect x="302.949" y="5.75952" width="38.0127" height="6.91139" rx="3.4557" fill="#4D5358"/>
<rect x="498.772" y="5.75952" width="38.0127" height="6.91139" rx="3.4557" fill="#4D5358"/>
<rect x="57.5949" y="5.75952" width="38.0127" height="6.91139" rx="3.4557" fill="#4D5358"/>
<rect x="155.506" y="5.75952" width="38.0127" height="6.91139" rx="3.4557" fill="#4D5358"/>
<rect x="253.418" y="5.75952" width="38.0127" height="6.91139" rx="3.4557" fill="#4D5358"/>
<rect x="449.241" y="5.75952" width="38.0127" height="6.91139" rx="3.4557" fill="#4D5358"/>
<rect x="351.329" y="5.75952" width="38.0127" height="6.91139" rx="3.4557" fill="#4D5358"/>
<rect x="180.848" y="26.4937" width="61.0506" height="6.91139" rx="3.4557" fill="#4D5358"/>
<circle cx="9.2152" cy="31.1012" r="4.60759" fill="#4D5358"/>
<circle cx="9.2152" cy="101.367" r="4.60759" fill="#4D5358"/>
<circle cx="9.2152" cy="171.633" r="4.60759" fill="#4D5358"/>
<circle cx="9.2152" cy="65.6583" r="4.60759" fill="#4D5358"/>
<ellipse cx="9.2152" cy="136.5" rx="4.60759" ry="4.03165" fill="#4D5358"/>
<ellipse cx="9.2152" cy="206.766" rx="4.60759" ry="4.03165" fill="#4D5358"/>
<circle cx="9.2152" cy="48.3797" r="4.60759" fill="#4D5358"/>
<circle cx="9.2152" cy="118.646" r="4.60759" fill="#4D5358"/>
<circle cx="9.2152" cy="188.911" r="4.60759" fill="#4D5358"/>
<ellipse cx="9.2152" cy="83.5126" rx="4.60759" ry="4.03165" fill="#4D5358"/>
<circle cx="9.2152" cy="154.354" r="4.60759" fill="#4D5358"/>
<circle cx="9.2152" cy="224.62" r="4.60759" fill="#4D5358"/>
</svg>
