<svg width="1056" height="481" viewBox="0 0 1056 481" fill="none" xmlns="http://www.w3.org/2000/svg">
<g opacity="0.3">
<rect x="16" y="32" width="64" height="64" stroke="#F1C21B"/>
<rect x="-48" y="32" width="64" height="64" stroke="#F1C21B"/>
<rect x="528" y="32" width="64" height="64" stroke="#F1C21B"/>
<rect x="272" y="32" width="64" height="64" stroke="#F1C21B"/>
<rect x="784" y="32" width="64" height="64" stroke="#F1C21B"/>
<rect x="144" y="32" width="64" height="64" stroke="#F1C21B"/>
<rect x="656" y="32" width="64" height="64" stroke="#F1C21B"/>
<rect x="400" y="32" width="64" height="64" stroke="#F1C21B"/>
<rect x="912" y="32" width="64" height="64" stroke="#F1C21B"/>
<rect x="80" y="32" width="64" height="64" stroke="#F1C21B"/>
<rect x="592" y="32" width="64" height="64" stroke="#F1C21B"/>
<rect x="336" y="32" width="64" height="64" stroke="#F1C21B"/>
<rect x="848" y="32" width="64" height="64" stroke="#F1C21B"/>
<rect x="208" y="32" width="64" height="64" stroke="#F1C21B"/>
<rect x="720" y="32" width="64" height="64" stroke="#F1C21B"/>
<rect x="464" y="32" width="64" height="64" stroke="#F1C21B"/>
<rect x="976" y="32" width="64" height="64" stroke="#F1C21B"/>
<rect x="1040" y="32" width="64" height="64" stroke="#F1C21B"/>
<rect x="528" y="224" width="64" height="64" stroke="#F1C21B"/>
<rect x="272" y="224" width="64" height="64" stroke="#F1C21B"/>
<rect x="784" y="224" width="64" height="64" stroke="#F1C21B"/>
<rect x="144" y="224" width="64" height="64" stroke="#F1C21B"/>
<rect x="912" y="224" width="64" height="64" stroke="#F1C21B"/>
<rect x="80" y="224" width="64" height="64" stroke="#F1C21B"/>
<rect x="592" y="224" width="64" height="64" stroke="#F1C21B"/>
<rect x="336" y="224" width="64" height="64" stroke="#F1C21B"/>
<rect x="208" y="224" width="64" height="64" stroke="#F1C21B"/>
<rect x="720" y="224" width="64" height="64" stroke="#F1C21B"/>
<rect x="1040" y="224" width="64" height="64" stroke="#F1C21B"/>
<rect x="16" y="288" width="64" height="64" stroke="#F1C21B"/>
<rect x="80" y="352" width="64" height="64" stroke="#F1C21B"/>
<rect x="144" y="416" width="64" height="64" stroke="#F1C21B"/>
<rect x="400" y="352" width="64" height="64" stroke="#F1C21B"/>
<rect x="-48" y="288" width="64" height="64" stroke="#F1C21B"/>
<rect x="528" y="288" width="64" height="64" stroke="#F1C21B"/>
<rect x="272" y="288" width="64" height="64" stroke="#F1C21B"/>
<rect x="784" y="288" width="64" height="64" stroke="#F1C21B"/>
<rect x="144" y="288" width="64" height="64" stroke="#F1C21B"/>
<rect x="976" y="288" width="64" height="64" stroke="#F1C21B"/>
<rect x="1040" y="288" width="64" height="64" stroke="#F1C21B"/>
<rect x="16" y="96" width="64" height="64" stroke="#F1C21B"/>
<rect x="-48" y="96" width="64" height="64" stroke="#F1C21B"/>
<rect x="528" y="96" width="64" height="64" stroke="#F1C21B"/>
<rect x="272" y="96" width="64" height="64" stroke="#F1C21B"/>
<rect x="784" y="96" width="64" height="64" stroke="#F1C21B"/>
<rect x="144" y="96" width="64" height="64" stroke="#F1C21B"/>
<rect x="656" y="96" width="64" height="64" stroke="#F1C21B"/>
<rect x="400" y="96" width="64" height="64" stroke="#F1C21B"/>
<rect x="912" y="96" width="64" height="64" stroke="#F1C21B"/>
<rect x="80" y="96" width="64" height="64" stroke="#F1C21B"/>
<rect x="592" y="96" width="64" height="64" stroke="#F1C21B"/>
<rect x="336" y="96" width="64" height="64" stroke="#F1C21B"/>
<rect x="848" y="96" width="64" height="64" stroke="#F1C21B"/>
<rect x="208" y="96" width="64" height="64" stroke="#F1C21B"/>
<rect x="720" y="96" width="64" height="64" stroke="#F1C21B"/>
<rect x="464" y="96" width="64" height="64" stroke="#F1C21B"/>
<rect x="976" y="96" width="64" height="64" stroke="#F1C21B"/>
<rect x="1040" y="96" width="64" height="64" stroke="#F1C21B"/>
<rect x="16" y="-32" width="64" height="64" stroke="#F1C21B"/>
<rect x="-48" y="-32" width="64" height="64" stroke="#F1C21B"/>
<rect x="528" y="-32" width="64" height="64" stroke="#F1C21B"/>
<rect x="272" y="-32" width="64" height="64" stroke="#F1C21B"/>
<rect x="784" y="-32" width="64" height="64" stroke="#F1C21B"/>
<rect x="144" y="-32" width="64" height="64" stroke="#F1C21B"/>
<rect x="656" y="-32" width="64" height="64" stroke="#F1C21B"/>
<rect x="400" y="-32" width="64" height="64" stroke="#F1C21B"/>
<rect x="912" y="-32" width="64" height="64" stroke="#F1C21B"/>
<rect x="80" y="-32" width="64" height="64" stroke="#F1C21B"/>
<rect x="592" y="-32" width="64" height="64" stroke="#F1C21B"/>
<rect x="336" y="-32" width="64" height="64" stroke="#F1C21B"/>
<rect x="848" y="-32" width="64" height="64" stroke="#F1C21B"/>
<rect x="208" y="-32" width="64" height="64" stroke="#F1C21B"/>
<rect x="720" y="-32" width="64" height="64" stroke="#F1C21B"/>
<rect x="464" y="-32" width="64" height="64" stroke="#F1C21B"/>
<rect x="976" y="-32" width="64" height="64" stroke="#F1C21B"/>
<rect x="1040" y="-32" width="64" height="64" stroke="#F1C21B"/>
<rect x="16" y="160" width="64" height="64" stroke="#F1C21B"/>
<rect x="-48" y="160" width="64" height="64" stroke="#F1C21B"/>
<rect x="528" y="160" width="64" height="64" stroke="#F1C21B"/>
<rect x="272" y="160" width="64" height="64" stroke="#F1C21B"/>
<rect x="784" y="160" width="64" height="64" stroke="#F1C21B"/>
<rect x="144" y="160" width="64" height="64" stroke="#F1C21B"/>
<rect x="656" y="160" width="64" height="64" stroke="#F1C21B"/>
<rect x="400" y="160" width="64" height="64" stroke="#F1C21B"/>
<rect x="912" y="160" width="64" height="64" stroke="#F1C21B"/>
<rect x="80" y="160" width="64" height="64" stroke="#F1C21B"/>
<rect x="592" y="160" width="64" height="64" stroke="#F1C21B"/>
<rect x="336" y="160" width="64" height="64" stroke="#F1C21B"/>
<rect x="848" y="160" width="64" height="64" stroke="#F1C21B"/>
<rect x="208" y="160" width="64" height="64" stroke="#F1C21B"/>
<rect x="720" y="160" width="64" height="64" stroke="#F1C21B"/>
<rect x="464" y="160" width="64" height="64" stroke="#F1C21B"/>
<rect x="976" y="160" width="64" height="64" stroke="#F1C21B"/>
<rect x="1040" y="160" width="64" height="64" stroke="#F1C21B"/>
</g>
</svg>
