<svg width="593" height="514" viewBox="0 0 593 514" fill="none" xmlns="http://www.w3.org/2000/svg">
<rect x="577" y="65" width="64" height="64" transform="rotate(-180 577 65)" stroke="#343A3F"/>
<rect x="641" y="65" width="64" height="64" transform="rotate(-180 641 65)" stroke="#343A3F"/>
<rect x="449" y="65" width="64" height="64" transform="rotate(-180 449 65)" stroke="#343A3F"/>
<rect x="577" y="193" width="64" height="64" transform="rotate(-180 577 193)" stroke="#343A3F"/>
<rect x="641" y="193" width="64" height="64" transform="rotate(-180 641 193)" stroke="#343A3F"/>
<rect x="321" y="193" width="64" height="64" transform="rotate(-180 321 193)" stroke="#343A3F"/>
<rect x="449" y="193" width="64" height="64" transform="rotate(-180 449 193)" stroke="#343A3F"/>
<rect x="513" y="193" width="64" height="64" transform="rotate(-180 513 193)" stroke="#343A3F"/>
<rect x="257" y="193" width="64" height="64" transform="rotate(-180 257 193)" stroke="#343A3F"/>
<rect x="385" y="193" width="64" height="64" transform="rotate(-180 385 193)" stroke="#343A3F"/>
<rect x="129" y="193" width="64" height="64" transform="rotate(-180 129 193)" stroke="#343A3F"/>
<rect x="577" y="321" width="64" height="64" transform="rotate(-180 577 321)" stroke="#343A3F"/>
<rect x="641" y="321" width="64" height="64" transform="rotate(-180 641 321)" stroke="#343A3F"/>
<rect x="321" y="321" width="64" height="64" transform="rotate(-180 321 321)" stroke="#343A3F"/>
<rect x="449" y="321" width="64" height="64" transform="rotate(-180 449 321)" stroke="#343A3F"/>
<rect x="193" y="321" width="64" height="64" transform="rotate(-180 193 321)" stroke="#343A3F"/>
<rect x="513" y="321" width="64" height="64" transform="rotate(-180 513 321)" stroke="#343A3F"/>
<rect x="257" y="321" width="64" height="64" transform="rotate(-180 257 321)" stroke="#343A3F"/>
<rect x="385" y="321" width="64" height="64" transform="rotate(-180 385 321)" stroke="#343A3F"/>
<rect x="577" y="129" width="64" height="64" transform="rotate(-180 577 129)" stroke="#343A3F"/>
<rect x="641" y="129" width="64" height="64" transform="rotate(-180 641 129)" stroke="#343A3F"/>
<rect x="321" y="129" width="64" height="64" transform="rotate(-180 321 129)" stroke="#343A3F"/>
<rect x="449" y="129" width="64" height="64" transform="rotate(-180 449 129)" stroke="#343A3F"/>
<rect x="513" y="129" width="64" height="64" transform="rotate(-180 513 129)" stroke="#343A3F"/>
<rect x="577" y="257" width="64" height="64" transform="rotate(-180 577 257)" stroke="#343A3F"/>
<rect x="641" y="257" width="64" height="64" transform="rotate(-180 641 257)" stroke="#343A3F"/>
<rect x="321" y="257" width="64" height="64" transform="rotate(-180 321 257)" stroke="#343A3F"/>
<rect x="449" y="257" width="64" height="64" transform="rotate(-180 449 257)" stroke="#343A3F"/>
<rect x="513" y="257" width="64" height="64" transform="rotate(-180 513 257)" stroke="#343A3F"/>
<rect x="385" y="257" width="64" height="64" transform="rotate(-180 385 257)" stroke="#343A3F"/>
<rect x="577" y="385" width="64" height="64" transform="rotate(-180 577 385)" stroke="#343A3F"/>
<rect x="577" y="449" width="64" height="64" transform="rotate(-180 577 449)" stroke="#343A3F"/>
<rect x="577" y="513" width="64" height="64" transform="rotate(-180 577 513)" stroke="#343A3F"/>
<rect x="641" y="385" width="64" height="64" transform="rotate(-180 641 385)" stroke="#343A3F"/>
<rect x="321" y="385" width="64" height="64" transform="rotate(-180 321 385)" stroke="#343A3F"/>
<rect x="321" y="449" width="64" height="64" transform="rotate(-180 321 449)" stroke="#343A3F"/>
<rect x="321" y="513" width="64" height="64" transform="rotate(-180 321 513)" stroke="#343A3F"/>
<rect x="449" y="385" width="64" height="64" transform="rotate(-180 449 385)" stroke="#343A3F"/>
<rect x="449" y="449" width="64" height="64" transform="rotate(-180 449 449)" stroke="#343A3F"/>
<rect x="449" y="513" width="64" height="64" transform="rotate(-180 449 513)" stroke="#343A3F"/>
<rect x="193" y="385" width="64" height="64" transform="rotate(-180 193 385)" stroke="#343A3F"/>
<rect x="193" y="449" width="64" height="64" transform="rotate(-180 193 449)" stroke="#343A3F"/>
<rect x="193" y="513" width="64" height="64" transform="rotate(-180 193 513)" stroke="#343A3F"/>
<rect x="513" y="385" width="64" height="64" transform="rotate(-180 513 385)" stroke="#343A3F"/>
<rect x="513" y="449" width="64" height="64" transform="rotate(-180 513 449)" stroke="#343A3F"/>
<rect x="513" y="513" width="64" height="64" transform="rotate(-180 513 513)" stroke="#343A3F"/>
<rect x="257" y="385" width="64" height="64" transform="rotate(-180 257 385)" stroke="#343A3F"/>
<rect x="257" y="449" width="64" height="64" transform="rotate(-180 257 449)" stroke="#343A3F"/>
<rect x="257" y="513" width="64" height="64" transform="rotate(-180 257 513)" stroke="#343A3F"/>
<rect x="385" y="385" width="64" height="64" transform="rotate(-180 385 385)" stroke="#343A3F"/>
<rect x="385" y="449" width="64" height="64" transform="rotate(-180 385 449)" stroke="#343A3F"/>
<rect x="385" y="513" width="64" height="64" transform="rotate(-180 385 513)" stroke="#343A3F"/>
<rect x="129" y="385" width="64" height="64" transform="rotate(-180 129 385)" stroke="#343A3F"/>
<rect x="129" y="449" width="64" height="64" transform="rotate(-180 129 449)" stroke="#343A3F"/>
<rect x="641" y="449" width="64" height="64" transform="rotate(-180 641 449)" stroke="#343A3F"/>
<rect x="641" y="513" width="64" height="64" transform="rotate(-180 641 513)" stroke="#343A3F"/>
<rect x="65" y="449" width="64" height="64" transform="rotate(-180 65 449)" stroke="#343A3F"/>
<rect x="129" y="513" width="64" height="64" transform="rotate(-180 129 513)" stroke="#343A3F"/>
</svg>
