<svg xmlns="http://www.w3.org/2000/svg" viewBox="0 0 148.36 148.36"><defs><style>.cls-1{fill:#fff;}</style></defs><title>sAsset 1</title><g id="Layer_2" data-name="Layer 2"><g id="Layer_1-2" data-name="Layer 1"><path class="cls-1" d="M74.18,0a74.18,74.18,0,1,0,74.18,74.18A74.18,74.18,0,0,0,74.18,0Zm-42,18.48a69.74,69.74,0,0,1,84.37.21V34.24C109.17,26.83,93,21.68,74.3,21.68h0c-18.64,0-34.71,5.09-42.12,12.43Zm0,23.49C33.69,33,52,25.86,74.26,25.86h0c23.29,0,42.16,7.76,42.21,17.32v0h0c0,4-3.32,7.7-8.88,10.64-3.38-7.2-17-12.6-33.33-12.6h0c-16.3,0-29.92,5.36-33.34,12.55-5.46-2.92-8.74-6.56-8.78-10.51h0ZM74.3,122.51h0c-6.56,0-12.37,1.65-16.09,4.19V104.33a2.6,2.6,0,0,1,.07-.56c.72-3.3,7.61-5.88,16-5.88h0c8.4,0,15.27,2.59,16,5.88a2.6,2.6,0,0,1,.07.56V126.7C86.65,124.16,80.85,122.52,74.3,122.51Zm16.06,10.74c0,3.55-7.21,6.44-16.1,6.44s-16.09-2.89-16.09-6.44,7.2-6.45,16.09-6.45h0C83.17,126.81,90.36,129.69,90.36,133.25ZM74.3,93.6h0c-10.08,0-18.42,3.88-20,9-6.08-2.19-9.9-5.35-9.9-8.87,0-6.59,13.4-11.94,29.93-11.94h0c16.52,0,29.9,5.35,29.9,11.94,0,3.52-3.83,6.68-9.9,8.87C92.69,97.48,84.36,93.61,74.3,93.6Zm0-16h0c-12.89,0-24.11,3.36-29.93,8.32V57.33a5,5,0,0,1,.32-1.74C46.76,49.82,59.21,45.4,74.26,45.4h0c15,0,27.47,4.43,29.58,10.19a5,5,0,0,1,.32,1.74v28.6C98.38,81,87.18,77.62,74.3,77.61ZM27.78,22.06l.12-.1V43.3h0c0,5.57,4.67,10.65,12.21,14.47v.06h0V93.69h0c0,5.29,5.44,10,13.84,12.92v26.64h0c0,5.79,8.71,10.51,19.6,10.71l.71,0h-.1l-.73,0A69.77,69.77,0,0,1,27.78,22.06M75.38,144c10.71-.31,19.22-5,19.22-10.7V106.61c8.39-2.93,13.84-7.63,13.84-12.92V57.82h0c0-.17,0-.33,0-.5v.49c7.64-3.84,12.31-9,12.31-14.6h0v-21A69.78,69.78,0,0,1,75.38,144Z"/></g></g></svg>