<?xml version="1.0" encoding="UTF-8"?>
<svg width="149px" height="149px" viewBox="0 0 149 149" version="1.1" xmlns="http://www.w3.org/2000/svg" xmlns:xlink="http://www.w3.org/1999/xlink">
    <!-- Generator: Sketch 49.3 (51167) - http://www.bohemiancoding.com/sketch -->
    <title>Shape</title>
    <desc>Created with Sketch.</desc>
    <defs></defs>
    <g id="Page-1" stroke="none" stroke-width="1" fill="none" fill-rule="evenodd">
        <g id="Aqua" fill="#000000" fill-rule="nonzero">
            <path d="M146.29,90.55 C146.29,90.43 146.29,90.32 146.35,90.21 C153.542655,57.5195604 137.982353,24.056721 108.35,8.49 C74.9135778,-8.98874884 33.6785513,1.5507204 12.73,32.93 C12.5976654,33.0524748 12.480192,33.1900864 12.38,33.34 C12.22,33.61 12.08,33.89 11.93,34.16 C10.75,36.01 9.63,37.91 8.61,39.88 C6.58914447,43.7750213 4.91598696,47.8407941 3.61,52.03 C3.56735205,52.1105714 3.53058942,52.1941228 3.5,52.28 C3.39,52.64 3.29,53 3.19,53.37 C2.58,55.45 2.08,57.55 1.66,59.65 L1.66,59.76 C1.61,59.96 1.58,60.16 1.54,60.37 C1.5,60.58 1.42,61 1.37,61.31 C1.17,62.37 1.01,63.43 0.87,64.49 L0.87,64.55 C0.78,65.23 0.71,65.9 0.65,66.55 C-2.44004277,96.71735 13.12091,125.733321 39.96,139.85 C74.8340077,158.071987 117.870492,145.759516 137.83,111.85 L137.91,111.73 L137.97,111.62 C139.925535,108.455944 141.5635,105.106324 142.86,101.62 C143.46,100.11 143.99,98.62 144.49,97.06 C144.52751,96.9852176 144.560893,96.9084358 144.59,96.83 C144.7,96.48 144.79,96.13 144.89,95.83 C145.41,94.13 145.89,92.42 146.27,90.7 L146.29,90.55 Z M53.29,7.55 C72.6221833,1.4641185 93.6464288,4.10087026 110.877002,14.7722629 C128.107575,25.4436555 139.835252,43.091118 143,63.11 C135.782979,42.8901226 117.625152,28.5886889 96.2771432,26.3102323 C74.9291348,24.0317758 54.1619449,34.1787722 42.84,52.42 C38.1949276,59.8256353 28.4262414,62.064106 21.02,57.42 C13.9104023,52.9403221 11.5104624,43.7040573 15.54,36.33 C24.3381731,22.566386 37.7205282,12.357824 53.32,7.51 L53.29,7.55 Z M9.7,47.63 C11.1402736,55.8140329 17.4911186,62.2548657 25.6540782,63.8101383 C33.8170378,65.365411 42.0912963,61.7110704 46.44,54.63 C56.5644703,38.3466978 74.8734294,29.008859 93.9989782,30.3742206 C113.124527,31.7395822 129.921326,43.5836002 137.63,61.14 C128.767223,50.3539642 114.703887,45.2960098 101.001453,47.9663455 C87.2990189,50.6366812 76.1640656,60.605288 72,73.93 C66.2812589,91.3279096 47.7468918,101.006561 30.2016837,95.7570906 C12.6564757,90.5076208 2.48358772,72.2398514 7.26,54.56 C7.95082961,52.208676 8.76529609,49.8954577 9.7,47.63 Z M138.41,70.07 C132.905962,66.0781165 125.754511,65.1459909 119.411136,67.5936735 C113.06776,70.0413561 108.396027,75.5356276 107,82.19 C101.875348,106.569435 80.1020742,123.833514 55.1963319,123.265248 C30.2905896,122.696981 9.32738251,104.457798 5.32,79.87 C11.9375726,94.0992072 26.6212429,102.79699 42.2798956,101.76297 C57.9385484,100.72895 71.3509845,90.1758385 76.04,75.2 C80.1313487,62.0717097 91.7805729,52.7398825 105.485305,51.6122918 C119.190037,50.4847012 132.207873,57.7869853 138.39,70.07 L138.41,70.07 Z M95,140.85 C62.3037529,151.116263 27.0016876,136.038941 11.81,105.32 C25.0619005,122.754097 47.2601978,130.864088 68.6298226,126.07872 C89.9994474,121.293352 106.618991,104.490759 111.17,83.07 C112.665964,75.8869065 118.907325,70.6769798 126.242124,70.4886636 C133.576923,70.3003473 140.077407,75.1831353 141.94,82.28 C141.99,82.72 142.01,83.15 142.04,83.59 C141.892282,89.2383999 140.824958,94.8249664 138.88,100.13 C138.02,102.283333 137.043333,104.41 135.95,106.51 C135.41,107.51 134.85,108.56 134.27,109.56 C125.555366,124.535458 111.543481,135.700007 95,140.85 Z" id="Shape"></path>
        </g>
    </g>
</svg>