<svg aria-hidden="true" xmlns="http://www.w3.org/2000/svg" viewBox="0 0 1225.4 376"><path d="M142.5,148h-68a3.5,3.5,0,0,0-3.5,3.5v185a3.5,3.5,0,0,0,3.5,3.5h68a3.5,3.5,0,0,0,3.5-3.5v-185a3.5,3.5,0,0,0-3.5-3.5ZM139,333H78V302.2H94.5a3.5,3.5,0,0,0,0-7H78v-14H94.5a3.5,3.5,0,0,0,0-7H78v-14H94.5a3.5,3.5,0,0,0,0-7H78v-14H94.5a3.5,3.5,0,0,0,0-7H78v-14H94.5a3.5,3.5,0,0,0,0-7H78v-14H94.5a3.5,3.5,0,0,0,0-7H78V176H94.5a3.5,3.5,0,0,0,0-7H78V155h61V333Z" fill="#634991" fill-rule="evenodd"/><path d="M972,176a4,4,0,1,1,4-4A4,4,0,0,1,972,176Zm60,120a4,4,0,1,1,4-4A4,4,0,0,1,1032,296Zm-80,10a4,4,0,1,1,4-4A4,4,0,0,1,952,306Zm-70-70a4,4,0,1,1,4-4A4,4,0,0,1,882,236Zm140-122a2,2,0,1,1,2-2A2,2,0,0,1,1022,114ZM912,84a2,2,0,1,1,2-2A2,2,0,0,1,912,84Zm0,61a2,2,0,1,1,2-2A2,2,0,0,1,912,145Zm-90,0a2,2,0,1,1,2-2A2,2,0,0,1,822,145Zm0-67a2,2,0,1,1,2-2A2,2,0,0,1,822,78Zm260,0a2,2,0,1,1,2-2A2,2,0,0,1,1082,78ZM952,4a2,2,0,1,1,2-2A2,2,0,0,1,952,4Z" fill="#634991" fill-rule="evenodd"/><path d="M112,176a4,4,0,1,0-4-4A4,4,0,0,0,112,176ZM52,296a4,4,0,1,0-4-4A4,4,0,0,0,52,296Zm80,10a4,4,0,1,0-4-4A4,4,0,0,0,132,306Zm70-70a4,4,0,1,0-4-4A4,4,0,0,0,202,236ZM62,114a2,2,0,1,0-2-2A2,2,0,0,0,62,114ZM172,84a2,2,0,1,0-2-2A2,2,0,0,0,172,84Zm0,61a2,2,0,1,0-2-2A2,2,0,0,0,172,145Zm90,0a2,2,0,1,0-2-2A2,2,0,0,0,262,145Zm0-67a2,2,0,1,0-2-2A2,2,0,0,0,262,78ZM2,78a2,2,0,1,0-2-2A2,2,0,0,0,2,78ZM132,4a2,2,0,1,0-2-2A2,2,0,0,0,132,4Z" fill="#634991" fill-rule="evenodd"/><path d="M382,200a4,4,0,1,1-4,4A4,4,0,0,1,382,200ZM322,80a4,4,0,1,1-4,4A4,4,0,0,1,322,80Zm80-10a4,4,0,1,1-4,4A4,4,0,0,1,402,70Zm70,65a4,4,0,1,1-4,4A4,4,0,0,1,472,135ZM332,262a2,2,0,1,1-2,2A2,2,0,0,1,332,262Zm110,31a2,2,0,1,1-2,2A2,2,0,0,1,442,293Zm0-62a2,2,0,1,1-2,2A2,2,0,0,1,442,231Zm90,0a2,2,0,1,1-2,2A2,2,0,0,1,532,231Zm0,67a2,2,0,1,1-2,2A2,2,0,0,1,532,298Zm-260,0a2,2,0,1,1-2,2A2,2,0,0,1,272,298Zm130,74a2,2,0,1,1-2,2A2,2,0,0,1,402,372Z" fill="#634991" fill-rule="evenodd"/><path d="M532,30a4,4,0,1,1-4,4A4,4,0,0,1,532,30Zm80-10a4,4,0,1,1-4,4A4,4,0,0,1,612,20Zm70,70a4,4,0,1,1-4,4A4,4,0,0,1,682,90ZM542,212a2,2,0,1,1-2,2A2,2,0,0,1,542,212Zm110,30a2,2,0,1,1-2,2A2,2,0,0,1,652,242Zm0-61a2,2,0,1,1-2,2A2,2,0,0,1,652,181Zm90,0a2,2,0,1,1-2,2A2,2,0,0,1,742,181Zm0,67a2,2,0,1,1-2,2A2,2,0,0,1,742,248Zm-260,1a2,2,0,1,1-2,2A2,2,0,0,1,482,249Zm130,73a2,2,0,1,1-2,2A2,2,0,0,1,612,322Z" fill="#634991" fill-rule="evenodd"/><path d="M161,265v75h43.4V308.4H236V265Zm51.3,75L236,316.3H212.3Z" fill="#634991" fill-rule="evenodd"/><path d="M1169.1,233a12.4,12.4,0,0,0-9.5,4.1h-.1l-35.2,34.7a21.2,21.2,0,0,0,30,30L1177,279l-3.2-3.4-1.8,1.6-21.1,21.1a16.5,16.5,0,0,1-23.3-23.3l35.2-34.7h0c3.2-3.6,9.4-3.3,13.2.1s3.7,9.2-.1,13L1140.7,288a2.3,2.3,0,1,1-3.2-3.2l22.7-22.7-3.2-3.4-1.8,1.6-21.1,21.1a7.1,7.1,0,0,0,10,10l35.2-34.7a13.7,13.7,0,0,0-.1-19.8,16.7,16.7,0,0,0-10.1-3.9Z" fill="#634991" fill-rule="evenodd"/><path d="M1212.9,360a6.1,6.1,0,0,1-4.8-2.1h-.1l-17.8-17.6a10.7,10.7,0,0,1,15.2-15.2l11.5,11.5-1.6,1.7-.9-.8-10.7-10.7a8.3,8.3,0,0,0-11.8,11.8l17.8,17.6h0c1.6,1.8,4.7,1.7,6.7-.1a4.5,4.5,0,0,0-.1-6.6l-17.8-17.6a1.1,1.1,0,1,0-1.6,1.6l11.5,11.5-1.6,1.7-.9-.8-10.7-10.7a3.5,3.5,0,0,1,5-5L1218,348a6.9,6.9,0,0,1-.1,10,7.4,7.4,0,0,1-5,2Z" fill="#634991" fill-rule="evenodd"/><path d="M1157.2,180.4a7.6,7.6,0,0,0-5.8-2.3h0l-29.6-.2a12.7,12.7,0,0,0,0,25.4h19.3v-2.8h-19.3a9.9,9.9,0,0,1,0-19.8l29.6.2h.1c2.9-.2,5.4,2.6,5.5,5.7a5.4,5.4,0,0,1-5.6,5.5l-29.6-.2a1.4,1.4,0,0,1,0-2.8h19.3V186H1122a4.2,4.2,0,0,0,0,8.4l29.6.2a8.1,8.1,0,0,0,8.3-8.5,10.2,10.2,0,0,0-2.7-5.6Z" fill="#634991" fill-rule="evenodd"/><path d="M1225.1,126.8a7.7,7.7,0,0,1-.9,6.2h.1l-14.7,25.8a12.7,12.7,0,0,1-22.1-12.7l9.6-16.7,2.5,1.3-.6,1.2-8.9,15.5a9.9,9.9,0,1,0,17.1,9.9l14.7-25.8h.1c1.6-2.4.5-5.9-2.1-7.6a5.4,5.4,0,0,0-7.5,2.1l-14.7,25.8a1.4,1.4,0,1,0,2.4,1.4l9.6-16.7,2.5,1.3-.7,1.3-8.9,15.5a4.2,4.2,0,1,1-7.3-4.3l14.7-25.8a8.2,8.2,0,0,1,11.5-3,10.1,10.1,0,0,1,3.6,5.2Z" fill="#634991" fill-rule="evenodd"/></svg>
