<?xml version="1.0" encoding="utf-8"?>
<!-- Generator: Adobe Illustrator 23.0.4, SVG Export Plug-In . SVG Version: 6.00 Build 0)  -->
<svg version="1.1" id="Capa_1" xmlns="http://www.w3.org/2000/svg" xmlns:xlink="http://www.w3.org/1999/xlink" x="0px" y="0px"
	 viewBox="0 0 1225.4 376" style="enable-background:new 0 0 1225.4 376;" xml:space="preserve">
<style type="text/css">
	.st0{fill-rule:evenodd;clip-rule:evenodd;fill:#634991;}
</style>
<g id="Aksen" transform="translate(27.000000, 164.000000)">
	<path id="Page-1" class="st0" d="M115.5-16h-68c-1.9,0-3.5,1.6-3.5,3.5v185c0,1.9,1.6,3.5,3.5,3.5h68c1.9,0,3.5-1.6,3.5-3.5v-185
		C119-14.4,117.4-16,115.5-16L115.5-16z M112,169H51v-30.8h16.5c1.9,0,3.5-1.6,3.5-3.5c0-1.9-1.6-3.5-3.5-3.5H51v-14h16.5
		c1.9,0,3.5-1.6,3.5-3.5s-1.6-3.5-3.5-3.5H51v-14h16.5c1.9,0,3.5-1.6,3.5-3.5s-1.6-3.5-3.5-3.5H51v-14h16.5c1.9,0,3.5-1.6,3.5-3.5
		c0-1.9-1.6-3.5-3.5-3.5H51v-14h16.5c1.9,0,3.5-1.6,3.5-3.5s-1.6-3.5-3.5-3.5H51v-14h16.5c1.9,0,3.5-1.6,3.5-3.5
		c0-1.9-1.6-3.5-3.5-3.5H51V12h16.5c1.9,0,3.5-1.6,3.5-3.5c0-1.9-1.6-3.5-3.5-3.5H51V-9h61L112,169L112,169z"/>
	<path id="Oval-3" class="st0" d="M945,12c-2.2,0-4-1.8-4-4s1.8-4,4-4s4,1.8,4,4S947.2,12,945,12z M1005,132c-2.2,0-4-1.8-4-4
		s1.8-4,4-4s4,1.8,4,4S1007.2,132,1005,132z M925,142c-2.2,0-4-1.8-4-4s1.8-4,4-4s4,1.8,4,4S927.2,142,925,142z M855,72
		c-2.2,0-4-1.8-4-4s1.8-4,4-4s4,1.8,4,4S857.2,72,855,72z M995-50c-1.1,0-2-0.9-2-2s0.9-2,2-2s2,0.9,2,2S996.1-50,995-50z M885-80
		c-1.1,0-2-0.9-2-2s0.9-2,2-2s2,0.9,2,2S886.1-80,885-80z M885-19c-1.1,0-2-0.9-2-2s0.9-2,2-2s2,0.9,2,2S886.1-19,885-19z M795-19
		c-1.1,0-2-0.9-2-2s0.9-2,2-2s2,0.9,2,2S796.1-19,795-19z M795-86c-1.1,0-2-0.9-2-2s0.9-2,2-2s2,0.9,2,2S796.1-86,795-86z M1055-86
		c-1.1,0-2-0.9-2-2s0.9-2,2-2s2,0.9,2,2S1056.1-86,1055-86z M925-160c-1.1,0-2-0.9-2-2s0.9-2,2-2s2,0.9,2,2S926.1-160,925-160z"/>
	<path class="st0" d="M85,12c2.2,0,4-1.8,4-4s-1.8-4-4-4s-4,1.8-4,4S82.8,12,85,12z M25,132c2.2,0,4-1.8,4-4s-1.8-4-4-4s-4,1.8-4,4
		S22.8,132,25,132z M105,142c2.2,0,4-1.8,4-4s-1.8-4-4-4s-4,1.8-4,4S102.8,142,105,142z M175,72c2.2,0,4-1.8,4-4s-1.8-4-4-4
		s-4,1.8-4,4S172.8,72,175,72z M35-50c1.1,0,2-0.9,2-2s-0.9-2-2-2s-2,0.9-2,2S33.9-50,35-50z M145-80c1.1,0,2-0.9,2-2s-0.9-2-2-2
		s-2,0.9-2,2S143.9-80,145-80z M145-19c1.1,0,2-0.9,2-2s-0.9-2-2-2s-2,0.9-2,2S143.9-19,145-19z M235-19c1.1,0,2-0.9,2-2s-0.9-2-2-2
		s-2,0.9-2,2S233.9-19,235-19z M235-86c1.1,0,2-0.9,2-2s-0.9-2-2-2s-2,0.9-2,2S233.9-86,235-86z M-25-86c1.1,0,2-0.9,2-2s-0.9-2-2-2
		s-2,0.9-2,2S-26.1-86-25-86z M105-160c1.1,0,2-0.9,2-2s-0.9-2-2-2s-2,0.9-2,2S103.9-160,105-160z"/>
	<path class="st0" d="M355,36c2.2,0,4,1.8,4,4s-1.8,4-4,4s-4-1.8-4-4S352.8,36,355,36z M295-84c2.2,0,4,1.8,4,4s-1.8,4-4,4
		s-4-1.8-4-4S292.8-84,295-84z M375-94c2.2,0,4,1.8,4,4s-1.8,4-4,4s-4-1.8-4-4S372.8-94,375-94z M445-29c2.2,0,4,1.8,4,4s-1.8,4-4,4
		s-4-1.8-4-4S442.8-29,445-29z M305,98c1.1,0,2,0.9,2,2s-0.9,2-2,2s-2-0.9-2-2S303.9,98,305,98z M415,129c1.1,0,2,0.9,2,2
		s-0.9,2-2,2s-2-0.9-2-2S413.9,129,415,129z M415,67c1.1,0,2,0.9,2,2s-0.9,2-2,2s-2-0.9-2-2S413.9,67,415,67z M505,67
		c1.1,0,2,0.9,2,2s-0.9,2-2,2s-2-0.9-2-2S503.9,67,505,67z M505,134c1.1,0,2,0.9,2,2s-0.9,2-2,2s-2-0.9-2-2S503.9,134,505,134z
		 M245,134c1.1,0,2,0.9,2,2s-0.9,2-2,2s-2-0.9-2-2S243.9,134,245,134z M375,208c1.1,0,2,0.9,2,2s-0.9,2-2,2s-2-0.9-2-2
		S373.9,208,375,208z"/>
	<path class="st0" d="M505-134c2.2,0,4,1.8,4,4s-1.8,4-4,4s-4-1.8-4-4S502.8-134,505-134z M585-144c2.2,0,4,1.8,4,4s-1.8,4-4,4
		s-4-1.8-4-4S582.8-144,585-144z M655-74c2.2,0,4,1.8,4,4s-1.8,4-4,4s-4-1.8-4-4S652.8-74,655-74z M515,48c1.1,0,2,0.9,2,2
		s-0.9,2-2,2s-2-0.9-2-2S513.9,48,515,48z M625,78c1.1,0,2,0.9,2,2s-0.9,2-2,2s-2-0.9-2-2S623.9,78,625,78z M625,17c1.1,0,2,0.9,2,2
		s-0.9,2-2,2s-2-0.9-2-2S623.9,17,625,17z M715,17c1.1,0,2,0.9,2,2s-0.9,2-2,2s-2-0.9-2-2S713.9,17,715,17z M715,84c1.1,0,2,0.9,2,2
		s-0.9,2-2,2s-2-0.9-2-2S713.9,84,715,84z M455,85c1.1,0,2,0.9,2,2s-0.9,2-2,2s-2-0.9-2-2S453.9,85,455,85z M585,158
		c1.1,0,2,0.9,2,2s-0.9,2-2,2s-2-0.9-2-2S583.9,158,585,158z"/>
	<path class="st0" d="M134,101v75h43.4v-31.6H209V101H134z M185.3,176l23.7-23.7h-23.7V176z"/>
	<path class="st0" d="M1142.1,69c-3.5-0.1-6.9,1.3-9.5,4.1l-0.1-0.1l-35.2,34.7c-8.4,8.4-8.4,21.7,0,30c8.4,8.4,21.7,8.4,30,0
		L1150,115l-3.2-3.4l-1.8,1.6l-21.1,21.1c-6.6,6.6-16.7,6.6-23.3,0c-6.6-6.6-6.6-16.7,0-23.3l35.2-34.7v-0.1
		c3.2-3.6,9.4-3.3,13.2,0.1c3.7,3.3,3.7,9.2-0.1,13l-35.2,34.7c-1,1-2.2,1-3.2,0c-1-1-1-2.2,0-3.2l22.7-22.7l-3.2-3.4l-1.8,1.6
		l-21.1,21.1c-2.7,2.7-2.7,7.3,0,10s7.3,2.7,10,0l35.2-34.7c5.6-5.6,5.6-14.6-0.1-19.8C1149.3,70.5,1145.7,69.1,1142.1,69L1142.1,69
		z"/>
	<path class="st0" d="M1185.9,196c-1.8,0-3.5-0.6-4.8-2.1l-0.1,0.1l-17.8-17.6c-4.2-4.2-4.2-11,0-15.2c4.2-4.2,11-4.2,15.2,0
		l11.5,11.5l-1.6,1.7l-0.9-0.8l-10.7-10.7c-3.4-3.4-8.4-3.4-11.8,0c-3.4,3.4-3.4,8.4,0,11.8l17.8,17.6v0.1c1.6,1.8,4.7,1.7,6.7-0.1
		c1.9-1.7,1.9-4.7-0.1-6.6l-17.8-17.6c-0.5-0.5-1.1-0.5-1.6,0c-0.5,0.5-0.5,1.1,0,1.6l11.5,11.5l-1.6,1.7l-0.9-0.8l-10.7-10.7
		c-1.4-1.4-1.4-3.7,0-5c1.4-1.4,3.7-1.4,5,0L1191,184c2.8,2.8,2.8,7.4-0.1,10C1189.5,195.3,1187.7,196,1185.9,196L1185.9,196z"/>
	<path class="st0" d="M1130.2,16.4c-1.5-1.5-3.5-2.4-5.8-2.3l0-0.1l-29.6-0.2c-7.1,0-12.7,5.6-12.7,12.7c0,7.1,5.6,12.7,12.7,12.7
		l19.3,0l0.1-2.8l-1.4-0.1l-17.9,0c-5.6,0-9.9-4.3-9.9-9.9c0-5.6,4.3-9.9,9.9-9.9l29.6,0.2l0.1-0.1c2.9-0.2,5.4,2.6,5.5,5.7
		c0.2,3-2.4,5.5-5.6,5.5l-29.6-0.2c-0.9,0-1.4-0.5-1.4-1.4c0-0.9,0.5-1.4,1.4-1.4l19.3,0l0.1-2.8l-1.4-0.1l-17.9,0
		c-2.3,0-4.2,1.9-4.2,4.2c0,2.3,1.9,4.2,4.2,4.2l29.6,0.2c4.7,0,8.6-3.8,8.3-8.5C1132.6,20,1131.7,17.9,1130.2,16.4L1130.2,16.4z"/>
	<path class="st0" d="M1198.1-37.2c0.6,2,0.3,4.2-0.9,6.2l0.1,0.1l-14.7,25.8c-3.5,6.1-11.3,8.2-17.4,4.7
		c-6.1-3.5-8.2-11.3-4.7-17.4l9.6-16.7l2.5,1.3L1172-32l-8.9,15.5c-2.8,4.9-1.3,10.7,3.6,13.5c4.9,2.8,10.7,1.3,13.5-3.6l14.7-25.8
		l0.1,0c1.6-2.4,0.5-5.9-2.1-7.6c-2.5-1.6-5.9-0.7-7.5,2.1l-14.7,25.8c-0.4,0.8-0.3,1.4,0.5,1.9c0.8,0.4,1.4,0.3,1.9-0.5l9.6-16.7
		l2.5,1.3l-0.7,1.3l-8.9,15.5c-1.1,2-3.8,2.7-5.8,1.5c-2-1.1-2.7-3.8-1.5-5.8l14.7-25.8c2.4-4.1,7.6-5.5,11.5-3
		C1196.2-41.1,1197.5-39.3,1198.1-37.2L1198.1-37.2z"/>
</g>
</svg>
