<svg width="38" height="38" viewBox="0 0 38 38" fill="none" xmlns="http://www.w3.org/2000/svg">
<path d="M16.408 26.968L20.668 22.948C20.7797 22.8423 20.8533 22.7025 20.8772 22.5505C20.9011 22.3985 20.8739 22.2429 20.8 22.108L17.572 16.528C17.4924 16.3955 17.4608 16.2397 17.4827 16.0867C17.5045 15.9337 17.5784 15.7929 17.692 15.688L19.924 13.6C20.0385 13.4935 20.1139 13.3515 20.1378 13.1969C20.1618 13.0423 20.1329 12.8842 20.056 12.748L18.856 10.6M14.8 26.272L16.276 23.704C16.3412 23.6018 16.3758 23.4832 16.3758 23.362C16.3758 23.2408 16.3412 23.1222 16.276 23.02L15.472 21.628C15.3938 21.4942 15.3642 21.3375 15.3882 21.1845C15.4123 21.0314 15.4885 20.8913 15.604 20.788L16.804 19.588C16.9195 19.4847 16.9957 19.3446 17.0198 19.1915C17.0438 19.0385 17.0142 18.8818 16.936 18.748L16.024 17.176C15.9641 17.0698 15.8769 16.9815 15.7714 16.9203C15.6659 16.8591 15.546 16.8272 15.424 16.828H13.228C13.106 16.8287 12.9861 16.7969 12.8806 16.7357C12.7751 16.6745 12.6879 16.5862 12.628 16.48L11.68 14.836M25.516 13.768L23.788 16.768C23.7291 16.8724 23.6982 16.9902 23.6982 17.11C23.6982 17.2298 23.7291 17.3476 23.788 17.452L25.132 19.768C25.1919 19.8742 25.2791 19.9625 25.3846 20.0237C25.4901 20.0849 25.61 20.1168 25.732 20.116H27.304M24.316 33.04C26.3018 32.2834 28.1049 31.1149 29.6065 29.6112C31.1081 28.1075 32.2742 26.3029 33.028 24.316M4.972 24.316C5.72583 26.3029 6.89192 28.1075 8.39353 29.6112C9.89513 31.1149 11.6982 32.2834 13.684 33.04M33.028 13.684C32.2721 11.6997 31.1051 9.89777 29.6037 8.39633C28.1022 6.89489 26.3003 5.72792 24.316 4.972M13.684 4.972C11.6997 5.72792 9.89778 6.89489 8.39633 8.39633C6.89489 9.89777 5.72792 11.6997 4.972 13.684M19 27.4C17.3386 27.4 15.7146 26.9073 14.3332 25.9843C12.9518 25.0613 11.8752 23.7494 11.2394 22.2145C10.6036 20.6796 10.4373 18.9907 10.7614 17.3612C11.0855 15.7318 11.8855 14.2351 13.0603 13.0603C14.2351 11.8855 15.7318 11.0855 17.3612 10.7614C18.9907 10.4373 20.6796 10.6036 22.2145 11.2394C23.7494 11.8752 25.0613 12.9518 25.9843 14.3332C26.9073 15.7146 27.4 17.3386 27.4 19C27.4 21.2278 26.515 23.3644 24.9397 24.9397C23.3644 26.515 21.2278 27.4 19 27.4ZM19 31C18.4067 31 17.8266 31.1759 17.3333 31.5056C16.8399 31.8352 16.4554 32.3038 16.2284 32.8519C16.0013 33.4001 15.9419 34.0033 16.0576 34.5853C16.1734 35.1672 16.4591 35.7018 16.8787 36.1213C17.2982 36.5409 17.8328 36.8266 18.4147 36.9424C18.9967 37.0581 19.5999 36.9987 20.1481 36.7716C20.6962 36.5446 21.1648 36.1601 21.4944 35.6667C21.8241 35.1734 22 34.5933 22 34C22 33.2043 21.6839 32.4413 21.1213 31.8787C20.5587 31.3161 19.7956 31 19 31ZM19 1C18.4067 1 17.8266 1.17595 17.3333 1.50559C16.8399 1.83524 16.4554 2.30377 16.2284 2.85195C16.0013 3.40013 15.9419 4.00333 16.0576 4.58527C16.1734 5.16721 16.4591 5.70176 16.8787 6.12132C17.2982 6.54088 17.8328 6.8266 18.4147 6.94236C18.9967 7.05811 19.5999 6.9987 20.1481 6.77164C20.6962 6.54458 21.1648 6.16006 21.4944 5.66671C21.8241 5.17336 22 4.59334 22 4C22 3.20435 21.6839 2.44129 21.1213 1.87868C20.5587 1.31607 19.7956 1 19 1ZM4 16C3.40666 16 2.82664 16.1759 2.33329 16.5056C1.83994 16.8352 1.45543 17.3038 1.22836 17.8519C1.0013 18.4001 0.94189 19.0033 1.05765 19.5853C1.1734 20.1672 1.45912 20.7018 1.87868 21.1213C2.29824 21.5409 2.83279 21.8266 3.41473 21.9424C3.99667 22.0581 4.59987 21.9987 5.14805 21.7716C5.69623 21.5446 6.16477 21.1601 6.49441 20.6667C6.82405 20.1734 7 19.5933 7 19C7 18.2043 6.68393 17.4413 6.12132 16.8787C5.55871 16.3161 4.79565 16 4 16ZM34 16C33.4067 16 32.8266 16.1759 32.3333 16.5056C31.8399 16.8352 31.4554 17.3038 31.2284 17.8519C31.0013 18.4001 30.9419 19.0033 31.0576 19.5853C31.1734 20.1672 31.4591 20.7018 31.8787 21.1213C32.2982 21.5409 32.8328 21.8266 33.4147 21.9424C33.9967 22.0581 34.5999 21.9987 35.1481 21.7716C35.6962 21.5446 36.1648 21.1601 36.4944 20.6667C36.8241 20.1734 37 19.5933 37 19C37 18.2043 36.6839 17.4413 36.1213 16.8787C35.5587 16.3161 34.7956 16 34 16Z" stroke="white" stroke-width="0.72" stroke-linejoin="round"/>
</svg>
