<svg width="32" height="32" viewBox="0 0 32 32" fill="none" xmlns="http://www.w3.org/2000/svg">
<path d="M24.36 31H23.64V23.5C23.64 19.948 21.226 16.896 17.768 16.076C17.618 16.04 17.507 15.913 17.493 15.76C17.478 15.606 17.564 15.46 17.705 15.397C19.222 14.722 20.201 13.216 20.201 11.561C20.201 9.245 18.317 7.36 16.001 7.36C13.685 7.36 11.8 9.244 11.8 11.561C11.8 13.216 12.78 14.723 14.296 15.397C14.437 15.46 14.523 15.606 14.508 15.76C14.494 15.913 14.383 16.041 14.233 16.076C10.775 16.896 8.36101 19.948 8.36101 23.5V31H7.64001V23.5C7.64001 19.908 9.89701 16.782 13.225 15.621C11.899 14.714 11.079 13.2 11.079 11.56C11.079 9.596 12.236 7.896 13.905 7.108C14.101 6.617 14.2 6.097 14.2 5.561C14.2 3.245 12.316 1.36 10 1.36C7.68401 1.36 5.79901 3.244 5.79901 5.561C5.79901 7.217 6.77901 8.723 8.29501 9.397C8.43701 9.46 8.52101 9.606 8.50701 9.76C8.49301 9.913 8.38202 10.041 8.23202 10.076C4.77402 10.896 2.36001 13.948 2.36001 17.5V25H1.64001V17.5C1.64001 13.908 3.89701 10.782 7.22501 9.621C5.89901 8.714 5.08001 7.2 5.08001 5.561C5.08001 2.848 7.28701 0.640999 10 0.640999C12.713 0.640999 14.92 2.848 14.92 5.561C14.92 5.983 14.868 6.397 14.763 6.798C15.554 6.593 16.446 6.593 17.236 6.798C17.132 6.397 17.079 5.983 17.079 5.561C17.079 2.848 19.287 0.640999 22 0.640999C24.713 0.640999 26.921 2.848 26.921 5.561C26.921 7.201 26.101 8.715 24.775 9.622C28.104 10.783 30.361 13.909 30.361 17.501V25H29.64V17.5C29.64 13.948 27.226 10.896 23.768 10.076C23.618 10.04 23.507 9.913 23.493 9.76C23.478 9.606 23.564 9.46 23.705 9.397C25.221 8.722 26.2 7.216 26.2 5.561C26.2 3.245 24.316 1.36 22 1.36C19.684 1.36 17.8 3.244 17.8 5.561C17.8 6.097 17.899 6.617 18.095 7.109C19.764 7.898 20.921 9.597 20.921 11.561C20.921 13.201 20.101 14.715 18.775 15.622C22.104 16.783 24.361 19.909 24.361 23.501L24.36 31Z" fill="white"/>
</svg>
