<svg width="32" height="32" viewBox="0 0 32 32" fill="none" xmlns="http://www.w3.org/2000/svg">
<g clip-path="url(#clip0_1_15)">
<rect width="32" height="32" fill="white" fill-opacity="0.01" style="mix-blend-mode:multiply"/>
<path d="M31.36 16C31.36 7.53 24.47 0.639999 16 0.639999C12.556 0.639999 9.20201 1.815 6.50501 3.94C6.21501 3.752 5.87101 3.64 5.50001 3.64C4.47501 3.64 3.64001 4.474 3.64001 5.5C3.64001 5.869 3.75101 6.212 3.93801 6.502C1.81401 9.197 0.640015 12.559 0.640015 16C0.640015 24.47 7.53001 31.36 16 31.36C19.442 31.36 22.799 30.185 25.496 28.061C25.786 28.248 26.13 28.36 26.5 28.36C27.525 28.36 28.36 27.525 28.36 26.5C28.36 26.13 28.248 25.787 28.061 25.497C30.185 22.799 31.36 19.442 31.36 16ZM27.556 24.972C27.256 24.764 26.892 24.64 26.5 24.64C26.117 24.64 25.761 24.757 25.465 24.956L11.207 10.698C12.749 10.487 14.348 10.359 16 10.359C23.936 10.359 30.64 12.942 30.64 15.999C30.64 17.709 28.494 19.374 24.897 20.455L25.104 21.144C27.625 20.387 29.458 19.355 30.466 18.172C30.094 20.643 29.094 22.991 27.556 24.972ZM30.461 13.836C28.365 11.368 22.766 9.64 16 9.64C14.122 9.64 12.296 9.783 10.559 10.05L7.04401 6.535C7.24301 6.239 7.36001 5.883 7.36001 5.5C7.36001 5.108 7.23701 4.746 7.02901 4.445C9.58601 2.459 12.75 1.36 16 1.36C23.335 1.36 29.41 6.788 30.461 13.836ZM5.50001 4.36C6.12801 4.36 6.64001 4.872 6.64001 5.5C6.64001 6.128 6.12801 6.64 5.50001 6.64C4.87201 6.64 4.36001 6.128 4.36001 5.5C4.36001 4.872 4.87201 4.36 5.50001 4.36ZM4.44401 7.027C4.74401 7.236 5.10701 7.36 5.50001 7.36C5.88301 7.36 6.23901 7.243 6.53501 7.044L20.792 21.302C19.252 21.513 17.653 21.64 16 21.64C8.06401 21.64 1.36001 19.058 1.36001 16C1.36001 14.291 3.50701 12.625 7.10401 11.544L6.89701 10.855C4.37501 11.613 2.54201 12.645 1.53301 13.828C1.90501 11.358 2.90501 9.008 4.44401 7.027ZM1.53801 18.163C3.63401 20.632 9.23301 22.36 16 22.36C17.881 22.36 19.707 22.217 21.44 21.95L24.955 25.465C24.756 25.761 24.639 26.117 24.639 26.5C24.639 26.892 24.762 27.255 24.97 27.555C22.415 29.541 19.248 30.64 16 30.64C8.66401 30.64 2.58901 25.211 1.53801 18.163ZM26.5 27.64C25.871 27.64 25.36 27.129 25.36 26.5C25.36 25.871 25.871 25.36 26.5 25.36C27.129 25.36 27.64 25.871 27.64 26.5C27.64 27.129 27.129 27.64 26.5 27.64Z" fill="white"/>
</g>
<defs>
<clipPath id="clip0_1_15">
<rect width="32" height="32" fill="white"/>
</clipPath>
</defs>
</svg>
