<svg width="32" height="32" viewBox="0 0 32 32" fill="none" xmlns="http://www.w3.org/2000/svg">
<g clip-path="url(#clip0_2_19)">
<path d="M31 31.36H23C22.801 31.36 22.64 31.199 22.64 31V17C22.64 16.801 22.801 16.64 23 16.64H26.64V5.36001H23V4.64001H27C27.199 4.64001 27.36 4.80101 27.36 5.00001V16.64H31C31.199 16.64 31.36 16.801 31.36 17V31C31.36 31.199 31.199 31.36 31 31.36ZM23.36 30.64H30.639V17.36H23.36V30.64ZM5.00001 31.36C2.59601 31.36 0.640015 29.404 0.640015 27C0.640015 24.596 2.59601 22.64 5.00001 22.64C7.28301 22.64 9.16201 24.404 9.34501 26.64H20V27.361H9.34501C9.16201 29.597 7.28301 31.36 5.00001 31.36ZM5.00001 23.36C2.99301 23.36 1.36001 24.993 1.36001 27C1.36001 29.007 2.99301 30.64 5.00001 30.64C7.00701 30.64 8.64001 29.007 8.64001 27C8.64001 24.993 7.00701 23.36 5.00001 23.36ZM5.36001 20.5H4.64001V5.00001C4.64001 4.80101 4.80101 4.64001 5.00001 4.64001H13.64V1.00001C13.64 0.867007 13.713 0.745007 13.83 0.683007C13.947 0.621007 14.09 0.627007 14.2 0.701007L20.2 4.70101C20.3 4.76701 20.36 4.87901 20.36 5.00001C20.36 5.12101 20.3 5.23301 20.199 5.29901L14.199 9.29901C14.089 9.37301 13.946 9.38001 13.829 9.31701C13.713 9.25501 13.64 9.13301 13.64 9.00001V5.36001H5.36001V20.5ZM14.36 1.67301V8.32701L19.351 5.00001L14.36 1.67301Z" fill="white"/>
</g>
<defs>
<clipPath id="clip0_2_19">
<rect width="32" height="32" fill="white"/>
</clipPath>
</defs>
</svg>
