<svg width="452" height="141" viewBox="0 0 452 141" fill="none" xmlns="http://www.w3.org/2000/svg">
<g clip-path="url(#clip0_577_1477)">
<path d="M221.26 126.41H209.69C200.58 126.41 196.37 121.41 196.37 113.41V107.21C178.14 104.88 166.57 90.38 166.57 65.37C166.57 37.91 180.48 23.18 201.75 23.18C223.02 23.18 236.92 37.91 236.92 65.37C236.92 89.68 226.06 104.06 208.76 106.98V115.39H221L221.26 126.41ZM222.78 71.83V59C222.78 44.16 214.37 35 201.78 35C189.19 35 180.78 44.12 180.78 59V71.83C180.78 86.67 189.19 95.83 201.78 95.83C214.37 95.83 222.78 86.67 222.78 71.83Z" fill="#010101"/>
<path d="M246.31 30.26V28.26C246.31 24.4 248.65 21.6 253.91 21.6C259.17 21.6 261.39 24.4 261.39 28.26V30.26C261.39 34.11 259.17 36.92 253.91 36.92C248.65 36.92 246.31 34.11 246.31 30.26Z" fill="#010101"/>
<path d="M260.22 45.42H247.48V106.19H260.22V45.42Z" fill="#010101"/>
<path d="M270.85 96.14L279 88.66C283.44 94.04 288.93 97.31 296.18 97.31C303.43 97.31 307.28 94.31 307.28 89.13C307.28 85.27 304.94 82.35 298.63 81.53L293.02 80.83C280.63 79.31 273.02 73.93 273.02 62.71C273.02 50.91 282.25 44.01 295.57 44.01C306.57 44.01 312.75 47.64 318.25 53.71L310.42 61.19C308.598 59.0266 306.325 57.2885 303.759 56.0982C301.194 54.9078 298.398 54.294 295.57 54.3C288.57 54.3 285.29 57.3 285.29 61.89C285.29 66.48 288.21 68.67 294.64 69.73L300.25 70.43C313.57 72.43 319.53 78.26 319.53 88.07C319.53 99.76 310.07 107.59 295.46 107.59C284.05 107.59 276.57 103.27 270.85 96.14Z" fill="#010101"/>
<path d="M328.22 19.7H341V72.76H341.58L350 61.89L364.61 45.42H379.45L358.14 68.91L382 106.19H366.79L349.37 77.19L341 86.32V106.19H328.22V19.7Z" fill="#010101"/>
<path d="M390.84 30.26V28.26C390.84 24.4 393.18 21.6 398.44 21.6C403.7 21.6 405.91 24.4 405.91 28.26V30.26C405.91 34.11 403.69 36.92 398.44 36.92C393.19 36.92 390.84 34.11 390.84 30.26Z" fill="#010101"/>
<path d="M404.75 45.42H392.01V106.19H404.75V45.42Z" fill="#010101"/>
<path d="M438.28 106.19C429.51 106.19 424.84 101.28 424.84 92.98V55.82H415.37V45.42H420.52C424.72 45.42 426.12 43.66 426.12 39.42V28.82H437.58V45.42H450.32V55.82H437.58V95.82H449.38V106.22L438.28 106.19Z" fill="#010101"/>
<path d="M131.14 103.14C131 90.19 100.61 82.88 72 82.56C41.65 82.56 10.25 90.24 10.15 103.1V103.18C10.27 116.1 40.68 123.4 69.29 123.72C99.64 123.72 131.04 116.04 131.14 103.18V103.14ZM69.28 119C37.28 118.64 14.95 110.37 14.87 103.15C15 95.65 39.36 87.29 72 87.29C104 87.65 126.33 95.92 126.41 103.14C126.32 110.63 101.91 119 69.28 119Z" fill="url(#paint0_radial_577_1477)"/>
<path d="M70.77 140.34C58.3764 140.378 46.1951 137.124 35.4707 130.912C24.7464 124.7 15.8636 115.752 9.73008 104.983C3.59658 94.2133 0.432308 82.0085 0.560622 69.6156C0.688936 57.2227 4.10524 45.086 10.4604 34.4458C16.8156 23.8057 25.8818 15.0435 36.7324 9.05487C47.5831 3.0662 59.8292 0.065726 72.2193 0.360065C84.6094 0.654404 96.6992 4.233 107.253 10.7302C117.807 17.2273 126.447 26.4101 132.29 37.34C137.998 47.9875 140.851 59.9319 140.571 72.0098C140.292 84.0876 136.889 95.8871 130.694 106.259C124.499 116.631 115.723 125.221 105.222 131.194C94.7204 137.167 82.851 140.318 70.77 140.34ZM70.55 5.16C56.2879 5.19021 42.4291 9.89527 31.0965 18.5544C19.7639 27.2135 11.5826 39.3491 7.80598 53.102C4.02933 66.855 4.8656 81.4669 10.1867 94.6992C15.5077 107.931 25.0201 119.054 37.2666 126.364C49.5131 133.674 63.8183 136.767 77.9907 135.17C92.1631 133.573 105.421 127.373 115.734 117.521C126.046 107.669 132.844 94.7083 135.087 80.6237C137.33 66.539 134.893 52.1075 128.15 39.54C122.557 29.1353 114.245 20.4428 104.102 14.3885C93.9586 8.33415 82.3629 5.14473 70.55 5.16Z" fill="#010101"/>
<path d="M88.69 130.93C88.62 125.58 80.89 121.54 70.69 121.54C60.49 121.54 52.69 125.54 52.69 130.93V131C52.76 136.35 60.49 140.39 70.69 140.39C80.89 140.39 88.69 136.39 88.69 131V130.93ZM70.69 135.93C62.6 135.93 57.44 133.01 57.38 130.93C57.32 128.85 62.6 125.93 70.69 125.93C78.78 125.93 83.93 128.86 83.99 130.93C84.05 133 78.74 135.89 70.66 135.89L70.69 135.93Z" fill="url(#paint1_radial_577_1477)"/>
<path d="M140.62 70.41C140.42 56.56 105.3 48.66 72.26 48.32C37.26 48.32 0.890002 56.62 0.690002 70.41C0.690002 70.41 0.690002 70.41 0.690002 70.47C0.890002 84.32 36 92.22 69.05 92.56C104.05 92.56 140.42 84.26 140.62 70.47C140.62 70.47 140.62 70.43 140.62 70.41ZM69.07 87.83C31.65 87.44 5.55 78.35 5.42 70.42C5.55 62.19 34.09 53 72.24 53C109.66 53.39 135.76 62.48 135.89 70.41C135.76 78.64 107.22 87.83 69.07 87.83Z" fill="url(#paint2_radial_577_1477)"/>
<path d="M72 16.88C41.64 16.88 10.24 24.59 10.24 37.47C10.24 50.35 40.63 57.75 69.24 58.07C99.6 58.07 131 50.36 131 37.47C131 24.58 100.65 17.2 72 16.88ZM69.31 53.34C37.31 53 15 44.69 15 37.47C15 30 39.4 21.61 72 21.61C104 21.97 126.29 30.26 126.29 37.47C126.31 45 101.92 53.34 69.31 53.34Z" fill="url(#paint3_radial_577_1477)"/>
<path d="M70.42 0.369995C65.33 0.369995 53.5 1.14 53.5 8.26C53.5 15.38 65.33 16.15 70.42 16.15C75.51 16.15 87.34 15.38 87.34 8.26C87.34 1.14 75.51 0.369995 70.42 0.369995ZM70.42 5.16C77.57 5.16 82.55 6.8 82.55 8.26C82.55 9.72 77.55 11.36 70.42 11.36C63.29 11.36 58.29 9.73 58.29 8.26C58.29 6.79 63.27 5.16 70.42 5.16Z" fill="black"/>
<path d="M100 112.81C99.712 112.813 99.4246 112.836 99.14 112.88L72.83 67.45L48.88 26.06C49.7333 24.9934 50.1971 23.6677 50.1948 22.3018C50.1926 20.9359 49.7243 19.6117 48.8675 18.548C48.0107 17.4843 46.8166 16.7447 45.4825 16.4516C44.1485 16.1584 42.7543 16.3292 41.5305 16.9358C40.3067 17.5423 39.3264 18.5482 38.7517 19.7873C38.1771 21.0264 38.0424 22.4245 38.3699 23.7505C38.6974 25.0766 39.4676 26.2512 40.5531 27.0802C41.6386 27.9092 42.9745 28.343 44.34 28.31C44.6047 28.2992 44.8685 28.2725 45.13 28.23L69.08 69.62L79.9 88.33L95.34 115C94.4743 116.053 93.9931 117.37 93.9756 118.733C93.958 120.096 94.4053 121.425 95.2436 122.5C96.0819 123.575 97.2614 124.332 98.5877 124.647C99.914 124.963 101.308 124.817 102.541 124.234C103.773 123.651 104.77 122.666 105.368 121.44C105.965 120.215 106.128 118.823 105.829 117.493C105.529 116.163 104.786 114.974 103.721 114.123C102.656 113.272 101.333 112.809 99.97 112.81H100Z" fill="url(#paint4_radial_577_1477)"/>
</g>
<defs>
<radialGradient id="paint0_radial_577_1477" cx="0" cy="0" r="1" gradientUnits="userSpaceOnUse" gradientTransform="translate(94.0016 71.969) rotate(12.3391) scale(63.846 41.9293)">
<stop offset="0.16" stop-color="#010101" stop-opacity="0"/>
<stop offset="1" stop-color="#010101"/>
</radialGradient>
<radialGradient id="paint1_radial_577_1477" cx="0" cy="0" r="1" gradientUnits="userSpaceOnUse" gradientTransform="translate(70.9594 113.784) scale(34.3196 21.012)">
<stop stop-color="#010101" stop-opacity="0"/>
<stop offset="1" stop-color="#010101"/>
</radialGradient>
<radialGradient id="paint2_radial_577_1477" cx="0" cy="0" r="1" gradientUnits="userSpaceOnUse" gradientTransform="translate(71.2904 31.88) scale(59.0744 45.21)">
<stop offset="0.2" stop-color="#010101" stop-opacity="0"/>
<stop offset="1" stop-color="#010101"/>
</radialGradient>
<radialGradient id="paint3_radial_577_1477" cx="0" cy="0" r="1" gradientUnits="userSpaceOnUse" gradientTransform="translate(34.7338 2.1361) rotate(65.799) scale(39.6938 56.2575)">
<stop offset="0.36" stop-color="#010101" stop-opacity="0"/>
<stop offset="1" stop-color="#010101"/>
</radialGradient>
<radialGradient id="paint4_radial_577_1477" cx="0" cy="0" r="1" gradientUnits="userSpaceOnUse" gradientTransform="translate(-372.373 -1176.77) scale(1047.56 1047.56)">
<stop stop-color="#010101" stop-opacity="0"/>
<stop offset="0.37" stop-color="#010101"/>
</radialGradient>
<clipPath id="clip0_577_1477">
<rect width="451.72" height="140.85" fill="white"/>
</clipPath>
</defs>
</svg>
