<svg id="Layer_1" data-name="Layer 1" xmlns="http://www.w3.org/2000/svg" xmlns:xlink="http://www.w3.org/1999/xlink" viewBox="0 0 115 115"><defs><style>.cls-1,.cls-2,.cls-3,.cls-4,.cls-5,.cls-7{fill:none;}.cls-1,.cls-3,.cls-4,.cls-5,.cls-7{stroke-miterlimit:10;}.cls-1,.cls-2,.cls-3,.cls-4,.cls-5{stroke-width:2.39px;}.cls-1{stroke:url(#linear-gradient);}.cls-2,.cls-7{stroke:#fff;}.cls-2{stroke-linecap:round;stroke-linejoin:round;}.cls-3{stroke:url(#linear-gradient-2);}.cls-4{stroke:url(#linear-gradient-3);}.cls-5{stroke:url(#linear-gradient-4);}.cls-6{fill:#fff;}.cls-7{stroke-width:1.61px;}</style><linearGradient id="linear-gradient" x1="47.77" y1="95.77" x2="67.24" y2="95.77" gradientUnits="userSpaceOnUse"><stop offset="0.13" stop-color="#fff"/><stop offset="0.14" stop-color="#f6f6f6"/><stop offset="0.15" stop-color="#c8c8c8"/><stop offset="0.17" stop-color="#9d9d9d"/><stop offset="0.19" stop-color="#777"/><stop offset="0.21" stop-color="#575757"/><stop offset="0.23" stop-color="#3b3b3b"/><stop offset="0.26" stop-color="#252525"/><stop offset="0.29" stop-color="#141414"/><stop offset="0.33" stop-color="#090909"/><stop offset="0.38" stop-color="#020202"/><stop offset="0.52"/><stop offset="0.66" stop-color="#020202"/><stop offset="0.71" stop-color="#090909"/><stop offset="0.75" stop-color="#141414"/><stop offset="0.77" stop-color="#252525"/><stop offset="0.8" stop-color="#3b3b3b"/><stop offset="0.82" stop-color="#575757"/><stop offset="0.84" stop-color="#777"/><stop offset="0.86" stop-color="#9d9d9d"/><stop offset="0.87" stop-color="#c8c8c8"/><stop offset="0.89" stop-color="#f6f6f6"/><stop offset="0.89" stop-color="#fff"/></linearGradient><linearGradient id="linear-gradient-2" x1="12.15" y1="49.91" x2="102.85" y2="49.91" gradientUnits="userSpaceOnUse"><stop offset="0" stop-color="#fff"/><stop offset="0" stop-color="#f6f6f6"/><stop offset="0.02" stop-color="#c8c8c8"/><stop offset="0.05" stop-color="#9d9d9d"/><stop offset="0.07" stop-color="#777"/><stop offset="0.1" stop-color="#575757"/><stop offset="0.13" stop-color="#3b3b3b"/><stop offset="0.17" stop-color="#252525"/><stop offset="0.21" stop-color="#141414"/><stop offset="0.26" stop-color="#090909"/><stop offset="0.33" stop-color="#020202"/><stop offset="0.52"/><stop offset="0.7" stop-color="#020202"/><stop offset="0.77" stop-color="#090909"/><stop offset="0.81" stop-color="#141414"/><stop offset="0.85" stop-color="#252525"/><stop offset="0.88" stop-color="#3b3b3b"/><stop offset="0.91" stop-color="#575757"/><stop offset="0.93" stop-color="#777"/><stop offset="0.96" stop-color="#9d9d9d"/><stop offset="0.98" stop-color="#c8c8c8"/><stop offset="1" stop-color="#f6f6f6"/><stop offset="1" stop-color="#fff"/></linearGradient><linearGradient id="linear-gradient-3" x1="19.35" y1="72.62" x2="95.65" y2="72.62" gradientUnits="userSpaceOnUse"><stop offset="0.03" stop-color="#fff"/><stop offset="0.04" stop-color="#f6f6f6"/><stop offset="0.06" stop-color="#c8c8c8"/><stop offset="0.08" stop-color="#9d9d9d"/><stop offset="0.1" stop-color="#777"/><stop offset="0.13" stop-color="#575757"/><stop offset="0.16" stop-color="#3b3b3b"/><stop offset="0.19" stop-color="#252525"/><stop offset="0.23" stop-color="#141414"/><stop offset="0.27" stop-color="#090909"/><stop offset="0.34" stop-color="#020202"/><stop offset="0.52"/><stop offset="0.69" stop-color="#020202"/><stop offset="0.75" stop-color="#090909"/><stop offset="0.79" stop-color="#141414"/><stop offset="0.83" stop-color="#252525"/><stop offset="0.86" stop-color="#3b3b3b"/><stop offset="0.88" stop-color="#575757"/><stop offset="0.91" stop-color="#777"/><stop offset="0.93" stop-color="#9d9d9d"/><stop offset="0.95" stop-color="#c8c8c8"/><stop offset="0.97" stop-color="#f6f6f6"/><stop offset="0.97" stop-color="#fff"/></linearGradient><linearGradient id="linear-gradient-4" x1="19.35" y1="28.38" x2="95.65" y2="28.38" gradientUnits="userSpaceOnUse"><stop offset="0.03" stop-color="#fff"/><stop offset="0.04" stop-color="#f6f6f6"/><stop offset="0.06" stop-color="#c8c8c8"/><stop offset="0.08" stop-color="#9d9d9d"/><stop offset="0.1" stop-color="#777"/><stop offset="0.13" stop-color="#575757"/><stop offset="0.16" stop-color="#3b3b3b"/><stop offset="0.19" stop-color="#252525"/><stop offset="0.23" stop-color="#141414"/><stop offset="0.27" stop-color="#090909"/><stop offset="0.34" stop-color="#020202"/><stop offset="0.52"/><stop offset="0.69" stop-color="#020202"/><stop offset="0.75" stop-color="#090909"/><stop offset="0.79" stop-color="#141414"/><stop offset="0.82" stop-color="#252525"/><stop offset="0.85" stop-color="#3b3b3b"/><stop offset="0.88" stop-color="#575757"/><stop offset="0.9" stop-color="#777"/><stop offset="0.92" stop-color="#9d9d9d"/><stop offset="0.94" stop-color="#c8c8c8"/><stop offset="0.96" stop-color="#f6f6f6"/><stop offset="0.96" stop-color="#fff"/></linearGradient></defs><title>Artboard 21 copy</title><rect x="-0.83" y="-0.83" width="115.83" height="116.66"/><path class="cls-1" d="M49,98.12c0-1.94,3.82-3.51,8.54-3.51S66,96.18,66,98.12"/><path class="cls-2" d="M66,98.12c0,1.94-3.82,3.51-8.54,3.51S49,100.06,49,98.12"/><path class="cls-2" d="M49,16.86c0-1.94,3.82-3.51,8.54-3.51S66,14.92,66,16.86"/><path class="cls-3" d="M13.35,57.5c0-7.72,19.77-14,44.15-14s44.15,6.26,44.15,14"/><path class="cls-4" d="M20.55,79.48c0-6.91,16.54-12.51,37-12.51s37,5.6,37,12.51"/><path class="cls-2" d="M94.45,79.48c0,6.91-16.54,12.51-37,12.51s-37-5.6-37-12.51"/><path class="cls-5" d="M20.55,35.23c0-6.91,16.54-12.51,37-12.51s37,5.6,37,12.51"/><path class="cls-2" d="M66,16.86c0,1.94-3.82,3.51-8.54,3.51S49,18.8,49,16.86"/><circle class="cls-6" cx="43.89" cy="23.61" r="3.41"/><circle class="cls-6" cx="74.78" cy="90.54" r="3.41"/><line class="cls-7" x1="68.42" y1="76.77" x2="74.78" y2="90.54"/><path class="cls-6" d="M65,67.44l-.37.17-.37.17-.37.17-.37.17.52,1.13,1.82,3.93,1.7,3.69.11.23.37-.17.37-.17.37-.17.37-.17L69,76.2l-1.7-3.69-1.82-3.93Z"/><line class="cls-7" x1="57.5" y1="53.11" x2="64.27" y2="67.78"/><line class="cls-7" x1="52.57" y1="42.41" x2="57.5" y2="53.11"/><line class="cls-7" x1="43.89" y1="23.61" x2="52.57" y2="42.41"/><circle class="cls-2" cx="57.5" cy="57.5" r="44.15"/><path class="cls-2" d="M94.45,35.23c0,6.91-16.54,12.51-37,12.51s-37-5.6-37-12.51"/><path class="cls-2" d="M101.65,57.5c0,7.72-19.77,14-44.15,14s-44.15-6.26-44.15-14"/></svg>